<svg xmlns="http://www.w3.org/2000/svg" id="Layer_1" viewBox="0 0 792 299.41"><defs><style>.cls-1{fill:#010101;stroke-width:0px;}</style></defs><path class="cls-1" d="M118.18,157.14c-1.53,0-2.99-.3-4.39-.9-1.4-.6-2.64-1.47-3.73-2.6-1.07-1.13-1.92-2.51-2.56-4.15-.64-1.63-.96-3.47-.96-5.52s.31-3.91.94-5.58c.62-1.67,1.49-3.1,2.6-4.31,1.09-1.19,2.39-2.11,3.88-2.76,1.49-.65,3.09-.98,4.78-.98,1.26,0,2.41.16,3.43.47,1.02.31,2,.75,2.92,1.32l.74-1.23h1.44l.16,9.14h-1.48c-.19-.89-.48-1.86-.87-2.9-.38-1.04-.84-1.92-1.35-2.65-.58-.82-1.26-1.46-2.06-1.92-.79-.46-1.7-.7-2.72-.7-1.17,0-2.25.26-3.26.78-1,.52-1.87,1.28-2.61,2.3-.7.98-1.25,2.22-1.64,3.72s-.6,3.19-.6,5.04c0,1.64.21,3.14.62,4.51s1.01,2.57,1.78,3.61c.77,1.02,1.68,1.83,2.73,2.4,1.05.58,2.23.87,3.53.87.97,0,1.87-.15,2.69-.46.82-.31,1.53-.71,2.13-1.22.6-.53,1.13-1.13,1.59-1.81.46-.67.83-1.41,1.12-2.2l1.35.65c-1.03,2.54-2.41,4.36-4.11,5.44-1.71,1.09-3.74,1.63-6.1,1.63Z"></path><path class="cls-1" d="M169.33,156.52h-10.65v-1.28c.94-.06,1.72-.18,2.34-.36.62-.18.93-.4.93-.67,0-.11-.01-.24-.04-.4-.02-.16-.06-.29-.11-.42l-2.12-5.74h-8.99c-.34.84-.61,1.58-.82,2.2-.21.63-.4,1.2-.57,1.73-.16.52-.26.94-.33,1.26-.06.33-.09.59-.09.79,0,.48.38.86,1.14,1.12.76.26,1.61.42,2.56.47v1.28h-9.65v-1.28c.31-.02.7-.09,1.17-.21.47-.11.85-.27,1.16-.46.48-.33.85-.67,1.12-1.02.26-.35.52-.85.78-1.47,1.29-3.21,2.71-6.83,4.26-10.83,1.55-4.01,2.94-7.58,4.15-10.71h1.44l8.54,22.1c.18.47.39.85.61,1.14.23.29.55.57.96.85.28.17.64.31,1.08.42.45.11.82.18,1.12.19v1.28ZM159.02,146.05l-3.88-9.94-3.83,9.94h7.71Z"></path><path class="cls-1" d="M204.66,137.22c0,1.34-.26,2.52-.79,3.55-.52,1.03-1.25,1.88-2.18,2.56-.91.67-1.92,1.17-3.02,1.48-1.1.31-2.26.47-3.49.47h-2.87v7.76c0,.42.07.79.21,1.11s.42.56.86.73c.22.08.6.16,1.15.23.55.07,1.05.11,1.51.13v1.28h-11v-1.28c.29-.02.71-.07,1.25-.13.55-.06.93-.14,1.15-.23.36-.16.62-.38.79-.69.16-.3.24-.69.24-1.16v-18.49c0-.42-.06-.8-.18-1.14-.12-.34-.4-.59-.85-.76-.46-.16-.91-.27-1.36-.33-.45-.07-.84-.11-1.16-.14v-1.28h11.7c2.38,0,4.32.57,5.81,1.72,1.49,1.15,2.23,2.68,2.23,4.6ZM199.17,141.59c.41-.58.68-1.18.81-1.8.13-.62.2-1.18.2-1.67,0-.69-.08-1.38-.24-2.09-.16-.71-.44-1.33-.84-1.86-.42-.57-.98-1.01-1.66-1.32s-1.54-.47-2.56-.47h-2.55v11.32h1.84c1.3,0,2.36-.2,3.17-.6.81-.4,1.42-.91,1.83-1.51Z"></path><path class="cls-1" d="M233.59,156.52h-11.54v-1.28c.33-.02.79-.06,1.41-.11.61-.05,1.05-.12,1.3-.22.4-.16.69-.37.87-.64.18-.27.27-.65.27-1.13v-18.56c0-.42-.07-.77-.2-1.06-.13-.28-.45-.52-.94-.71-.36-.14-.82-.28-1.36-.41-.55-.13-1-.2-1.35-.23v-1.28h11.54v1.28c-.37.01-.82.06-1.34.14-.52.08-.97.18-1.35.3-.46.14-.76.38-.92.7-.16.32-.23.69-.23,1.08v18.55c0,.4.09.75.26,1.06.17.31.47.55.89.73.25.1.66.2,1.24.32.57.11,1.06.18,1.45.19v1.28Z"></path><path class="cls-1" d="M272.44,137.85h-1.25c-.11-.43-.3-.95-.59-1.54s-.6-1.16-.95-1.69c-.36-.55-.76-1.04-1.19-1.45-.43-.42-.84-.65-1.24-.71-.37-.05-.84-.08-1.41-.11-.57-.02-1.09-.04-1.57-.04h-1.05v20.5c0,.4.08.76.25,1.09.17.33.46.59.88.77.22.08.67.2,1.36.34.69.14,1.23.22,1.62.23v1.28h-12.1v-1.28c.34-.02.85-.07,1.54-.14.69-.07,1.17-.16,1.44-.27.4-.16.69-.38.88-.68.19-.3.28-.69.28-1.18v-20.66h-1.05c-.37,0-.84,0-1.39.03-.55.02-1.08.06-1.59.12-.4.05-.81.29-1.24.71s-.82.91-1.18,1.45c-.36.54-.68,1.12-.96,1.72-.28.61-.47,1.11-.58,1.51h-1.26v-6.95h22.34v6.95Z"></path><path class="cls-1" d="M313.16,156.52h-10.65v-1.28c.94-.06,1.72-.18,2.34-.36.62-.18.93-.4.93-.67,0-.11-.01-.24-.04-.4-.02-.16-.06-.29-.11-.42l-2.12-5.74h-8.99c-.34.84-.61,1.58-.82,2.2-.21.63-.4,1.2-.57,1.73-.16.52-.27.94-.33,1.26-.06.33-.09.59-.09.79,0,.48.38.86,1.14,1.12.76.26,1.61.42,2.56.47v1.28h-9.65v-1.28c.31-.02.7-.09,1.17-.21.47-.11.85-.27,1.16-.46.48-.33.85-.67,1.12-1.02.26-.35.52-.85.78-1.47,1.29-3.21,2.71-6.83,4.26-10.83,1.55-4.01,2.94-7.58,4.15-10.71h1.44l8.54,22.1c.18.47.38.85.61,1.14.23.29.55.57.96.85.28.17.64.31,1.08.42.45.11.82.18,1.12.19v1.28ZM302.85,146.05l-3.88-9.94-3.83,9.94h7.71Z"></path><path class="cls-1" d="M349.44,148.9l-.54,7.62h-20.03v-1.28c.29-.02.71-.07,1.26-.13s.93-.14,1.15-.23c.36-.16.62-.38.79-.69.16-.3.24-.69.24-1.16v-18.35c0-.41-.07-.77-.21-1.08-.14-.31-.41-.57-.82-.76-.28-.14-.67-.29-1.16-.42-.5-.14-.91-.22-1.24-.24v-1.28h10.82v1.28c-.34.01-.77.07-1.31.18-.54.11-.92.2-1.16.29-.41.14-.69.39-.84.74s-.23.72-.23,1.12v17.21c0,.79.04,1.41.12,1.85.08.44.26.78.55,1.02.28.22.69.36,1.24.42.55.07,1.32.1,2.3.1.45,0,.91-.01,1.39-.04.48-.02.94-.07,1.37-.14.42-.07.81-.17,1.16-.3.35-.13.62-.29.79-.48.49-.55,1.07-1.39,1.72-2.52.66-1.13,1.11-2.04,1.36-2.74h1.28Z"></path><path class="cls-1" d="M409.31,137.22c0,1.34-.26,2.52-.79,3.55-.52,1.03-1.25,1.88-2.18,2.56-.91.67-1.92,1.17-3.02,1.48-1.1.31-2.26.47-3.49.47h-2.87v7.76c0,.42.07.79.21,1.11s.42.56.86.73c.22.08.6.16,1.15.23.55.07,1.05.11,1.51.13v1.28h-11v-1.28c.29-.02.71-.07,1.25-.13.55-.06.93-.14,1.15-.23.36-.16.62-.38.79-.69.16-.3.24-.69.24-1.16v-18.49c0-.42-.06-.8-.18-1.14-.12-.34-.4-.59-.85-.76-.46-.16-.91-.27-1.36-.33-.45-.07-.84-.11-1.16-.14v-1.28h11.7c2.38,0,4.32.57,5.81,1.72,1.49,1.15,2.23,2.68,2.23,4.6ZM403.82,141.59c.41-.58.68-1.18.81-1.8.13-.62.2-1.18.2-1.67,0-.69-.08-1.38-.24-2.09-.16-.71-.44-1.33-.84-1.86-.42-.57-.98-1.01-1.66-1.32s-1.54-.47-2.56-.47h-2.55v11.32h1.84c1.3,0,2.36-.2,3.17-.6.81-.4,1.42-.91,1.83-1.51Z"></path><path class="cls-1" d="M450.94,156.52h-10.65v-1.28c.94-.06,1.72-.18,2.34-.36.62-.18.93-.4.93-.67,0-.11-.01-.24-.04-.4-.02-.16-.06-.29-.11-.42l-2.12-5.74h-8.99c-.34.84-.61,1.58-.82,2.2-.21.63-.4,1.2-.57,1.73-.16.52-.26.94-.33,1.26-.06.33-.09.59-.09.79,0,.48.38.86,1.14,1.12.76.26,1.61.42,2.56.47v1.28h-9.65v-1.28c.31-.02.7-.09,1.17-.21.47-.11.85-.27,1.16-.46.48-.33.85-.67,1.12-1.02.26-.35.52-.85.78-1.47,1.29-3.21,2.71-6.83,4.26-10.83,1.55-4.01,2.94-7.58,4.15-10.71h1.44l8.54,22.1c.18.47.39.85.61,1.14.23.29.55.57.96.85.28.17.64.31,1.08.42.45.11.82.18,1.12.19v1.28ZM440.63,146.05l-3.88-9.94-3.83,9.94h7.71Z"></path><path class="cls-1" d="M491.61,156.52h-6.9c-1.53-2.4-2.91-4.47-4.14-6.21-1.23-1.75-2.57-3.55-4.01-5.4h-2.62v8.13c0,.42.07.79.2,1.11s.42.56.85.73c.22.08.6.16,1.14.23.54.07,1,.11,1.37.13v1.28h-10.83v-1.28c.29-.02.71-.07,1.25-.13.55-.06.93-.14,1.15-.23.36-.16.62-.38.79-.69.16-.3.24-.69.24-1.16v-18.53c0-.42-.06-.79-.18-1.12-.12-.33-.4-.57-.85-.74-.3-.11-.69-.21-1.17-.3s-.89-.15-1.23-.17v-1.28h11.83c1.08,0,2.1.11,3.05.33.95.22,1.81.58,2.58,1.07.75.48,1.34,1.11,1.79,1.89.45.78.67,1.71.67,2.81,0,.99-.15,1.86-.45,2.62-.3.76-.75,1.41-1.34,1.97-.54.52-1.19.97-1.95,1.35s-1.6.7-2.51.97c1.26,1.67,2.31,3.08,3.15,4.23.84,1.14,1.86,2.53,3.08,4.17.53.72,1.01,1.25,1.44,1.6.43.34.85.62,1.27.84.31.16.7.28,1.17.36s.86.13,1.17.14v1.28ZM482.11,137.43c0-1.55-.45-2.78-1.34-3.69-.89-.91-2.15-1.36-3.77-1.36h-3.07v10.98h2.37c1.66,0,3.05-.53,4.15-1.6,1.11-1.06,1.66-2.51,1.66-4.34Z"></path><path class="cls-1" d="M528.23,137.85h-1.25c-.11-.43-.3-.95-.59-1.54-.28-.6-.6-1.16-.95-1.69-.36-.55-.76-1.04-1.19-1.45s-.84-.65-1.24-.71c-.37-.05-.84-.08-1.41-.11-.57-.02-1.09-.04-1.57-.04h-1.05v20.5c0,.4.08.76.25,1.09.17.33.46.59.88.77.22.08.67.2,1.36.34s1.23.22,1.62.23v1.28h-12.1v-1.28c.34-.02.85-.07,1.54-.14.69-.07,1.17-.16,1.44-.27.4-.16.69-.38.88-.68s.28-.69.28-1.18v-20.66h-1.05c-.37,0-.84,0-1.39.03-.55.02-1.08.06-1.59.12-.4.05-.81.29-1.24.71s-.82.91-1.18,1.45c-.36.54-.68,1.12-.96,1.72s-.47,1.11-.58,1.51h-1.26v-6.95h22.34v6.95Z"></path><path class="cls-1" d="M571.36,132.18c-.34.01-.85.11-1.55.29s-1.2.37-1.5.56c-.43.3-.73.88-.88,1.73-.15.86-.23,1.94-.23,3.25v18.76h-1.57l-15.53-20.97v13.22c0,1.48.09,2.62.28,3.41.19.79.47,1.36.86,1.7.28.26.85.51,1.72.74.87.23,1.44.35,1.72.36v1.28h-10.51v-1.28c.32-.02.87-.14,1.64-.35.77-.21,1.25-.4,1.44-.57.42-.34.71-.85.87-1.54.16-.69.23-1.87.23-3.55v-12.62c0-.55-.1-1.11-.29-1.66-.19-.55-.45-.98-.78-1.28-.43-.4-1.02-.74-1.76-1.02-.74-.28-1.34-.44-1.8-.46v-1.28h7.32l14.4,19.53v-12.19c0-1.49-.1-2.64-.29-3.44s-.47-1.33-.83-1.6c-.34-.23-.89-.45-1.65-.67-.76-.22-1.35-.34-1.74-.36v-1.28h10.42v1.28Z"></path><path class="cls-1" d="M609.77,148.98l-.49,7.55h-21.27v-1.28c.36-.02.84-.08,1.44-.15.6-.08.99-.16,1.17-.24.38-.18.65-.42.8-.7s.23-.66.23-1.1v-18.42c0-.4-.07-.75-.2-1.06-.13-.31-.41-.56-.83-.75-.32-.16-.76-.29-1.31-.42-.55-.12-.98-.19-1.31-.22v-1.28h19.83v6.18h-1.35c-.24-.91-.76-1.89-1.56-2.92-.8-1.03-1.56-1.59-2.28-1.69-.37-.05-.82-.08-1.34-.11s-1.11-.04-1.77-.04h-4.03v10.18h2.89c.93,0,1.6-.09,2.03-.26s.8-.47,1.13-.88c.26-.35.49-.82.68-1.4.19-.58.31-1.13.37-1.65h1.35v10.04h-1.35c-.05-.58-.18-1.19-.39-1.83-.21-.64-.43-1.11-.66-1.4-.37-.47-.8-.78-1.27-.92s-1.1-.22-1.89-.22h-2.89v7.68c0,.77.05,1.38.16,1.82.11.44.32.78.63,1.01.31.23.74.38,1.28.44.54.07,1.31.1,2.31.1h1.57c.65,0,1.2-.02,1.64-.07.46-.05.93-.14,1.42-.26.49-.13.83-.3,1.04-.51.55-.58,1.13-1.45,1.74-2.63.61-1.17,1-2.04,1.16-2.59h1.3Z"></path><path class="cls-1" d="M652.14,156.52h-6.9c-1.53-2.4-2.91-4.47-4.14-6.21-1.23-1.75-2.57-3.55-4.01-5.4h-2.62v8.13c0,.42.07.79.2,1.11.13.32.42.56.85.73.22.08.6.16,1.14.23.54.07,1,.11,1.37.13v1.28h-10.83v-1.28c.29-.02.71-.07,1.26-.13.55-.06.93-.14,1.15-.23.36-.16.62-.38.79-.69.16-.3.24-.69.24-1.16v-18.53c0-.42-.06-.79-.18-1.12s-.4-.57-.85-.74c-.3-.11-.69-.21-1.17-.3-.48-.09-.89-.15-1.23-.17v-1.28h11.83c1.08,0,2.1.11,3.05.33.95.22,1.81.58,2.58,1.07.75.48,1.34,1.11,1.79,1.89.45.78.67,1.71.67,2.81,0,.99-.15,1.86-.45,2.62-.3.76-.75,1.41-1.34,1.97-.54.52-1.19.97-1.95,1.35-.76.38-1.6.7-2.51.97,1.26,1.67,2.31,3.08,3.15,4.23.84,1.14,1.86,2.53,3.08,4.17.53.72,1.01,1.25,1.44,1.6.43.34.85.62,1.27.84.31.16.7.28,1.17.36s.86.13,1.17.14v1.28ZM642.64,137.43c0-1.55-.45-2.78-1.34-3.69-.89-.91-2.15-1.36-3.77-1.36h-3.07v10.98h2.37c1.66,0,3.05-.53,4.15-1.6s1.66-2.51,1.66-4.34Z"></path><path class="cls-1" d="M683.87,144.77c.54.6.94,1.26,1.2,1.98s.39,1.55.39,2.5c0,2.26-.84,4.13-2.51,5.6s-3.75,2.2-6.23,2.2c-1.14,0-2.29-.18-3.43-.53-1.14-.36-2.13-.79-2.96-1.29l-.78,1.32h-1.44l-.25-8.78h1.46c.3,1.08.65,2.06,1.06,2.93.4.87.94,1.69,1.6,2.45.63.71,1.36,1.28,2.19,1.7.84.42,1.81.63,2.92.63.83,0,1.56-.11,2.18-.33.62-.22,1.12-.52,1.51-.92.39-.4.67-.87.86-1.4.19-.54.28-1.15.28-1.85,0-1.02-.29-1.98-.87-2.87-.58-.89-1.44-1.56-2.58-2.02-.78-.31-1.68-.66-2.69-1.03-1.01-.38-1.88-.73-2.62-1.07-1.44-.65-2.57-1.5-3.37-2.55s-1.2-2.43-1.2-4.13c0-.97.2-1.88.6-2.73.4-.84.96-1.59,1.7-2.26.7-.63,1.52-1.12,2.47-1.47.95-.35,1.94-.53,2.98-.53,1.18,0,2.24.18,3.17.54.93.36,1.78.78,2.56,1.26l.74-1.23h1.44l.14,8.5h-1.46c-.26-.98-.56-1.91-.89-2.8-.33-.89-.76-1.7-1.29-2.42-.52-.7-1.15-1.26-1.9-1.67-.75-.42-1.66-.62-2.74-.62-1.14,0-2.12.37-2.93,1.1-.81.73-1.21,1.63-1.21,2.69s.26,2.03.78,2.75c.52.73,1.27,1.33,2.26,1.8.88.42,1.74.79,2.59,1.09.85.31,1.67.64,2.47.98.72.31,1.42.67,2.09,1.07.67.4,1.25.86,1.74,1.39Z"></path><polygon class="cls-1" points="558.68 63.76 558.68 66.92 741.15 66.92 741.15 199.49 50.85 199.49 50.85 66.92 233.32 66.92 233.32 63.76 47.69 63.76 47.69 202.65 744.31 202.65 744.31 63.76 558.68 63.76"></polygon><path class="cls-1" d="M298.97,81.32h-13.9c-2.09-3.22-3.98-5.9-5.66-8.06-1.68-2.16-3.83-4.87-6.46-8.14h-1.29v11.03c0,.59.11,1.1.32,1.51.21.41.64.76,1.29,1.04.3.13.74.26,1.32.4.59.13,1.17.23,1.74.3v1.93h-18.65v-1.93c.45-.03,1.08-.08,1.89-.15.82-.07,1.39-.16,1.72-.3.59-.23,1.01-.55,1.24-.96.23-.41.35-.93.35-1.56v-24.89c0-.58-.1-1.06-.3-1.46-.2-.4-.63-.75-1.29-1.06-.51-.23-1.13-.42-1.86-.57-.73-.15-1.31-.25-1.76-.3v-1.93h19.27v1.93c-.51.05-1.13.12-1.84.21-.72.09-1.33.22-1.84.38-.64.21-1.07.55-1.29,1.01-.21.46-.32.97-.32,1.53v11.82h1.04c1.29-1.17,2.79-2.58,4.5-4.23,1.71-1.65,3.04-3,3.98-4.06,1.32-1.47,2.29-2.63,2.91-3.49.62-.86.93-1.6.93-2.23,0-.28-.3-.49-.89-.64-.59-.15-1.5-.26-2.72-.32v-1.93h15.26v1.93c-1.85.2-3.39.53-4.65,1s-2.5,1.26-3.73,2.36c-1.76,1.58-3.21,2.95-4.36,4.11-1.14,1.16-2.61,2.65-4.41,4.46,1.58,1.93,3.48,4.3,5.71,7.09s4.44,5.53,6.65,8.18c.56.68,1.2,1.32,1.93,1.94.72.62,1.52,1.12,2.4,1.5.41.18.88.32,1.41.42.53.1.98.16,1.36.17v1.93Z"></path><path class="cls-1" d="M375,48.15c-.48.05-1.17.16-2.07.33-.9.17-1.65.47-2.26.9-.63.41-1.07,1.15-1.32,2.23s-.38,2.68-.38,4.82v13.06c0,3.84-1.3,6.94-3.91,9.28-2.61,2.34-6.05,3.51-10.34,3.51-5,0-8.86-1.13-11.6-3.39-2.74-2.26-4.11-5.41-4.11-9.45v-17.96c0-.58-.11-1.07-.33-1.48-.22-.41-.65-.78-1.27-1.11-.43-.21-.96-.39-1.58-.52-.63-.13-1.14-.22-1.53-.27v-1.88h18.41v1.88c-.53.03-1.06.09-1.61.19-.54.09-1.1.23-1.66.41-.63.2-1.05.53-1.26.99-.21.46-.32.98-.32,1.56v17.71c0,3.48.77,6.01,2.3,7.59,1.53,1.58,3.75,2.37,6.67,2.37s5.11-.87,6.74-2.62c1.63-1.75,2.45-4.32,2.45-7.72v-11.9c0-2.11-.14-3.69-.43-4.74-.29-1.05-.73-1.8-1.32-2.26-.43-.36-1.18-.69-2.24-.99-1.06-.3-1.81-.48-2.24-.54v-1.93h15.24v1.93Z"></path><path class="cls-1" d="M455.12,81.32h-18.97v-1.93c.41-.03,1.01-.08,1.81-.15.79-.07,1.34-.16,1.63-.3.61-.25,1.03-.57,1.26-.98.23-.4.35-.92.35-1.55v-12.1h-14.99v11.82c0,.56.12,1.06.36,1.51.24.45.65.79,1.22,1.04.31.13.85.27,1.61.42.76.15,1.38.24,1.86.27v1.93h-18.97v-1.93c.41-.02,1.02-.07,1.82-.16.8-.09,1.38-.2,1.74-.33.59-.21,1.01-.54,1.24-.98.23-.44.35-.95.35-1.55v-24.84c0-.58-.1-1.06-.31-1.46-.21-.4-.63-.74-1.27-1.04-.48-.21-1.11-.41-1.88-.58-.78-.17-1.34-.28-1.68-.31v-1.93h18.97v1.93c-.51.03-1.12.12-1.83.25-.71.13-1.25.26-1.63.37-.64.21-1.07.56-1.27,1.03s-.31.97-.31,1.5v10.49h14.99v-10.24c0-.58-.11-1.06-.32-1.46-.21-.4-.64-.74-1.29-1.04-.43-.2-1-.38-1.72-.56-.72-.17-1.29-.28-1.72-.33v-1.93h18.97v1.93c-.53.03-1.12.1-1.78.21-.66.11-1.25.24-1.78.41-.63.21-1.05.55-1.26,1.01-.21.46-.32.96-.32,1.51v24.86c0,.59.11,1.1.32,1.51.21.41.63.76,1.26,1.04.4.16.97.31,1.72.45.75.13,1.36.21,1.84.25v1.93Z"></path><path class="cls-1" d="M534.32,48.15c-.46.05-1.12.14-1.98.27-.86.13-1.63.45-2.33.96-.61.45-1.04,1.21-1.3,2.29s-.38,2.67-.38,4.76v25.08h-4.4l-21.87-27.14v16.48c0,2.05.14,3.6.41,4.66.27,1.06.71,1.84,1.32,2.34.45.36,1.15.68,2.13.96.97.28,1.75.47,2.33.57v1.93h-15.09v-1.93c.64-.05,1.38-.17,2.21-.36.83-.19,1.53-.48,2.09-.88.64-.48,1.08-1.2,1.32-2.16.24-.96.36-2.59.36-4.86v-16.62c0-.82-.13-1.6-.38-2.34-.26-.73-.66-1.36-1.2-1.89-.58-.56-1.24-1-1.99-1.32s-1.6-.57-2.56-.75v-1.98h13.21l19.19,23.74v-13.28c0-2.11-.14-3.68-.42-4.71-.28-1.03-.73-1.79-1.34-2.29-.48-.38-1.19-.7-2.13-.98s-1.7-.46-2.28-.56v-1.93h15.07v1.93Z"></path><path class="cls-1" d="M58.67,232.47c1.09,1.02,1.64,2.32,1.64,3.92s-.55,2.94-1.64,3.96c-1.09,1.03-2.55,1.54-4.37,1.54h-4.39v7.86h-2.22v-18.8h6.61c1.82,0,3.28.51,4.37,1.52ZM49.91,232.94v6.95h4.33c1.2,0,2.12-.32,2.78-.95.65-.64.98-1.48.98-2.52s-.33-1.86-.98-2.51c-.66-.65-1.58-.97-2.78-.97h-4.33Z"></path><path class="cls-1" d="M84.64,249.75l-5.84-7.89h-4.02v7.89h-2.22v-18.8h6.61c1.82,0,3.28.51,4.37,1.52s1.64,2.32,1.64,3.92c0,1.27-.35,2.37-1.05,3.29-.7.92-1.66,1.56-2.88,1.92l5.98,8.15h-2.59ZM74.78,239.86h4.3c1.22,0,2.15-.31,2.81-.94s.98-1.46.98-2.51-.33-1.86-1-2.51c-.66-.65-1.6-.97-2.79-.97h-4.3v6.92Z"></path><path class="cls-1" d="M113.84,233.43c1.9,1.87,2.85,4.17,2.85,6.91s-.95,5.04-2.85,6.91c-1.9,1.87-4.21,2.81-6.92,2.81s-5.04-.94-6.92-2.81c-1.88-1.87-2.82-4.17-2.82-6.91s.94-5.04,2.84-6.91c1.89-1.87,4.19-2.81,6.91-2.81s5.02.94,6.92,2.81ZM101.61,234.86c-1.42,1.45-2.12,3.27-2.12,5.46s.71,4.04,2.12,5.5c1.42,1.46,3.2,2.19,5.34,2.19s3.9-.73,5.31-2.19c1.42-1.46,2.12-3.3,2.12-5.5s-.71-3.98-2.12-5.44c-1.42-1.46-3.19-2.19-5.31-2.19s-3.93.73-5.34,2.18Z"></path><path class="cls-1" d="M141.96,232.94h-6.64v16.81h-2.22v-16.81h-6.61v-2h15.47v2Z"></path><path class="cls-1" d="M165.69,232.94h-9.83v5.76h7.52v1.99h-7.52v7.07h10.17v1.99h-12.39v-18.8h12.05v2Z"></path><path class="cls-1" d="M190.99,231.73c1.37.73,2.45,1.71,3.25,2.95l-1.65,1.31c-1.5-2.2-3.54-3.31-6.13-3.31-2.13,0-3.91.73-5.34,2.19-1.43,1.46-2.15,3.29-2.15,5.47s.72,4.01,2.15,5.47c1.43,1.46,3.22,2.19,5.34,2.19,2.58,0,4.63-1.1,6.13-3.3l1.65,1.31c-.78,1.23-1.86,2.22-3.23,2.95s-2.9,1.1-4.57,1.1c-2.74,0-5.05-.94-6.94-2.81-1.89-1.87-2.83-4.17-2.83-6.91s.94-5.04,2.83-6.91c1.89-1.87,4.2-2.81,6.94-2.81,1.67,0,3.19.37,4.56,1.1Z"></path><path class="cls-1" d="M220.22,232.94h-6.64v16.81h-2.22v-16.81h-6.61v-2h15.47v2Z"></path><path class="cls-1" d="M250.08,253.19h-1.88v-25.67h1.88v25.67Z"></path><path class="cls-1" d="M294.45,231.64c1.32.67,2.42,1.62,3.29,2.83l-1.68,1.31c-1.5-2.07-3.49-3.11-5.98-3.11-2.17,0-3.95.73-5.36,2.18s-2.11,3.27-2.11,5.46.72,4.05,2.15,5.53c1.43,1.48,3.24,2.22,5.43,2.22,1.37,0,2.59-.3,3.68-.91,1.08-.61,1.95-1.43,2.59-2.45v-2.54h-6.41v-1.99h8.63v5.01c-.84,1.48-2.02,2.66-3.55,3.55-1.53.88-3.21,1.32-5.06,1.32-2.75,0-5.07-.94-6.95-2.81-1.88-1.87-2.82-4.17-2.82-6.91s.94-5.04,2.84-6.91c1.89-1.87,4.2-2.81,6.94-2.81,1.6,0,3.05.34,4.37,1.01Z"></path><path class="cls-1" d="M323.41,249.75l-5.84-7.89h-4.02v7.89h-2.22v-18.8h6.61c1.82,0,3.28.51,4.37,1.52,1.09,1.02,1.64,2.32,1.64,3.92,0,1.27-.35,2.37-1.05,3.29-.7.92-1.66,1.56-2.88,1.92l5.98,8.15h-2.59ZM313.55,239.86h4.3c1.22,0,2.15-.31,2.81-.94.66-.63.98-1.46.98-2.51s-.33-1.86-1-2.51c-.66-.65-1.6-.97-2.79-.97h-4.3v6.92Z"></path><path class="cls-1" d="M352.61,233.43c1.9,1.87,2.85,4.17,2.85,6.91s-.95,5.04-2.85,6.91c-1.9,1.87-4.21,2.81-6.92,2.81s-5.04-.94-6.92-2.81c-1.88-1.87-2.82-4.17-2.82-6.91s.94-5.04,2.83-6.91c1.89-1.87,4.19-2.81,6.91-2.81s5.02.94,6.92,2.81ZM340.37,234.86c-1.42,1.45-2.12,3.27-2.12,5.46s.71,4.04,2.12,5.5c1.42,1.46,3.2,2.19,5.34,2.19s3.9-.73,5.31-2.19c1.42-1.46,2.12-3.3,2.12-5.5s-.71-3.98-2.12-5.44c-1.42-1.46-3.19-2.19-5.31-2.19s-3.93.73-5.34,2.18Z"></path><path class="cls-1" d="M393.86,230.94l-7.12,19.12h-.8l-5.95-14.93-5.95,14.93h-.8l-7.15-19.12h2.45l5.19,14.33,5.87-14.65h.8l5.87,14.65,5.19-14.33h2.42Z"></path><path class="cls-1" d="M424.49,253.19h-1.88v-25.67h1.88v25.67Z"></path><path class="cls-1" d="M468.02,249.75l-5.84-7.89h-4.02v7.89h-2.22v-18.8h6.61c1.82,0,3.28.51,4.37,1.52s1.64,2.32,1.64,3.92c0,1.27-.35,2.37-1.05,3.29-.7.92-1.66,1.56-2.88,1.92l5.98,8.15h-2.59ZM458.16,239.86h4.3c1.22,0,2.15-.31,2.81-.94s.98-1.46.98-2.51-.33-1.86-1-2.51c-.66-.65-1.6-.97-2.79-.97h-4.3v6.92Z"></path><path class="cls-1" d="M494.26,232.94h-9.83v5.76h7.52v1.99h-7.52v7.07h10.17v1.99h-12.39v-18.8h12.05v2Z"></path><path class="cls-1" d="M519.93,233.55c1.84,1.74,2.76,3.99,2.76,6.77s-.92,5.02-2.76,6.78c-1.84,1.77-4.33,2.65-7.46,2.65h-5.58v-18.8h5.58c3.13,0,5.62.87,7.46,2.61ZM509.1,232.94v14.82h3.33c2.45,0,4.39-.7,5.81-2.09,1.42-1.4,2.14-3.18,2.14-5.34s-.71-3.98-2.12-5.34-3.36-2.04-5.83-2.04h-3.33Z"></path><path class="cls-1" d="M549.87,242.28c0,2.43-.69,4.34-2.08,5.71-1.39,1.38-3.17,2.07-5.36,2.07s-4.03-.68-5.41-2.05c-1.39-1.37-2.08-3.28-2.08-5.73v-11.34h2.22v11.48c0,1.82.49,3.21,1.47,4.16.98.95,2.25,1.42,3.8,1.42s2.79-.47,3.76-1.42c.97-.95,1.45-2.34,1.45-4.16v-11.48h2.22v11.34Z"></path><path class="cls-1" d="M576.48,231.73c1.37.73,2.45,1.71,3.25,2.95l-1.65,1.31c-1.5-2.2-3.54-3.31-6.13-3.31-2.13,0-3.91.73-5.34,2.19-1.43,1.46-2.15,3.29-2.15,5.47s.72,4.01,2.15,5.47c1.43,1.46,3.21,2.19,5.34,2.19,2.58,0,4.63-1.1,6.13-3.3l1.65,1.31c-.78,1.23-1.86,2.22-3.23,2.95-1.38.73-2.9,1.1-4.57,1.1-2.74,0-5.05-.94-6.94-2.81-1.89-1.87-2.83-4.17-2.83-6.91s.94-5.04,2.83-6.91c1.89-1.87,4.2-2.81,6.94-2.81,1.67,0,3.19.37,4.56,1.1Z"></path><path class="cls-1" d="M604.34,232.94h-9.83v5.76h7.52v1.99h-7.52v7.07h10.17v1.99h-12.39v-18.8h12.05v2Z"></path><path class="cls-1" d="M645.48,232.94h-6.64v16.81h-2.22v-16.81h-6.61v-2h15.47v2Z"></path><path class="cls-1" d="M666.45,245.93h-9.17l-1.62,3.82h-2.34l8.15-19.12h.83l8.15,19.12h-2.36l-1.62-3.82ZM661.86,234.7l-3.76,9.23h7.52l-3.76-9.23Z"></path><path class="cls-1" d="M693.49,249.75l-5.07-7.75-5.1,7.75h-2.59l6.47-9.63-6.01-9.17h2.56l4.7,7.32,4.62-7.32h2.56l-5.93,9.2,6.38,9.6h-2.59Z"></path><path class="cls-1" d="M720.12,232.94h-9.83v5.76h7.52v1.99h-7.52v7.07h10.17v1.99h-12.39v-18.8h12.05v2Z"></path><path class="cls-1" d="M741.62,231.51c1.04.59,1.86,1.36,2.46,2.31l-1.62,1.23c-1.04-1.58-2.48-2.37-4.3-2.37-.93,0-1.72.24-2.36.71-.65.47-.97,1.15-.97,2.02,0,.42.07.78.2,1.08.13.3.37.59.7.85.33.27.63.47.9.61s.67.35,1.23.61l2.08,1c1.48.7,2.58,1.45,3.3,2.25.72.8,1.08,1.79,1.08,2.99,0,1.56-.57,2.82-1.71,3.79-1.14.97-2.59,1.45-4.36,1.45-1.46,0-2.8-.36-4-1.08-1.21-.72-2.18-1.71-2.92-2.96l1.65-1.23c1.41,2.15,3.15,3.22,5.24,3.22,1.12,0,2.03-.28,2.74-.85.7-.57,1.05-1.33,1.05-2.28,0-.8-.24-1.42-.73-1.85-.48-.44-1.29-.92-2.41-1.45l-2.11-1c-1.33-.65-2.37-1.35-3.12-2.11-.75-.76-1.13-1.74-1.13-2.93,0-1.46.55-2.65,1.65-3.55,1.1-.9,2.44-1.35,4.02-1.35,1.25,0,2.4.3,3.43.88Z"></path></svg>