<svg width="3318" height="1254" viewBox="0 0 3318 1254" fill="none" xmlns="http://www.w3.org/2000/svg">
<path d="M494.966 658.139C488.558 658.139 482.443 656.883 476.58 654.37C470.716 651.857 465.523 648.213 460.958 643.481C456.476 638.748 452.916 632.968 450.236 626.099C447.555 619.273 446.215 611.566 446.215 602.98C446.215 594.394 447.513 586.604 450.152 579.61C452.749 572.616 456.393 566.626 461.041 561.559C465.607 556.575 471.051 552.722 477.292 549.999C483.532 547.277 490.233 545.895 497.312 545.895C502.589 545.895 507.405 546.565 511.677 547.863C515.949 549.161 520.054 551.004 523.907 553.392L527.006 548.24H533.037L533.707 586.521H527.509C526.713 582.793 525.498 578.73 523.865 574.375C522.273 570.019 520.347 566.333 518.211 563.276C515.782 559.842 512.934 557.161 509.583 555.234C506.274 553.308 502.463 552.303 498.191 552.303C493.291 552.303 488.768 553.392 484.537 555.569C480.349 557.747 476.705 560.93 473.606 565.202C470.674 569.307 468.371 574.5 466.737 580.783C465.104 587.065 464.224 594.143 464.224 601.891C464.224 608.76 465.104 615.042 466.821 620.78C468.538 626.518 471.051 631.544 474.276 635.9C477.501 640.172 481.313 643.564 485.71 645.952C490.108 648.381 495.05 649.595 500.495 649.595C504.557 649.595 508.327 648.967 511.761 647.669C515.195 646.37 518.169 644.695 520.682 642.559C523.195 640.339 525.415 637.826 527.341 634.978C529.268 632.172 530.817 629.073 532.032 625.764L537.686 628.487C533.372 639.125 527.593 646.747 520.473 651.271C513.311 655.836 504.809 658.098 494.924 658.098L494.966 658.139Z" fill="white"/>
<path d="M709.194 655.543H664.589V650.182C668.526 649.931 671.793 649.428 674.39 648.674C676.986 647.92 678.285 646.999 678.285 645.868C678.285 645.407 678.243 644.863 678.117 644.193C678.033 643.523 677.866 642.978 677.656 642.434L668.777 618.393H631.125C629.701 621.911 628.57 625.011 627.691 627.607C626.811 630.246 626.015 632.633 625.303 634.853C624.633 637.031 624.214 638.79 623.921 640.13C623.67 641.512 623.544 642.601 623.544 643.439C623.544 645.449 625.136 647.041 628.319 648.13C631.502 649.219 635.062 649.889 639.041 650.098V655.459H598.624V650.098C599.923 650.014 601.556 649.721 603.525 649.219C605.493 648.758 607.085 648.088 608.383 647.292C610.393 645.91 611.943 644.486 613.074 643.02C614.163 641.554 615.252 639.46 616.341 636.863C621.743 623.419 627.691 608.258 634.182 591.505C640.674 574.71 646.496 559.758 651.564 546.649H657.595L693.362 639.209C694.116 641.177 694.996 642.769 695.917 643.983C696.88 645.198 698.221 646.371 699.938 647.543C701.11 648.255 702.618 648.842 704.461 649.302C706.346 649.763 707.895 650.056 709.152 650.098V655.459L709.194 655.543ZM666.013 611.692L649.763 570.061L633.722 611.692H666.013Z" fill="white"/>
<path d="M857.164 574.71C857.164 580.322 856.075 585.264 853.856 589.578C851.678 593.892 848.62 597.452 844.725 600.3C840.914 603.106 836.684 605.2 832.077 606.499C827.47 607.797 822.611 608.467 817.46 608.467H805.44V640.968C805.44 642.727 805.733 644.276 806.319 645.617C806.906 646.957 808.078 647.962 809.921 648.674C810.842 649.009 812.434 649.344 814.737 649.637C817.041 649.931 819.135 650.098 821.062 650.182V655.543H774.991V650.182C776.206 650.098 777.965 649.889 780.226 649.637C782.53 649.386 784.121 649.051 785.043 648.674C786.551 648.004 787.64 647.083 788.352 645.784C789.022 644.528 789.357 642.894 789.357 640.926V563.485C789.357 561.726 789.105 560.135 788.603 558.711C788.1 557.287 786.928 556.24 785.043 555.528C783.116 554.858 781.232 554.397 779.347 554.146C777.462 553.852 775.829 553.685 774.489 553.559V548.198H823.491C833.459 548.198 841.584 550.586 847.825 555.402C854.065 560.219 857.164 566.627 857.164 574.668V574.71ZM834.171 593.012C835.888 590.583 837.019 588.07 837.563 585.474C838.108 582.877 838.401 580.532 838.401 578.479C838.401 575.589 838.066 572.7 837.396 569.726C836.726 566.752 835.553 564.156 833.878 561.936C832.119 559.548 829.773 557.706 826.925 556.407C824.077 555.109 820.475 554.439 816.203 554.439H805.523V601.85H813.23C818.674 601.85 823.114 601.012 826.506 599.337C829.899 597.661 832.454 595.525 834.171 593.012Z" fill="white"/>
<path d="M978.331 655.543H929.998V650.182C931.38 650.098 933.307 649.931 935.904 649.721C938.459 649.512 940.301 649.219 941.348 648.8C943.024 648.13 944.238 647.25 944.992 646.119C945.746 644.989 946.123 643.397 946.123 641.387V563.653C946.123 561.894 945.83 560.428 945.285 559.213C944.741 558.041 943.401 557.036 941.348 556.24C939.841 555.653 937.914 555.067 935.652 554.523C933.349 553.978 931.464 553.685 929.998 553.559V548.198H978.331V553.559C976.781 553.601 974.896 553.811 972.718 554.146C970.54 554.481 968.656 554.9 967.064 555.402C965.138 555.988 963.881 556.994 963.211 558.334C962.541 559.674 962.248 561.224 962.248 562.857V640.549C962.248 642.224 962.625 643.69 963.337 644.989C964.049 646.287 965.305 647.292 967.064 648.046C968.111 648.465 969.828 648.884 972.258 649.386C974.645 649.847 976.697 650.14 978.331 650.182V655.543Z" fill="white"/>
<path d="M1141.04 577.349H1135.81C1135.35 575.548 1134.55 573.37 1133.34 570.899C1132.12 568.428 1130.82 566.04 1129.36 563.82C1127.85 561.517 1126.18 559.465 1124.37 557.748C1122.57 555.988 1120.86 555.025 1119.18 554.774C1117.63 554.565 1115.66 554.439 1113.28 554.313C1110.89 554.229 1108.71 554.146 1106.7 554.146H1102.3V640.005C1102.3 641.68 1102.64 643.188 1103.35 644.57C1104.06 645.952 1105.28 647.041 1107.04 647.795C1107.96 648.13 1109.84 648.632 1112.73 649.219C1115.62 649.805 1117.88 650.14 1119.52 650.182V655.543H1068.84V650.182C1070.26 650.098 1072.4 649.889 1075.29 649.596C1078.18 649.302 1080.19 648.925 1081.32 648.465C1082.99 647.795 1084.21 646.873 1085.01 645.617C1085.8 644.36 1086.18 642.727 1086.18 640.675V554.146H1081.78C1080.23 554.146 1078.26 554.146 1075.96 554.271C1073.65 554.355 1071.44 554.523 1069.3 554.774C1067.62 554.983 1065.91 555.988 1064.11 557.748C1062.3 559.507 1060.67 561.559 1059.16 563.82C1057.66 566.082 1056.32 568.511 1055.14 571.024C1053.97 573.579 1053.17 575.673 1052.71 577.349H1047.44V548.24H1141V577.349H1141.04Z" fill="white"/>
<path d="M1311.59 655.543H1266.98V650.182C1270.92 649.931 1274.19 649.428 1276.78 648.674C1279.38 647.92 1280.68 646.999 1280.68 645.868C1280.68 645.407 1280.64 644.863 1280.51 644.193C1280.43 643.523 1280.26 642.978 1280.05 642.434L1271.17 618.393H1233.52C1232.1 621.911 1230.96 625.011 1230.09 627.607C1229.21 630.246 1228.41 632.633 1227.7 634.853C1227.03 637.031 1226.57 638.79 1226.32 640.13C1226.06 641.512 1225.94 642.601 1225.94 643.439C1225.94 645.449 1227.53 647.041 1230.71 648.13C1233.9 649.219 1237.46 649.889 1241.44 650.098V655.459H1201.02V650.098C1202.32 650.014 1203.95 649.721 1205.92 649.219C1207.89 648.758 1209.48 648.088 1210.78 647.292C1212.79 645.91 1214.34 644.486 1215.47 643.02C1216.56 641.554 1217.65 639.46 1218.74 636.863C1224.14 623.419 1230.09 608.258 1236.58 591.505C1243.07 574.71 1248.89 559.758 1253.96 546.649H1259.99L1295.76 639.209C1296.51 641.177 1297.35 642.769 1298.31 643.983C1299.27 645.198 1300.62 646.371 1302.33 647.543C1303.51 648.255 1305.01 648.842 1306.86 649.302C1308.74 649.763 1310.29 650.056 1311.55 650.098V655.459L1311.59 655.543ZM1268.41 611.692L1252.16 570.061L1236.12 611.692H1268.41Z" fill="white"/>
<path d="M1463.54 623.628L1461.28 655.543H1377.39V650.182C1378.6 650.098 1380.36 649.889 1382.66 649.637C1384.97 649.386 1386.56 649.051 1387.48 648.674C1388.99 648.004 1390.08 647.083 1390.79 645.784C1391.46 644.528 1391.79 642.894 1391.79 640.926V564.072C1391.79 562.355 1391.5 560.847 1390.91 559.549C1390.33 558.25 1389.2 557.161 1387.48 556.365C1386.31 555.779 1384.67 555.151 1382.62 554.606C1380.53 554.02 1378.81 553.685 1377.43 553.601V548.24H1422.74V553.601C1421.32 553.643 1419.52 553.894 1417.26 554.355C1415 554.816 1413.4 555.193 1412.4 555.57C1410.68 556.156 1409.51 557.203 1408.88 558.669C1408.25 560.135 1407.92 561.684 1407.92 563.36V635.439C1407.92 638.748 1408.09 641.345 1408.42 643.188C1408.76 645.03 1409.51 646.454 1410.72 647.46C1411.9 648.381 1413.61 648.967 1415.92 649.219C1418.22 649.512 1421.45 649.637 1425.55 649.637C1427.44 649.637 1429.36 649.596 1431.37 649.47C1433.38 649.386 1435.31 649.177 1437.11 648.884C1438.87 648.59 1440.5 648.172 1441.97 647.627C1443.43 647.083 1444.57 646.413 1445.28 645.617C1447.33 643.313 1449.76 639.795 1452.48 635.062C1455.25 630.33 1457.13 626.518 1458.18 623.587H1463.54V623.628Z" fill="white"/>
<path d="M1714.29 574.71C1714.29 580.322 1713.2 585.264 1710.98 589.578C1708.8 593.892 1705.74 597.452 1701.85 600.3C1698.04 603.106 1693.81 605.2 1689.2 606.499C1684.59 607.797 1679.73 608.467 1674.58 608.467H1662.56V640.968C1662.56 642.727 1662.86 644.276 1663.44 645.617C1664.03 646.957 1665.2 647.962 1667.04 648.674C1667.97 649.009 1669.56 649.344 1671.86 649.637C1674.16 649.931 1676.26 650.098 1678.18 650.182V655.543H1632.11V650.182C1633.33 650.098 1635.09 649.889 1637.35 649.637C1639.65 649.386 1641.24 649.051 1642.17 648.674C1643.67 648.004 1644.76 647.083 1645.47 645.784C1646.14 644.528 1646.48 642.894 1646.48 640.926V563.485C1646.48 561.726 1646.23 560.135 1645.73 558.711C1645.22 557.287 1644.05 556.24 1642.17 555.528C1640.24 554.858 1638.35 554.397 1636.47 554.146C1634.59 553.852 1632.95 553.685 1631.61 553.559V548.198H1680.61C1690.58 548.198 1698.71 550.586 1704.95 555.402C1711.19 560.219 1714.29 566.627 1714.29 574.668V574.71ZM1691.29 593.012C1693.01 590.583 1694.14 588.07 1694.69 585.474C1695.23 582.877 1695.52 580.532 1695.52 578.479C1695.52 575.589 1695.19 572.7 1694.52 569.726C1693.85 566.752 1692.68 564.156 1691 561.936C1689.24 559.548 1686.9 557.706 1684.05 556.407C1681.2 555.109 1677.6 554.439 1673.33 554.439H1662.65V601.85H1670.35C1675.8 601.85 1680.24 601.012 1683.63 599.337C1687.02 597.661 1689.58 595.525 1691.29 593.012Z" fill="white"/>
<path d="M1888.64 655.543H1844.04V650.182C1847.98 649.931 1851.24 649.428 1853.84 648.674C1856.44 647.92 1857.73 646.999 1857.73 645.868C1857.73 645.407 1857.69 644.863 1857.57 644.193C1857.48 643.523 1857.32 642.978 1857.11 642.434L1848.23 618.393H1810.57C1809.15 621.911 1808.02 625.011 1807.14 627.607C1806.26 630.246 1805.47 632.633 1804.75 634.853C1804.08 637.031 1803.66 638.79 1803.37 640.13C1803.12 641.512 1802.99 642.601 1802.99 643.439C1802.99 645.449 1804.59 647.041 1807.77 648.13C1810.95 649.219 1814.51 649.889 1818.49 650.098V655.459H1778.07V650.098C1779.37 650.014 1781.01 649.721 1782.97 649.219C1784.94 648.758 1786.53 648.088 1787.83 647.292C1789.84 645.91 1791.39 644.486 1792.52 643.02C1793.61 641.554 1794.7 639.46 1795.79 636.863C1801.19 623.419 1807.14 608.258 1813.63 591.505C1820.12 574.71 1825.95 559.758 1831.01 546.649H1837.04L1872.81 639.209C1873.57 641.177 1874.45 642.769 1875.37 643.983C1876.33 645.198 1877.67 646.371 1879.39 647.543C1880.56 648.255 1882.07 648.842 1883.91 649.302C1885.8 649.763 1887.35 650.056 1888.6 650.098V655.459L1888.64 655.543ZM1845.46 611.692L1829.21 570.061L1813.17 611.692H1845.46Z" fill="white"/>
<path d="M2058.98 655.543H2030.08C2023.67 645.491 2017.89 636.821 2012.74 629.534C2007.59 622.204 2001.98 614.666 1995.95 606.917H1984.97V640.968C1984.97 642.727 1985.27 644.276 1985.81 645.617C1986.36 646.957 1987.57 647.962 1989.37 648.674C1990.29 649.009 1991.88 649.344 1994.15 649.637C1996.41 649.931 1998.33 650.098 1999.88 650.182V655.543H1954.52V650.182C1955.74 650.098 1957.5 649.889 1959.76 649.637C1962.06 649.386 1963.65 649.051 1964.58 648.674C1966.08 648.004 1967.17 647.083 1967.88 645.784C1968.55 644.528 1968.89 642.894 1968.89 640.926V563.318C1968.89 561.559 1968.64 560.009 1968.14 558.627C1967.63 557.245 1966.46 556.24 1964.58 555.528C1963.32 555.067 1961.69 554.648 1959.68 554.271C1957.67 553.894 1955.95 553.643 1954.52 553.559V548.198H2004.07C2008.59 548.198 2012.87 548.659 2016.85 549.58C2020.82 550.502 2024.43 552.01 2027.65 554.062C2030.79 556.072 2033.26 558.711 2035.15 561.978C2037.03 565.244 2037.95 569.14 2037.95 573.747C2037.95 577.893 2037.33 581.537 2036.07 584.72C2034.81 587.903 2032.93 590.625 2030.46 592.971C2028.2 595.149 2025.47 597.033 2022.29 598.625C2019.11 600.216 2015.59 601.556 2011.78 602.687C2017.05 609.682 2021.45 615.587 2024.97 620.404C2028.49 625.178 2032.76 631 2037.87 637.869C2040.09 640.884 2042.1 643.104 2043.9 644.57C2045.7 645.994 2047.46 647.166 2049.22 648.088C2050.52 648.758 2052.15 649.261 2054.12 649.596C2056.09 649.931 2057.72 650.14 2059.02 650.182V655.543H2058.98ZM2019.19 575.589C2019.19 569.098 2017.31 563.946 2013.58 560.135C2009.85 556.324 2004.57 554.439 1997.79 554.439H1984.93V600.426H1994.86C2001.81 600.426 2007.63 598.206 2012.24 593.724C2016.89 589.285 2019.19 583.212 2019.19 575.548V575.589Z" fill="white"/>
<path d="M2212.35 577.349H2207.12C2206.66 575.548 2205.86 573.37 2204.65 570.899C2203.47 568.386 2202.13 566.04 2200.67 563.82C2199.16 561.517 2197.48 559.465 2195.68 557.748C2193.88 556.03 2192.16 555.025 2190.49 554.774C2188.94 554.565 2186.97 554.439 2184.58 554.313C2182.2 554.229 2180.02 554.146 2178.01 554.146H2173.61V640.005C2173.61 641.68 2173.95 643.188 2174.66 644.57C2175.37 645.952 2176.58 647.041 2178.34 647.795C2179.27 648.13 2181.15 648.632 2184.04 649.219C2186.93 649.805 2189.19 650.14 2190.82 650.182V655.543H2140.15V650.182C2141.57 650.098 2143.71 649.889 2146.6 649.596C2149.49 649.302 2151.5 648.925 2152.63 648.465C2154.3 647.795 2155.52 646.873 2156.31 645.617C2157.11 644.36 2157.49 642.727 2157.49 640.675V554.146H2153.09C2151.54 554.146 2149.57 554.146 2147.27 554.271C2144.96 554.355 2142.74 554.523 2140.61 554.774C2138.93 554.983 2137.22 555.988 2135.41 557.748C2133.61 559.507 2131.98 561.559 2130.47 563.82C2128.96 566.082 2127.62 568.511 2126.45 571.024C2125.28 573.537 2124.48 575.673 2124.02 577.349H2118.75V548.24H2212.31V577.349H2212.35Z" fill="white"/>
<path d="M2392.99 553.601C2391.57 553.643 2389.43 554.062 2386.5 554.816C2383.57 555.57 2381.47 556.365 2380.22 557.161C2378.42 558.418 2377.16 560.847 2376.53 564.407C2375.9 568.009 2375.57 572.532 2375.57 578.019V656.59H2368.99L2303.95 568.763V624.131C2303.95 630.33 2304.33 635.104 2305.12 638.413C2305.92 641.722 2307.09 644.109 2308.72 645.533C2309.9 646.622 2312.28 647.669 2315.93 648.632C2319.57 649.596 2321.96 650.098 2323.13 650.14V655.501H2279.11V650.14C2280.45 650.056 2282.76 649.554 2285.98 648.674C2289.21 647.795 2291.22 646.999 2292.01 646.287C2293.77 644.863 2294.99 642.727 2295.66 639.837C2296.33 636.947 2296.62 632.005 2296.62 624.969V572.113C2296.62 569.81 2296.2 567.464 2295.4 565.161C2294.61 562.857 2293.52 561.056 2292.14 559.8C2290.34 558.125 2287.87 556.7 2284.77 555.528C2281.67 554.355 2279.15 553.685 2277.23 553.601V548.24H2307.89L2368.2 630.036V578.982C2368.2 572.741 2367.78 567.925 2366.98 564.574C2366.19 561.224 2365.01 559.004 2363.51 557.873C2362.08 556.91 2359.78 555.988 2356.59 555.067C2353.41 554.146 2350.94 553.643 2349.31 553.559V548.198H2392.95V553.559L2392.99 553.601Z" fill="white"/>
<path d="M2553.86 623.964L2551.81 655.585H2462.73V650.224C2464.23 650.14 2466.24 649.889 2468.76 649.596C2471.27 649.261 2472.9 648.926 2473.66 648.59C2475.25 647.837 2476.38 646.831 2477.01 645.659C2477.64 644.486 2477.97 642.894 2477.97 641.052V563.904C2477.97 562.229 2477.68 560.763 2477.13 559.465C2476.59 558.166 2475.42 557.119 2473.66 556.324C2472.32 555.654 2470.47 555.109 2468.17 554.565C2465.87 554.062 2464.07 553.769 2462.68 553.643V548.282H2545.74V574.166H2540.08C2539.08 570.354 2536.9 566.25 2533.55 561.936C2530.2 557.622 2527.01 555.277 2524 554.858C2522.45 554.648 2520.56 554.523 2518.39 554.397C2516.21 554.271 2513.74 554.23 2510.97 554.23H2494.09V596.866H2506.2C2510.09 596.866 2512.9 596.489 2514.7 595.777C2516.5 595.065 2518.05 593.808 2519.43 592.091C2520.52 590.625 2521.49 588.657 2522.28 586.228C2523.08 583.798 2523.58 581.495 2523.83 579.317H2529.49V621.367H2523.83C2523.62 618.938 2523.08 616.383 2522.2 613.702C2521.32 611.022 2520.4 609.054 2519.43 607.839C2517.88 605.87 2516.08 604.572 2514.11 603.986C2512.15 603.399 2509.51 603.064 2506.2 603.064H2494.09V635.23C2494.09 638.455 2494.3 641.01 2494.76 642.853C2495.23 644.695 2496.11 646.119 2497.4 647.083C2498.7 648.046 2500.5 648.674 2502.76 648.926C2505.03 649.219 2508.25 649.344 2512.44 649.344H2519.01C2521.74 649.344 2524.04 649.261 2525.88 649.051C2527.81 648.842 2529.78 648.465 2531.83 647.962C2533.88 647.418 2535.31 646.706 2536.19 645.826C2538.49 643.397 2540.92 639.753 2543.47 634.811C2546.03 629.911 2547.66 626.267 2548.33 623.964H2553.78H2553.86Z" fill="white"/>
<path d="M2731.32 655.543H2702.42C2696.01 645.491 2690.23 636.821 2685.08 629.534C2679.93 622.204 2674.31 614.666 2668.28 606.917H2657.31V640.968C2657.31 642.727 2657.6 644.276 2658.15 645.617C2658.69 646.957 2659.91 647.962 2661.71 648.674C2662.63 649.009 2664.22 649.344 2666.48 649.637C2668.74 649.931 2670.67 650.098 2672.22 650.182V655.543H2626.86V650.182C2628.08 650.098 2629.84 649.889 2632.14 649.637C2634.44 649.386 2636.03 649.051 2636.96 648.674C2638.46 648.004 2639.55 647.083 2640.26 645.784C2640.93 644.528 2641.27 642.894 2641.27 640.926V563.318C2641.27 561.559 2641.02 560.009 2640.52 558.627C2640.01 557.245 2638.84 556.24 2636.96 555.528C2635.7 555.067 2634.07 554.648 2632.06 554.271C2630.04 553.894 2628.33 553.643 2626.9 553.559V548.198H2676.45C2680.97 548.198 2685.25 548.659 2689.22 549.58C2693.2 550.502 2696.81 552.01 2700.03 554.062C2703.17 556.072 2705.64 558.711 2707.53 561.978C2709.41 565.244 2710.33 569.14 2710.33 573.747C2710.33 577.893 2709.71 581.537 2708.45 584.72C2707.19 587.903 2705.31 590.625 2702.84 592.971C2700.57 595.149 2697.85 597.033 2694.67 598.625C2691.49 600.216 2687.97 601.556 2684.16 602.687C2689.43 609.682 2693.83 615.587 2697.35 620.404C2700.87 625.178 2705.14 631 2710.25 637.869C2712.47 640.884 2714.48 643.104 2716.28 644.57C2718.08 645.994 2719.84 647.166 2721.6 648.088C2722.9 648.758 2724.53 649.261 2726.5 649.596C2728.47 649.931 2730.1 650.14 2731.4 650.182V655.543H2731.32ZM2691.53 575.589C2691.53 569.098 2689.64 563.946 2685.92 560.135C2682.19 556.324 2676.91 554.439 2670.13 554.439H2657.27V600.426H2667.19C2674.15 600.426 2679.97 598.206 2684.58 593.724C2689.18 589.243 2691.53 583.212 2691.53 575.548V575.589Z" fill="white"/>
<path d="M2864.21 606.331C2866.47 608.844 2868.15 611.608 2869.23 614.624C2870.32 617.639 2870.87 621.116 2870.87 625.094C2870.87 634.56 2867.35 642.392 2860.36 648.548C2853.36 654.705 2844.65 657.763 2834.26 657.763C2829.49 657.763 2824.67 657.009 2819.9 655.543C2815.12 654.035 2810.98 652.234 2807.5 650.14L2804.23 655.668H2798.2L2797.15 618.896H2803.27C2804.53 623.419 2805.99 627.523 2807.71 631.167C2809.38 634.811 2811.65 638.245 2814.41 641.428C2817.05 644.402 2820.11 646.789 2823.58 648.548C2827.1 650.308 2831.16 651.187 2835.81 651.187C2839.29 651.187 2842.35 650.726 2844.94 649.805C2847.54 648.883 2849.63 647.627 2851.27 645.952C2852.9 644.276 2854.07 642.308 2854.87 640.088C2855.66 637.827 2856.04 635.272 2856.04 632.34C2856.04 628.068 2854.83 624.047 2852.4 620.32C2849.97 616.592 2846.37 613.786 2841.59 611.859C2838.33 610.561 2834.56 609.095 2830.33 607.546C2826.1 605.954 2822.45 604.488 2819.35 603.064C2813.32 600.342 2808.59 596.782 2805.24 592.384C2801.89 587.987 2800.21 582.207 2800.21 575.087C2800.21 571.024 2801.05 567.213 2802.73 563.653C2804.4 560.135 2806.75 556.994 2809.85 554.188C2812.78 551.549 2816.21 549.497 2820.19 548.031C2824.17 546.565 2828.32 545.811 2832.67 545.811C2837.61 545.811 2842.05 546.565 2845.95 548.073C2849.84 549.58 2853.4 551.339 2856.67 553.35L2859.77 548.198H2865.8L2866.39 583.798H2860.27C2859.18 579.694 2857.93 575.799 2856.54 572.071C2855.16 568.344 2853.36 564.951 2851.14 561.936C2848.96 559.004 2846.32 556.659 2843.18 554.941C2840.04 553.182 2836.23 552.345 2831.71 552.345C2826.93 552.345 2822.83 553.894 2819.44 556.952C2816.04 560.009 2814.37 563.779 2814.37 568.218C2814.37 572.658 2815.46 576.72 2817.64 579.736C2819.81 582.793 2822.95 585.306 2827.1 587.275C2830.79 589.034 2834.39 590.583 2837.95 591.84C2841.51 593.138 2844.94 594.52 2848.29 595.944C2851.31 597.243 2854.24 598.75 2857.05 600.426C2859.85 602.101 2862.28 604.027 2864.33 606.247L2864.21 606.331Z" fill="white"/>
<path d="M2339.88 267.042V280.277H3104.11V835.511H212.972V280.277H977.199V267.042H199.737V848.746H3117.35V267.042H2339.88Z" fill="white"/>
<path d="M1252.16 340.587H1193.94C1185.19 327.101 1177.27 315.877 1170.23 306.83C1163.2 297.784 1154.19 286.434 1143.18 272.738H1137.78V318.934C1137.78 321.405 1138.24 323.541 1139.12 325.259C1140 326.976 1141.8 328.442 1144.52 329.614C1145.78 330.159 1147.62 330.703 1150.05 331.29C1152.52 331.834 1154.95 332.253 1157.34 332.546V340.629H1079.22V332.546C1081.11 332.42 1083.75 332.211 1087.14 331.918C1090.57 331.625 1092.96 331.248 1094.34 330.661C1096.82 329.698 1098.57 328.358 1099.54 326.641C1100.5 324.923 1101 322.746 1101 320.107V215.862C1101 213.433 1100.58 211.422 1099.75 209.747C1098.91 208.072 1097.11 206.606 1094.34 205.307C1092.21 204.344 1089.61 203.548 1086.55 202.92C1083.5 202.292 1081.07 201.873 1079.18 201.664V193.58H1159.89V201.664C1157.75 201.873 1155.16 202.166 1152.18 202.543C1149.17 202.92 1146.61 203.465 1144.48 204.135C1141.8 205.014 1140 206.438 1139.07 208.365C1138.19 210.291 1137.73 212.427 1137.73 214.773V264.278H1142.09C1147.49 259.378 1153.78 253.472 1160.94 246.562C1168.1 239.651 1173.67 233.997 1177.61 229.557C1183.13 223.401 1187.2 218.542 1189.79 214.94C1192.39 211.338 1193.69 208.239 1193.69 205.601C1193.69 204.428 1192.43 203.548 1189.96 202.92C1187.49 202.292 1183.68 201.831 1178.57 201.58V193.497H1242.48V201.58C1234.73 202.418 1228.28 203.8 1223.01 205.768C1217.73 207.737 1212.54 211.045 1207.38 215.652C1200.01 222.27 1193.94 228.008 1189.12 232.866C1184.35 237.724 1178.19 243.965 1170.65 251.546C1177.27 259.629 1185.23 269.555 1194.57 281.24C1203.91 292.925 1213.16 304.401 1222.42 315.5C1224.77 318.348 1227.45 321.028 1230.5 323.625C1233.52 326.222 1236.87 328.316 1240.56 329.907C1242.27 330.661 1244.24 331.248 1246.46 331.667C1248.68 332.085 1250.57 332.337 1252.16 332.379V340.462V340.587Z" fill="white"/>
<path d="M1570.59 201.663C1568.58 201.873 1565.69 202.334 1561.92 203.046C1558.15 203.758 1555.01 205.014 1552.45 206.815C1549.82 208.532 1547.97 211.631 1546.93 216.155C1545.88 220.678 1545.33 227.379 1545.33 236.342V291.04C1545.33 307.123 1539.89 320.107 1528.96 329.907C1518.03 339.708 1503.62 344.608 1485.65 344.608C1464.71 344.608 1448.54 339.875 1437.07 330.41C1425.59 320.944 1419.85 307.752 1419.85 290.831V215.61C1419.85 213.181 1419.39 211.129 1418.47 209.412C1417.55 207.695 1415.75 206.145 1413.15 204.763C1411.35 203.883 1409.13 203.129 1406.54 202.585C1403.9 202.04 1401.76 201.663 1400.13 201.454V193.58H1477.23V201.454C1475.01 201.58 1472.79 201.831 1470.49 202.25C1468.23 202.627 1465.88 203.213 1463.54 203.967C1460.9 204.805 1459.14 206.187 1458.26 208.113C1457.38 210.04 1456.92 212.218 1456.92 214.647V288.821C1456.92 303.396 1460.15 313.992 1466.55 320.609C1472.96 327.227 1482.26 330.536 1494.49 330.536C1506.72 330.536 1515.89 326.892 1522.72 319.562C1529.54 312.233 1532.98 301.469 1532.98 287.229V237.389C1532.98 228.552 1532.39 221.935 1531.18 217.537C1529.96 213.139 1528.12 209.998 1525.65 208.071C1523.85 206.564 1520.71 205.182 1516.27 203.925C1511.83 202.669 1508.69 201.915 1506.89 201.663V193.58H1570.71V201.663H1570.59Z" fill="white"/>
<path d="M1906.15 340.587H1826.7V332.504C1828.42 332.379 1830.93 332.169 1834.28 331.876C1837.59 331.583 1839.89 331.206 1841.11 330.619C1843.66 329.572 1845.42 328.232 1846.38 326.515C1847.35 324.84 1847.85 322.662 1847.85 320.023V269.346H1785.07V318.851C1785.07 321.196 1785.57 323.29 1786.58 325.175C1787.58 327.059 1789.3 328.483 1791.69 329.531C1792.98 330.075 1795.25 330.661 1798.43 331.29C1801.61 331.918 1804.21 332.295 1806.22 332.42V340.504H1726.77V332.42C1728.49 332.337 1731.04 332.127 1734.39 331.75C1737.74 331.373 1740.17 330.913 1741.68 330.368C1744.15 329.489 1745.91 328.107 1746.87 326.264C1747.83 324.421 1748.34 322.285 1748.34 319.772V215.736C1748.34 213.307 1747.92 211.297 1747.04 209.621C1746.16 207.946 1744.4 206.522 1741.72 205.266C1739.71 204.386 1737.07 203.548 1733.85 202.836C1730.58 202.124 1728.23 201.664 1726.81 201.538V193.455H1806.26V201.538C1804.12 201.664 1801.57 202.041 1798.6 202.585C1795.62 203.13 1793.36 203.674 1791.77 204.135C1789.09 205.014 1787.29 206.48 1786.45 208.449C1785.61 210.417 1785.15 212.511 1785.15 214.731V258.666H1847.93V215.778C1847.93 213.349 1847.47 211.338 1846.59 209.663C1845.71 207.988 1843.91 206.564 1841.19 205.307C1839.39 204.47 1837 203.716 1833.99 202.962C1830.97 202.25 1828.58 201.789 1826.78 201.58V193.497H1906.23V201.58C1904.01 201.706 1901.54 201.999 1898.78 202.459C1896.01 202.92 1893.54 203.465 1891.32 204.177C1888.69 205.056 1886.93 206.48 1886.05 208.407C1885.17 210.333 1884.71 212.427 1884.71 214.731V318.851C1884.71 321.322 1885.17 323.458 1886.05 325.175C1886.93 326.892 1888.69 328.358 1891.32 329.531C1893 330.201 1895.39 330.829 1898.53 331.415C1901.67 331.96 1904.22 332.295 1906.23 332.462V340.546L1906.15 340.587Z" fill="white"/>
<path d="M2237.86 201.664C2235.93 201.873 2233.17 202.25 2229.57 202.795C2225.96 203.339 2222.74 204.679 2219.81 206.815C2217.25 208.7 2215.45 211.883 2214.36 216.406C2213.27 220.93 2212.77 227.589 2212.77 236.342V341.383H2194.34L2102.75 227.715V296.737C2102.75 305.323 2103.33 311.814 2104.46 316.254C2105.59 320.693 2107.44 323.96 2109.99 326.054C2111.88 327.562 2114.81 328.902 2118.91 330.075C2122.98 331.248 2126.24 332.044 2128.67 332.462V340.546H2065.47V332.462C2068.15 332.253 2071.25 331.75 2074.73 330.955C2078.2 330.159 2081.13 328.944 2083.48 327.269C2086.16 325.259 2088 322.243 2089.01 318.222C2090.01 314.202 2090.52 307.375 2090.52 297.868V228.259C2090.52 224.825 2089.97 221.558 2088.93 218.459C2087.84 215.401 2086.16 212.763 2083.9 210.543C2081.47 208.197 2078.71 206.355 2075.56 205.014C2072.42 203.674 2068.86 202.627 2064.84 201.873V193.58H2120.17L2200.54 293.009V237.389C2200.54 228.552 2199.96 221.977 2198.78 217.663C2197.61 213.349 2195.73 210.166 2193.17 208.072C2191.16 206.48 2188.19 205.14 2184.25 203.967C2180.31 202.795 2177.13 202.041 2174.7 201.622V193.539H2237.82V201.622L2237.86 201.664Z" fill="white"/>
<path d="M245.724 973.639C250.289 977.911 252.592 983.356 252.592 990.057C252.592 996.759 250.289 1002.37 245.724 1006.64C241.158 1010.96 235.044 1013.09 227.421 1013.09H209.035V1046.01H199.737V967.273H227.421C235.044 967.273 241.158 969.409 245.724 973.639ZM209.035 975.608V1004.72H227.17C232.196 1004.72 236.049 1003.38 238.813 1000.74C241.535 998.057 242.918 994.539 242.918 990.183C242.918 985.827 241.535 982.393 238.813 979.671C236.049 976.948 232.196 975.608 227.17 975.608H209.035Z" fill="white"/>
<path d="M354.493 1046.01L330.033 1012.97H313.197V1046.01H303.899V967.273H331.583C339.206 967.273 345.32 969.409 349.886 973.639C354.451 977.87 356.754 983.356 356.754 990.057C356.754 995.376 355.288 999.983 352.357 1003.84C349.425 1007.69 345.404 1010.37 340.294 1011.88L365.34 1046.01H354.493ZM313.197 1004.59H331.206C336.316 1004.59 340.211 1003.29 342.975 1000.65C345.739 998.015 347.079 994.539 347.079 990.141C347.079 985.743 345.697 982.351 342.891 979.629C340.127 976.906 336.19 975.566 331.206 975.566H313.197V1004.55V1004.59Z" fill="white"/>
<path d="M476.789 977.66C484.746 985.492 488.725 995.125 488.725 1006.6C488.725 1018.08 484.746 1027.71 476.789 1035.54C468.831 1043.37 459.156 1047.31 447.806 1047.31C436.456 1047.31 426.697 1043.37 418.824 1035.54C410.95 1027.71 407.013 1018.08 407.013 1006.6C407.013 995.125 410.95 985.492 418.907 977.66C426.823 969.828 436.456 965.891 447.848 965.891C459.24 965.891 468.873 969.828 476.831 977.66H476.789ZM425.567 983.649C419.619 989.722 416.688 997.345 416.688 1006.52C416.688 1015.69 419.661 1023.44 425.567 1029.55C431.514 1035.67 438.969 1038.72 447.932 1038.72C456.895 1038.72 464.266 1035.67 470.171 1029.55C476.119 1023.44 479.05 1015.73 479.05 1006.52C479.05 997.303 476.077 989.848 470.171 983.733C464.224 977.618 456.811 974.561 447.932 974.561C439.053 974.561 431.472 977.618 425.567 983.691V983.649Z" fill="white"/>
<path d="M594.562 975.608H566.752V1046.01H557.454V975.608H529.77V967.231H594.562V975.608Z" fill="white"/>
<path d="M693.948 975.608H652.778V999.732H684.274V1008.07H652.778V1037.68H695.372V1046.01H643.48V967.273H693.948V975.65V975.608Z" fill="white"/>
<path d="M799.911 970.54C805.649 973.597 810.172 977.702 813.523 982.895L806.612 988.382C800.33 979.168 791.786 974.519 780.938 974.519C772.017 974.519 764.562 977.576 758.573 983.691C752.584 989.806 749.569 997.47 749.569 1006.6C749.569 1015.73 752.584 1023.4 758.573 1029.51C764.562 1035.63 772.059 1038.68 780.938 1038.68C791.744 1038.68 800.33 1034.08 806.612 1024.86L813.523 1030.35C810.256 1035.5 805.733 1039.65 799.995 1042.7C794.257 1045.76 787.849 1047.31 780.855 1047.31C769.379 1047.31 759.704 1043.37 751.788 1035.54C743.872 1027.71 739.936 1018.08 739.936 1006.6C739.936 995.125 743.872 985.492 751.788 977.66C759.704 969.828 769.379 965.891 780.855 965.891C787.849 965.891 794.215 967.441 799.953 970.498L799.911 970.54Z" fill="white"/>
<path d="M922.333 975.608H894.523V1046.01H885.226V975.608H857.541V967.231H922.333V975.608Z" fill="white"/>
<path d="M1047.39 1060.42H1039.52V952.908H1047.39V1060.42Z" fill="white"/>
<path d="M1233.23 970.163C1238.76 972.969 1243.36 976.948 1247.01 982.016L1239.97 987.502C1233.69 978.833 1225.35 974.477 1214.92 974.477C1205.84 974.477 1198.38 977.534 1192.47 983.607C1186.57 989.68 1183.64 997.303 1183.64 1006.48C1183.64 1015.65 1186.65 1023.44 1192.64 1029.64C1198.63 1035.83 1206.21 1038.93 1215.38 1038.93C1221.12 1038.93 1226.23 1037.68 1230.8 1035.12C1235.32 1032.57 1238.96 1029.13 1241.64 1024.86V1014.22H1214.8V1005.89H1250.94V1026.87C1247.42 1033.07 1242.48 1038.01 1236.07 1041.74C1229.67 1045.43 1222.63 1047.27 1214.88 1047.27C1203.36 1047.27 1193.65 1043.33 1185.77 1035.5C1177.9 1027.67 1173.96 1018.03 1173.96 1006.56C1173.96 995.083 1177.9 985.45 1185.86 977.618C1193.77 969.786 1203.45 965.849 1214.92 965.849C1221.63 965.849 1227.7 967.273 1233.23 970.079V970.163Z" fill="white"/>
<path d="M1354.52 1046.01L1330.06 1012.97H1313.22V1046.01H1303.92V967.273H1331.61C1339.23 967.273 1345.35 969.409 1349.91 973.639C1354.48 977.911 1356.78 983.356 1356.78 990.057C1356.78 995.376 1355.31 999.983 1352.38 1003.84C1349.45 1007.69 1345.43 1010.37 1340.32 1011.88L1365.37 1046.01H1354.52ZM1313.22 1004.59H1331.23C1336.34 1004.59 1340.24 1003.29 1343 1000.65C1345.76 998.015 1347.1 994.539 1347.1 990.141C1347.1 985.743 1345.72 982.351 1342.92 979.629C1340.15 976.906 1336.22 975.566 1331.23 975.566H1313.22V1004.55V1004.59Z" fill="white"/>
<path d="M1476.81 977.66C1484.77 985.492 1488.75 995.125 1488.75 1006.6C1488.75 1018.08 1484.77 1027.71 1476.81 1035.54C1468.86 1043.37 1459.18 1047.31 1447.83 1047.31C1436.48 1047.31 1426.72 1043.37 1418.85 1035.54C1410.97 1027.71 1407.04 1018.08 1407.04 1006.6C1407.04 995.125 1410.97 985.492 1418.89 977.66C1426.81 969.828 1436.44 965.891 1447.83 965.891C1459.22 965.891 1468.86 969.828 1476.81 977.66ZM1425.55 983.649C1419.6 989.722 1416.67 997.345 1416.67 1006.52C1416.67 1015.69 1419.64 1023.44 1425.55 1029.55C1431.5 1035.67 1438.95 1038.72 1447.92 1038.72C1456.88 1038.72 1464.25 1035.67 1470.15 1029.55C1476.1 1023.44 1479.03 1015.73 1479.03 1006.52C1479.03 997.303 1476.06 989.848 1470.15 983.733C1464.21 977.618 1456.79 974.561 1447.92 974.561C1439.04 974.561 1431.46 977.618 1425.55 983.691V983.649Z" fill="white"/>
<path d="M1649.58 967.231L1619.76 1047.31H1616.41L1591.49 984.78L1566.57 1047.31H1563.22L1533.27 967.231H1543.53L1565.27 1027.25L1589.86 965.891H1593.21L1617.79 1027.25L1639.53 967.231H1649.66H1649.58Z" fill="white"/>
<path d="M1777.86 1060.42H1769.99V952.908H1777.86V1060.42Z" fill="white"/>
<path d="M1960.18 1046.01L1935.72 1012.97H1918.88V1046.01H1909.58V967.273H1937.27C1944.89 967.273 1951.01 969.409 1955.57 973.639C1960.14 977.87 1962.44 983.356 1962.44 990.057C1962.44 995.376 1960.97 999.983 1958.04 1003.84C1955.11 1007.69 1951.09 1010.37 1945.98 1011.88L1971.03 1046.01H1960.18ZM1918.88 1004.59H1936.89C1942 1004.59 1945.9 1003.29 1948.66 1000.65C1951.42 998.015 1952.77 994.539 1952.77 990.141C1952.77 985.743 1951.38 982.351 1948.58 979.629C1945.81 976.906 1941.88 975.566 1936.89 975.566H1918.88V1004.55V1004.59Z" fill="white"/>
<path d="M2070.08 975.608H2028.91V999.732H2060.4V1008.07H2028.91V1037.68H2071.5V1046.01H2019.61V967.273H2070.08V975.65V975.608Z" fill="white"/>
<path d="M2177.59 978.163C2185.3 985.45 2189.15 994.874 2189.15 1006.52C2189.15 1018.16 2185.3 1027.54 2177.59 1034.91C2169.88 1042.33 2159.45 1046.01 2146.35 1046.01H2122.98V967.273H2146.35C2159.45 967.273 2169.88 970.917 2177.59 978.205V978.163ZM2132.23 975.608V1037.68H2146.18C2156.44 1037.68 2164.56 1034.75 2170.51 1028.92C2176.46 1023.06 2179.47 1015.61 2179.47 1006.56C2179.47 997.512 2176.5 989.89 2170.6 984.194C2164.69 978.498 2156.52 975.65 2146.18 975.65H2132.23V975.608Z" fill="white"/>
<path d="M2302.99 1014.73C2302.99 1024.9 2300.1 1032.9 2294.27 1038.64C2288.45 1044.42 2281 1047.31 2271.82 1047.31C2262.65 1047.31 2254.95 1044.46 2249.17 1038.72C2243.35 1032.99 2240.46 1024.99 2240.46 1014.73V967.231H2249.75V1015.31C2249.75 1022.93 2251.81 1028.76 2255.91 1032.74C2260.01 1036.71 2265.33 1038.68 2271.82 1038.68C2278.32 1038.68 2283.51 1036.71 2287.57 1032.74C2291.64 1028.76 2293.65 1022.93 2293.65 1015.31V967.231H2302.94V1014.73H2302.99Z" fill="white"/>
<path d="M2414.43 970.54C2420.17 973.597 2424.7 977.702 2428.05 982.895L2421.14 988.382C2414.85 979.168 2406.31 974.519 2395.46 974.519C2386.54 974.519 2379.09 977.576 2373.1 983.691C2367.11 989.806 2364.09 997.47 2364.09 1006.6C2364.09 1015.73 2367.11 1023.4 2373.1 1029.51C2379.09 1035.63 2386.54 1038.68 2395.46 1038.68C2406.27 1038.68 2414.85 1034.08 2421.14 1024.86L2428.05 1030.35C2424.78 1035.5 2420.26 1039.65 2414.52 1042.7C2408.74 1045.76 2402.37 1047.31 2395.38 1047.31C2383.9 1047.31 2374.23 1043.37 2366.31 1035.54C2358.4 1027.71 2354.46 1018.08 2354.46 1006.6C2354.46 995.125 2358.4 985.492 2366.31 977.66C2374.23 969.828 2383.9 965.891 2395.38 965.891C2402.37 965.891 2408.74 967.441 2414.48 970.498L2414.43 970.54Z" fill="white"/>
<path d="M2531.12 975.608H2489.95V999.732H2521.44V1008.07H2489.95V1037.68H2532.54V1046.01H2480.65V967.273H2531.12V975.65V975.608Z" fill="white"/>
<path d="M2703.42 975.608H2675.61V1046.01H2666.32V975.608H2638.63V967.231H2703.42V975.608Z" fill="white"/>
<path d="M2791.25 1030.01H2752.84L2746.06 1046.01H2736.26L2770.39 965.933H2773.87L2808 1046.01H2798.12L2791.33 1030.01H2791.25ZM2772.03 982.979L2756.28 1021.64H2787.77L2772.03 982.979Z" fill="white"/>
<path d="M2904.5 1046.01L2883.27 1013.55L2861.91 1046.01H2851.06L2878.16 1005.68L2852.99 967.273H2863.71L2883.39 997.931L2902.74 967.273H2913.46L2888.63 1005.81L2915.35 1046.01H2904.5Z" fill="white"/>
<path d="M3016.03 975.608H2974.86V999.732H3006.36V1008.07H2974.86V1037.68H3017.46V1046.01H2965.57V967.273H3016.03V975.65V975.608Z" fill="white"/>
<path d="M3106.08 969.619C3110.44 972.09 3113.87 975.315 3116.38 979.294L3109.6 984.445C3105.24 977.828 3099.21 974.519 3091.59 974.519C3087.69 974.519 3084.39 975.524 3081.7 977.493C3078.98 979.461 3077.64 982.309 3077.64 985.953C3077.64 987.712 3077.94 989.22 3078.48 990.476C3079.02 991.733 3080.03 992.947 3081.41 994.036C3082.79 995.167 3084.05 996.005 3085.18 996.591C3086.31 997.177 3087.99 998.057 3090.33 999.146L3099.04 1003.33C3105.24 1006.27 3109.85 1009.41 3112.87 1012.76C3115.88 1016.11 3117.39 1020.25 3117.39 1025.28C3117.39 1031.81 3115 1037.09 3110.23 1041.15C3105.45 1045.22 3099.38 1047.23 3091.97 1047.23C3085.85 1047.23 3080.24 1045.72 3075.21 1042.7C3070.15 1039.69 3066.08 1035.54 3062.98 1030.31L3069.89 1025.15C3075.8 1034.16 3083.09 1038.64 3091.84 1038.64C3096.53 1038.64 3100.34 1037.47 3103.32 1035.08C3106.25 1032.69 3107.71 1029.51 3107.71 1025.53C3107.71 1022.18 3106.71 1019.58 3104.66 1017.78C3102.65 1015.94 3099.25 1013.93 3094.56 1011.71L3085.73 1007.52C3080.16 1004.8 3075.8 1001.87 3072.66 998.685C3069.52 995.502 3067.93 991.398 3067.93 986.414C3067.93 980.299 3070.23 975.315 3074.84 971.545C3079.44 967.776 3085.06 965.891 3091.67 965.891C3096.91 965.891 3101.72 967.148 3106.04 969.577L3106.08 969.619Z" fill="white"/>
</svg>
