<svg width="1090" height="1090" viewBox="0 0 1090 1090" fill="none" xmlns="http://www.w3.org/2000/svg">
<path d="M87.6578 442.282C388.966 442.38 701.742 442.282 1003.06 442.315C1044.24 442.315 1074.02 467.26 1074.02 495.147C1073.99 572.826 1073.99 650.216 1073.99 728.146C1073.99 752.545 1052.61 779.899 1009.5 779.899C815.135 780.226 378.039 780.062 378.039 780.062L102.607 991.686V780.264C102.607 780.264 89.9686 780.264 81.1232 780.264C43.5727 780.264 15.3199 757.75 15.3199 727.889C15.2872 650.309 15.2872 577.938 15.3199 500.363C15.3254 465.254 43.5128 442.282 87.6578 442.282ZM58.4022 498.357C58.4349 573.84 58.4349 649.29 58.4022 724.739C58.4022 737.994 69.0678 746.637 79.7117 746.637C102.209 746.637 145.624 746.964 145.624 746.964V912.105L360.534 746.899C360.534 746.899 788.817 746.899 1002.96 747.03C1017.57 747.03 1030.62 740.212 1030.62 725.257C1030.81 647.747 1030.75 576.712 1030.65 499.202C1030.65 481.528 1020.05 475.178 1003.15 475.178C704.069 474.95 380.557 475.178 81.4775 475.048C65.0512 475.048 58.4022 487.986 58.4022 498.357Z" fill="white" fill-opacity="0.3"/>
<path d="M1074.05 55.2124H15.26L15.3908 437.606C15.3908 437.606 36.9728 408.672 79.3847 408.672C387.179 408.672 694.968 408.738 1002.76 408.574C1050.51 408.574 1073.89 437.574 1073.89 437.574L1074.05 55.2124Z" fill="white" fill-opacity="0.3"/>
<path d="M248.738 208.058V324.05C248.738 329.74 246.82 334.574 242.983 338.553C239.146 342.537 234.241 344.52 228.273 344.52C222.583 344.52 217.826 342.537 213.989 338.553C210.152 334.574 208.234 329.745 208.234 324.05V208.483C208.234 191.713 204.397 178.355 196.718 168.398C189.044 158.452 176.526 153.471 159.189 153.471C147.815 153.471 137.509 155.961 128.277 160.932C119.033 165.907 111.785 172.595 106.526 180.977C101.261 189.364 98.6341 198.537 98.6341 208.483V324.05C98.6341 329.74 96.7157 334.574 92.8789 338.553C89.0421 342.537 84.1371 344.52 78.1694 344.52C72.1962 344.52 67.362 342.602 63.6669 338.765C59.9664 334.928 58.1243 330.023 58.1243 324.05V141.53C58.1243 135.845 60.0427 131.017 63.8795 127.027C67.7163 123.049 72.4741 121.059 78.1639 121.059C84.1317 121.059 89.0367 123.049 92.8735 127.027C96.7103 131.011 98.6287 135.845 98.6287 141.53V156.457C106.019 145.088 116.325 135.496 129.547 127.67C142.763 119.855 156.906 115.942 171.975 115.942C223.156 115.942 248.738 146.647 248.738 208.058Z" fill="white"/>
<path d="M499.057 237.27C495.073 240.828 490.38 242.6 484.985 242.6H334.875C336.859 263.353 344.751 279.987 358.545 292.494C372.333 305.008 389.174 311.259 409.077 311.259C422.724 311.259 433.815 309.275 442.338 305.291C450.868 301.313 458.394 296.195 464.94 289.938C469.201 287.377 473.322 286.102 477.306 286.102C482.134 286.102 486.184 287.807 489.459 291.219C492.724 294.631 494.364 298.615 494.364 303.16C494.364 309.128 491.519 314.534 485.835 319.363C477.584 327.614 466.645 334.574 452.999 340.258C439.352 345.943 425.416 348.788 411.208 348.788C388.182 348.788 367.924 343.959 350.441 334.291C332.957 324.628 319.452 311.123 309.931 293.781C300.404 276.444 295.646 256.824 295.646 234.932C295.646 211.05 300.551 190.089 310.356 172.033C320.16 153.983 333.099 140.123 349.165 130.455C365.221 120.792 382.492 115.953 400.978 115.953C419.17 115.953 436.229 120.645 452.154 130.025C468.073 139.404 480.864 152.342 490.533 168.829C500.196 185.32 505.171 203.796 505.46 224.266C505.166 229.378 503.035 233.716 499.057 237.27ZM359.607 166.905C347.95 175.859 340.271 189.718 336.581 208.483H462.384V205.071C460.956 190.007 454.209 177.641 442.126 167.973C430.038 158.31 416.326 153.47 400.973 153.47C385.048 153.47 371.265 157.95 359.607 166.905Z" fill="white"/>
<path d="M827.201 124.689C831.038 128.526 832.956 133.431 832.956 139.404C832.956 141.394 832.384 144.091 831.25 147.509L766.003 331.729C764.297 336.28 761.452 339.692 757.474 341.965C753.49 344.243 749.223 345.087 744.683 344.526C737.009 343.959 731.178 339.697 727.199 331.735L682.847 215.743L641.907 331.735C640.201 335.719 637.781 338.771 634.658 340.902C631.524 343.033 628.113 344.248 624.423 344.526C620.161 345.093 615.959 344.172 611.844 341.752C607.719 339.338 604.945 335.997 603.528 331.729L537.436 147.503C536.58 144.942 536.155 142.244 536.155 139.399C536.155 133.715 538.002 128.886 541.703 124.896C545.393 120.918 550.232 118.929 556.2 118.929C565.863 118.929 572.119 123.191 574.964 131.72L625.709 275.431L666.219 169.249C669.631 160.719 675.882 156.457 684.983 156.457C693.513 156.457 699.339 160.719 702.467 169.249L743.832 273.725L793.727 131.725C796.856 123.196 803.39 118.934 813.347 118.934C818.737 118.929 823.364 120.847 827.201 124.689Z" fill="white"/>
<path d="M858.113 298.037C858.113 292.353 861.1 287.524 867.068 283.54C869.907 281.551 873.177 280.554 876.878 280.554C881.995 280.554 886.682 282.685 890.95 286.952C899.479 296.62 908.646 303.869 918.456 308.697C928.26 313.537 939.989 315.946 953.636 315.946C964.437 315.668 973.959 313.172 982.204 308.485C990.45 303.792 994.571 296.19 994.571 285.671C994.571 276.008 990.374 268.613 981.992 263.495C973.599 258.378 961.309 253.685 945.101 249.423C929.176 245.161 915.96 240.681 905.441 235.989C894.917 231.302 886.039 224.479 878.785 215.519C871.537 206.564 867.912 194.836 867.912 180.339C867.912 167.548 871.537 156.315 878.785 146.653C886.034 136.99 895.697 129.452 907.779 124.051C919.862 118.656 933.007 115.947 947.226 115.947C960.873 115.947 974.444 118.509 987.949 123.626C1001.45 128.744 1012.47 136.565 1021 147.078C1024.41 151.062 1026.12 155.182 1026.12 159.444C1026.12 163.994 1023.84 168.398 1019.29 172.665C1016.45 175.221 1012.89 176.502 1008.63 176.502C1003.51 176.502 999.383 174.796 996.26 171.385C990.287 164.561 982.967 159.302 974.296 155.607C965.626 151.917 956.028 150.064 945.515 150.064C934.708 150.064 925.541 152.272 918.009 156.675C910.477 161.084 906.711 168.551 906.711 179.064C906.994 189.015 911.327 196.406 919.72 201.24C928.102 206.074 940.97 210.766 958.312 215.312C973.375 219.296 985.883 223.563 995.835 228.108C1005.78 232.659 1014.17 239.406 1021 248.366C1027.82 257.32 1031.23 269.049 1031.23 283.546C1031.23 296.909 1027.4 308.49 1019.72 318.3C1012.04 328.11 1002.02 335.648 989.655 340.901C977.289 346.161 964.138 348.793 950.207 348.793C932.299 348.793 915.731 345.659 900.531 339.414C885.32 333.162 872.452 323.211 861.939 309.564C859.394 305.569 858.113 301.732 858.113 298.037Z" fill="white"/>
<path d="M299.537 512.942C303.794 515.972 305.93 519.95 305.93 524.872C305.93 529.799 303.794 533.728 299.537 536.66C295.27 539.598 289.755 541.064 282.986 541.064H223.935V689.936C223.935 694.863 221.548 698.983 216.79 702.297C212.021 705.61 206.13 707.267 199.11 707.267C192.085 707.267 186.319 705.61 181.806 702.297C177.294 698.983 175.038 694.863 175.038 689.936V541.069H115.981C109.212 541.069 103.692 539.554 99.4297 536.524C95.1678 533.499 93.0369 529.521 93.0369 524.588C93.0369 519.858 95.2278 515.972 99.6205 512.942C104.008 509.912 109.458 508.396 115.981 508.396H282.991C289.76 508.396 295.27 509.917 299.537 512.942Z" fill="white"/>
<path d="M535.005 691.925C535.005 696.852 532.874 700.874 528.612 703.997C524.344 707.125 519.456 708.684 513.94 708.684C509.428 708.684 505.346 707.643 501.716 705.561C498.081 703.479 495.258 700.64 493.252 697.037L473.692 662.664H361.602L342.047 697.321C340.287 700.923 337.589 703.714 333.96 705.703C330.324 707.692 326.373 708.684 322.111 708.684C315.588 708.684 310.639 707.36 307.255 704.705C303.87 702.057 302.181 698.454 302.181 693.909C302.181 692.203 302.557 690.405 303.309 688.508L396.967 518.615C398.973 514.828 401.981 511.895 405.992 509.808C410.003 507.726 414.516 506.876 419.535 507.252C424.048 507.252 428.245 508.244 432.136 510.233C436.022 512.222 438.845 515.018 440.6 518.615L533.13 685.096C534.378 687.571 535.005 689.843 535.005 691.925ZM380.034 629.991H455.266L417.274 563.512L380.034 629.991Z" fill="white"/>
<path d="M728.529 678.714C732.916 681.843 735.112 685.865 735.112 690.786C735.112 695.522 732.916 699.452 728.529 702.58C724.141 705.703 718.686 707.267 712.168 707.267H589.919C583.395 707.267 577.94 705.61 573.558 702.297C569.171 698.983 566.974 694.863 566.974 689.936V525.727C566.974 520.806 569.231 516.686 573.743 513.367C578.256 510.053 584.022 508.396 591.047 508.396C597.315 508.396 602.71 510.053 607.223 513.367C611.735 516.686 613.992 520.801 613.992 525.727V674.027H712.168C718.686 674.027 724.141 675.592 728.529 678.714Z" fill="white"/>
<path d="M983.741 683.26C984.739 685.44 985.246 687.478 985.246 689.369C985.246 694.481 982.673 698.743 977.534 702.155C972.389 705.567 966.438 707.267 959.669 707.267C956.404 707.267 953.27 706.7 950.262 705.561C947.254 704.422 944.747 702.82 942.741 700.733L861.116 619.478L825.386 645.328V689.936C825.386 695.048 823.184 699.217 818.803 702.433C814.41 705.654 808.704 707.262 801.69 707.262C794.921 707.262 789.334 705.605 784.947 702.291C780.56 698.978 778.364 694.857 778.364 689.931V525.728C778.364 520.806 780.62 516.686 785.132 513.367C789.645 510.053 795.411 508.397 802.436 508.397C809.205 508.397 814.72 510.01 818.982 513.225C823.244 516.452 825.381 520.61 825.381 525.728V603.003L945.744 513.509C951.51 509.154 957.652 506.974 964.176 506.974C969.942 506.974 974.831 508.778 978.847 512.37C982.858 515.967 984.864 519.754 984.864 523.733C984.864 527.711 982.608 531.401 978.095 534.813L896.094 593.907L979.975 677.717C981.485 679.238 982.733 681.085 983.741 683.26Z" fill="white"/>
<path d="M462.563 966.349C462.356 967.559 462.258 969.177 462.258 971.194C462.258 976.039 463.419 979.674 465.741 982.099C468.057 984.525 471.038 985.735 474.673 985.735C482.549 985.735 489.824 981.849 496.484 974.072C503.15 966.3 508.496 956.201 512.54 943.78C516.578 931.36 518.595 918.689 518.595 905.761C518.595 891.629 515.265 879.16 508.6 868.352C501.934 857.556 492.44 849.168 480.123 843.212C467.801 837.26 453.467 834.279 437.112 834.279C411.257 834.279 387.833 839.429 366.834 849.73C345.824 860.025 329.273 874.92 317.152 894.409C305.037 913.898 298.982 936.87 298.982 963.324C298.982 978.677 302.11 993.01 308.372 1006.34C314.629 1019.67 324.428 1030.47 337.753 1038.75C351.084 1047.03 367.842 1051.17 388.04 1051.17C403.382 1051.17 415.906 1049.7 425.602 1046.77C435.292 1043.84 445.489 1039.35 456.198 1033.3C458.416 1032.09 460.334 1031.48 461.953 1031.48C465.991 1031.48 469.022 1034 471.044 1039.05C471.649 1040.26 471.954 1041.48 471.954 1042.69C471.954 1047.12 468.117 1051.36 460.438 1055.41C448.115 1061.66 436.709 1066.46 426.206 1069.8C415.704 1073.13 402.984 1074.79 388.04 1074.79C362.191 1074.79 340.783 1069.54 323.823 1059.04C306.857 1048.54 294.442 1034.86 286.561 1018C278.686 1001.14 274.751 982.911 274.751 963.319C274.751 932.624 281.912 905.718 296.257 882.593C310.596 859.474 330.079 841.697 354.719 829.281C379.353 816.861 406.821 810.653 437.117 810.653C459.332 810.653 478.412 814.893 494.37 823.374C510.322 831.859 522.394 843.272 530.569 857.605C538.749 871.949 542.836 888 542.836 905.767C542.836 922.733 539.507 939.142 532.841 954.991C526.176 970.845 516.682 983.822 504.365 993.915C492.042 1004.01 477.807 1009.06 461.653 1009.06C453.369 1009.06 445.946 1006.74 439.385 1002.1C432.823 997.452 428.73 991.49 427.117 984.225C417.617 1000.78 402.679 1009.06 382.285 1009.06C374.606 1009.06 367.292 1007.04 360.321 1003.01C353.356 998.967 347.754 993.114 343.508 985.435C339.268 977.761 337.148 968.981 337.148 959.079C337.148 946.358 340.429 933.137 346.996 919.397C353.558 905.663 362.447 894.207 373.652 885.013C384.857 875.824 396.826 871.23 409.546 871.23C416.407 871.23 422.62 873.099 428.174 876.833C433.727 880.571 437.913 885.765 440.747 892.431L441.957 884.25C442.562 881.024 444.23 878.195 446.955 875.77C449.68 873.345 453.565 872.135 458.618 872.135C469.523 872.135 474.973 876.478 474.973 885.16C474.973 887.182 474.87 888.795 474.668 890.005L462.563 966.349ZM434.992 921.817C434.992 913.538 432.768 907.582 428.332 903.946C423.885 900.311 418.13 898.491 411.066 898.491C403.387 898.491 396.471 901.625 390.318 907.881C384.154 914.143 379.413 921.964 376.083 931.36C372.747 940.75 371.085 949.786 371.085 958.468C371.085 966.147 372.905 971.946 376.541 975.886C380.176 979.827 385.222 981.794 391.686 981.794C398.144 981.794 404.052 979.827 409.41 975.886C414.756 971.946 419.203 967.205 422.735 961.651C426.266 956.097 428.741 950.898 430.158 946.053C433.379 936.358 434.992 928.281 434.992 921.817Z" fill="white" fill-opacity="0.3"/>
<path d="M834.673 805.835C760.498 805.835 700.336 865.965 700.336 940.172C700.336 1014.35 760.498 1074.51 834.673 1074.51C908.88 1074.51 969.01 1014.35 969.01 940.172C969.01 865.971 908.88 805.835 834.673 805.835ZM833.959 1005.45C797.918 1005.45 768.679 976.213 768.679 940.172C768.679 904.099 797.918 874.892 833.959 874.892C870.033 874.892 899.239 904.099 899.239 940.172C899.239 976.213 870.033 1005.45 833.959 1005.45Z" fill="white"/>
<path d="M1074.74 836.884C1074.74 851.408 1062.96 863.186 1048.44 863.186H986.276C971.751 863.186 959.974 851.408 959.974 836.884C959.974 822.36 971.751 810.583 986.276 810.583H1048.44C1062.96 810.583 1074.74 822.36 1074.74 836.884Z" fill="white"/>
<path d="M1034.1 810.583C1019.58 810.583 1007.8 822.469 1007.8 837.129V863.676V1043.71C1007.8 1058.37 1019.58 1070.25 1034.1 1070.25H1048.44C1062.96 1070.25 1074.74 1058.37 1074.74 1043.71V863.676V837.129C1074.74 822.469 1062.96 810.583 1048.44 810.583H1034.1Z" fill="white"/>
<path d="M674.672 836.884C674.672 851.408 662.894 863.186 648.37 863.186H586.207C571.683 863.186 559.906 851.408 559.906 836.884C559.906 822.36 571.683 810.583 586.207 810.583H648.37C662.894 810.583 674.672 822.36 674.672 836.884Z" fill="white"/>
<path d="M634.031 810.583C619.507 810.583 607.729 822.469 607.729 837.129V863.676V1043.71C607.729 1058.37 619.507 1070.25 634.031 1070.25H648.37C662.894 1070.25 674.672 1058.37 674.672 1043.71V863.676V837.129C674.672 822.469 662.894 810.583 648.37 810.583H634.031Z" fill="white"/>
</svg>
