<svg fill="none" height="1129" viewBox="0 0 1434 1129" width="1434" xmlns="http://www.w3.org/2000/svg" xmlns:xlink="http://www.w3.org/1999/xlink"><linearGradient id="a" gradientUnits="userSpaceOnUse" x1="-.003252" x2="126.236" y1="732.076" y2="732.076"><stop offset="0" stop-color="#00315f"/><stop offset="1" stop-color="#a7e4ff"/></linearGradient><linearGradient id="b"><stop offset="0" stop-color="#a7e4ff"/><stop offset="1" stop-color="#00315f"/></linearGradient><linearGradient id="c" gradientUnits="userSpaceOnUse" x1="16.34" x2="126.237" xlink:href="#b" y1="735.378" y2="735.378"/><linearGradient id="d" gradientUnits="userSpaceOnUse" x1="238.653" x2="1433.74" xlink:href="#b" y1="720.498" y2="720.498"/><linearGradient id="e" gradientUnits="userSpaceOnUse" x1="737.865" x2="741.72" xlink:href="#b" y1="802.255" y2="854.944"/><linearGradient id="f" gradientUnits="userSpaceOnUse" x1="867.446" x2="871.301" xlink:href="#b" y1="792.774" y2="845.463"/><linearGradient id="g" gradientUnits="userSpaceOnUse" x1="998.253" x2="1002.11" xlink:href="#b" y1="783.202" y2="835.891"/><linearGradient id="h" gradientUnits="userSpaceOnUse" x1="1098.39" x2="1102.25" xlink:href="#b" y1="775.875" y2="828.564"/><linearGradient id="i" gradientUnits="userSpaceOnUse" x1="1196.67" x2="1200.53" xlink:href="#b" y1="768.683" y2="821.372"/><linearGradient id="j" gradientUnits="userSpaceOnUse" x1="1120.55" x2="1134.69" xlink:href="#b" y1="562.436" y2="690.946"/><linearGradient id="k" gradientUnits="userSpaceOnUse" x1="819.197" x2="833.333" xlink:href="#b" y1="595.585" y2="724.095"/><linearGradient id="l" gradientUnits="userSpaceOnUse" x1="386.069" x2="400.205" xlink:href="#b" y1="643.229" y2="771.739"/><linearGradient id="m" gradientUnits="userSpaceOnUse" x1="181.966" x2="185.822" xlink:href="#b" y1="381.405" y2="446.945"/><linearGradient id="n" gradientUnits="userSpaceOnUse" x1="295.521" x2="299.376" xlink:href="#b" y1="374.725" y2="440.265"/><linearGradient id="o" gradientUnits="userSpaceOnUse" x1="417.941" x2="421.796" xlink:href="#b" y1="367.524" y2="433.064"/><linearGradient id="p" gradientUnits="userSpaceOnUse" x1="545.41" x2="549.266" xlink:href="#b" y1="360.026" y2="425.566"/><linearGradient id="q" gradientUnits="userSpaceOnUse" x1="640.812" x2="644.668" xlink:href="#b" y1="354.414" y2="419.954"/><linearGradient id="r" gradientUnits="userSpaceOnUse" x1="735.803" x2="739.658" xlink:href="#b" y1="348.826" y2="414.366"/><linearGradient id="s" gradientUnits="userSpaceOnUse" x1="862.637" x2="866.492" xlink:href="#b" y1="341.366" y2="406.906"/><g fill="#001532"><path d="m810.126 105.591 62.967 118.017 21.208-26.56 61.252 87.812-64.682-130.86-16.496 18.844z"/><path d="m879.094 0 25.054 81.8191 17.354-13.0677 29.981 64.6816-26.127-93.8134-13.925 8.9975z"/><path d="m1201.65 207.969 96.39-57.615 1.92 18.636 67.47-17.354-88.25 50.548-2.99-25.911z"/><path d="m1144.46 342.475 142.22-93.164 4.71 29.124 103.02-31.271-131.51 82.892-4.07-38.77z"/><path d="m1086.9 249.896s16.55-37.272 17.51-42.088c.96-4.823-1.44-8.997-1.44-8.997s-8.84 22.33-19.44 45.46c-10.6 23.131-25.54 28.595-33.84 28.756-8.3.16-8.25-7.067-8.25-7.067 12.53-7.708 21.37-26.985 21.37-26.985 18.48 13.653 20.08-.801 20.08-.801-5.47 3.694-10.6 1.611-13.17 0-2.58-1.602-9.8-5.144-25.39-12.851-15.58-7.708-39.83-7.868-43.53-8.837-3.689-.962-4.65-2.893-3.849-6.747.801-3.853-.961-6.425 17.839-3.373 18.79 3.053 43.53 14.783 49.15 17.346 5.62 2.572 8.03-7.867 8.03-7.867s7.87 6.425 14.45 6.265c6.59-.16 6.11-6.746 6.11-6.746-3.22 2.412-5.95 1.931-10.6.801-4.66-1.122-15.59-7.708-27.96-13.332s-34.7-9.478-41.28-9.478c-6.59 0-7.23-4.014-5.31-7.708 1.93-3.693 8.03-4.174 28.28-.32 20.24 3.853 34.7 13.652 38.87 14.942 4.18 1.282 6.75-7.868 6.75-7.868s8.35 5.304 13.81 5.945 6.11-6.105 6.11-6.105c-2.58 4.815-10.76.481-14.95-1.122-4.17-1.61-10.44-7.066-25.7-13.492s-37.75-5.464-37.75-5.464-8.52-1.442-8.52-5.464c0-4.014 3.05-5.785 23.29-4.824 20.24.962 43.86 13.813 46.74 14.783 2.9.961 4.5-.641 4.5-.641l11.57-28.275s.8-1.442 3.05-.641 3.85 4.655 11.24 4.823c7.39.161 5.63-5.784 5.63-5.784-4.82 2.892-10.92-.641-10.92-.641s-12.53-6.426-22.49-12.05c-9.96-5.625-41.93-6.106-46.11-5.785-4.17.32-6.74-.801-6.42-6.586s6.26-4.815 6.26-4.815 10.93-1.611 31.17.961 29.4 12.691 32.61 13.813 5.95-8.437 5.95-8.437 4.49 4.415 10.76 6.506c6.26 2.091 10.28-6.506 10.28-6.506-2.74 2.652-8.03 2.813-11.73 1.851-3.7-.961-9.48-7.547-23.94-14.614-14.45-7.066-39.83-4.655-46.05-4.23-6.21.424-6.96-3.157-6.96-6.6903s3.53-5.304 3.53-5.304 8.36-1.7706 29.56.1603c21.21 1.9309 33.09 11.241 37.75 13.012 4.66 1.77 7.39-7.5478 7.39-7.5478s8.51 6.2658 12.37 7.2268c3.85.962 7.71-6.265 7.71-6.265-4.66 4.014-10.44 1.77-15.11-2.2517-4.65-4.0141-23.77-13.4923-30.35-14.9425-6.59-1.4422-34.38-1.2819-38.24-1.2819-3.85 0-4.98-.3205-4.49-5.1438.48-4.8232 8.19-5.9449 8.19-5.9449s3.22.8012 22.81.3205c19.6-.4808 35.83 11.0806 40.81 12.5308s6.91-10.2795 7.71-15.263.8-16.8653-9.8-17.6665-16.55 13.6525-18.32 16.1683-4.33 2.4597-4.33 2.4597-5.47-1.6104-7.87-2.4597c-2.41-.8573-.8-3.4772-.8-3.4772s1.28-2.7321 7.39-12.6911c6.1-9.959 21.2-10.9205 21.2-10.9205l.8-2.8923c-20.39-3.3731-31.8 17.3461-32.76 18.636-.97 1.282-1.94 2.4117-3.38 1.9309-1.44-.4807-2.41-.4807-.16-5.9449s15.91-17.9951 15.91-17.9951c-15.91 2.0912-23.94 20.7192-23.94 20.7192s-1.77 3.0526-4.01 2.8923c-2.25-.1602-2.73-.9614-.16-6.9064 2.57-5.9449 14.29-16.7051 14.29-16.7051-11.89.3205-23.61 21.8489-24.42 22.9706-.8 1.1217-1.61 2.0911-3.53 1.7706-1.93-.3204-2.25-.3204-.96-4.655 1.28-4.3345 15.1-20.0782 15.1-20.0782-10.44.1603-22.65 21.6886-23.13 22.1694-.48.4807-1.28 2.2514-2.73 2.2514-1.44 0-3.38 0-2.09-3.5334 1.28-3.5333 14.62-19.4372 14.62-19.4372-14.29 2.4116-23.45 21.2079-23.29 20.5589.16-.6409-3.54 5.6245-4.83 3.3731-1.28-2.2514 5.89-16.0641 5.89-16.0641-9.39 3.2128-18.74 22.1693-19.54 26.0231s1.93 3.8538 1.93 3.8538 12.37.9614 13.17.8012c.81-.1603 5.15.4807 4.34 5.304-.8 4.8232-5.3 5.6244-5.3 5.6244s-13.82 0-18 0-5.62 2.0912-5.62 6.5859c0 4.4948 11.24 3.6936 14.29 3.6936s5.78 1.9309 5.46 6.1048c-.32 4.175-5.14 4.151-5.14 4.151s-15.58.184-17.35.024c-1.77-.161-4.81.32-5.621 5.464-.801 5.144 6.911 5.785 10.921 5.624 4.01-.16 8.2-.16 8.36 5.945s-16.87 4.335-22.013 4.014c-5.144-.32-5.144 3.053-5.945 5.625s.16 3.533 4.014 4.014 6.424 3.213 5.784 6.586-5.624 4.823-8.516 4.334c-2.892-.48-8.196-.801-10.119 4.984-1.931 5.784 6.906 6.746 9.798 6.906 2.893.16 12.207 2.252 9.157 7.547-3.051 5.304-12.209 2.893-18.795 1.282-6.586-1.61-8.517.802-9.318 6.586-.801 5.785 8.997 5.304 13.652 6.105 4.655.802 6.266 2.572 5.144 6.106-1.121 3.533-5.945 4.494-5.945 4.494s-10.76-1.281-15.511-2.251c-4.751-.961-5.048 2.091-6.658 5.945-1.603 3.854 2.892 4.495 2.892 4.495s7.387 1.931 10.6 2.572 5.464 1.77 5.144 6.265c-.321 4.495-4.711 4.335-4.711 4.335l-19.277-2.14c-8.405 39.139 22.217 54.186 26.239 55.476 4.014 1.282 33.574 10.6 61.044 12.05 27.49 1.426 41.3-27.329 41.3-27.329zm-24.18-39.836c2 0 3.62 1.618 3.62 3.613s-1.62 3.614-3.62 3.614c-1.99 0-3.61-1.619-3.61-3.614s1.62-3.613 3.61-3.613zm-7.47 1.442c-15.88-6.898-35.5-8.837-35.5-8.837 21.05-4.495 35.5 8.837 35.5 8.837zm16.95-23.932c1.82 0 3.29 1.474 3.29 3.293s-1.47 3.293-3.29 3.293-3.29-1.474-3.29-3.293 1.47-3.293 3.29-3.293zm-6.67 0c-20.12-7.307-35.5-7.708-35.5-7.708 23.78-3.381 35.5 7.708 35.5 7.708zm-26.18-32.264s22.33-1.955 36.14 8.324c0 0-15.57-3.958-36.14-8.324zm40.97 14.109c-.42-.289-2.09-1.282-.8-3.854 1.28-2.572 4.65-1.602 6.26 0 1.6 1.61-.17 7.547-5.46 3.854zm9.31-28.595c1.29-1.931 4.99-.321 5.31 2.572.32 2.892-2.09 7.066-5.31 2.571 0 0-1.29-3.212 0-5.143zm-4.5-.962s-27.62-5.784-34.37-6.425c0 0 19.76-3.013 34.37 6.425zm-47.62 2.356c1.52-6.161 28.99-1.546 36.54.697 7.55 2.251 19.76 9.318 18.64 14.133s-5.79 5.304-14.95 0c-9.15-5.304-35.34-6.698-35.34-6.698-3.71-.256-6.42-1.971-4.89-8.132zm65.14-25.486c3.37 1.121 3.37 5.944 2.25 7.547-1.12 1.602-6.27-.962-6.27-3.854-.01 0 .64-4.815 4.02-3.693zm-8.52-.802s-23.29-4.494-35.18-5.624c-.86-.08 22.17-2.412 35.18 5.624zm15.58-20.3984c1.28-3.5333 5.31-2.2514 5.47.8012s-.96 5.1442-4.34 3.6932c-.01 0-2.42-.9611-1.13-4.4944zm-5.46-1.6104-35.5-6.1052s24.74-4.8152 35.5 6.1052zm14.62-20.0782c.48-1.9309 4.98-11.4092 4.33-17.3461 0 0 2.42 2.0911 2.42 8.0281 0 5.9369-.48 13.332-2.42 13.332-1.93 0-4.81-2.0911-4.33-4.014zm-106.34 63.936s1.44-3.854 5.62-3.693c4.18.16 6.43 3.212 4.66 9.318-1.77 6.105-4.02 7.227-7.87 6.906-3.86-.328-5.47-4.343-2.41-12.531zm43.69 97.988c.16 2.571-10.92 20.238-10.92 20.238 1.12-5.624 5.94-16.385 7.38-19.437 1.45-3.053 3.38-3.373 3.54-.801zm-93.809-12.371s-.16-2.572 2.412-2.572 2.732 2.572 2.732 2.572.32 24.741 13.652 33.891c-.008 0-18.475-8.99-18.796-33.891zm10.44 2.892s.641-2.732 3.533-2.572c2.892.161 3.213 2.572 3.213 2.572s.312 27.506 14.782 36.463c-.008 0-17.995-4.174-21.528-36.463zm13.332 3.373s0-3.212 2.732-3.052 2.412 3.052 2.412 3.052-1.443 25.543 15.103 35.662c-.01 0-20.728-7.067-20.247-35.662zm11.721 1.443s-.16-3.374 2.736-3.053c2.89.32 3.21 4.334 3.21 4.334s-3.05 23.612 14.45 35.662c.01.008-24.41-8.989-20.396-36.943zm11.726 4.022s.97-4.824 4.02-3.854c3.05.961 2.09 4.655 2.09 4.655s-2.57 24.581 15.9 35.341c0 0-24.9-8.837-22.01-36.142zm25.55 20.879c-4.18.16-15.27-12.851-5.79-30.358 0 0 11.83 2.732 19.57 6.586 0 0-9.61 23.612-13.78 23.772z"/><path d="m1015.9 143.712c0-2.732 2.09-4.983 2.09-4.983s1.44-1.442.64-2.316c-.8-.873-6.1 1.354-5.94 7.299s3.21 2.732 3.21 0z"/><path d="m1095.58 248.037c0-3.301-.8-3.285-2.73-3.021-1.93.265-2.09 4.079-2.09 4.079 3.87 12.218 14.45 8.196 14.45 8.196-4.33-.97-9.63-5.945-9.63-9.254z"/><path d="m1104.09 222.431h-2.89v8.709h2.89z"/><path d="m1119.19 157.853c2.09-1.61-1.77-3.453-5.14-2.692-3.38.762-5.47 3.974-5.63 7.676-.16 3.693-4.98 175.736-4.98 175.736s-2.25 12.211-12.53 11.57-68.59-12.691-68.59-12.691-10.76-4.655-11.4-15.584c-.65-10.92.96-44.603.96-44.603l-5.47-2.46-2.73 53.817s1.93 12.371 12.37 14.783c10.44 2.411 73.42 17.346 73.42 17.346s19.11 2.676 20.88-18.26c1.76-20.935 4.82-178.845 4.82-178.845s1.93-4.19 4.02-5.793z"/><path d="m1135.09 42.3516s25.71 13.0115 19.6 33.0898c-6.1 20.0782-31.65 74.9126-31.65 74.9126l4.02 2.195 27.95-62.2132s7.71-19.3892 5.47-28.8675c-.16-.6249 19.75 10.4397 24.25 23.2911 0 0-9.64-3.2129-9.64 7.8678 0 11.0808 9.32 14.2938 15.9 8.9978l-1.28 17.025-18.79-9.638 19.43 15.103s5.47-.641 5.63-16.385c.15-15.7438-8.68-44.9798-60.89-65.3784z"/><path d="m1169.39 84.6071c2.35 0 4.25-2.3388 4.25-5.2238 0-2.8851-1.9-5.2239-4.25-5.2239s-4.26 2.3388-4.26 5.2239c0 2.885 1.91 5.2238 4.26 5.2238z"/><path d="m1180.56 132.976c-.49-.777-17.51-10.624-22.65-14.478-5.15-3.853-4.99-5.784-4.82-7.226.16-1.443-.16-2.092-1.93-2.412-1.77-.321-2.57 2.412-2.57 2.412-2.09 5.944 5.78 9.398 5.78 9.398s21.53 13.252 25.38 16.625c3.86 3.373.64 8.356.64 8.356s4.18 2.091 6.27-3.99c2.08-6.081-5.62-7.908-6.1-8.685z"/><path d="m1169.39 139.129c-6.51-4.735-14.87-11.481-15.99-7.307l21.04 14.166c.01 0 1.45-2.124-5.05-6.859z"/><path d="m1141.48 132.167c.22-.225.4-.449.68-.665 0 .008-.5.112-.68.665z"/><path d="m1173.65 157.373s-18.32-9.639-26.67-17.386c-5.18-4.808-5.78-6.907-5.49-7.812-6.21 6.233 8.55 14.902 8.55 14.902l19.35 11.578c6.99 5.304 2.02 9.798 2.02 9.798s4.49-.641 5.46-4.478c.95-3.838-3.22-6.602-3.22-6.602z"/><path d="m1144.57 153.832c5.31 11.569 20.56 12.53 20.56 12.53z"/><path d="m1127.54 162.508c-8.52-1.121-7.01 8.677-7.76 13.172-.12.705 13.54 2.732 13.54 2.732s2.74-14.782-5.78-15.904z"/><path d="m1138.63 163.974c-2.25 2.588 0 4.479 0 4.479l23.77 14.943s.8 2.571 0 4.975c-.8 2.412.16 3.854.16 3.854s5.78-5.464 5.95-7.227c.16-1.771-1.61-3.694-1.61-3.694z"/><path d="m1156.45 189.012-18.15-10.6-.68 3.213s14.33 7.548 15.77 8.517c1.46.961 3.06-1.13 3.06-1.13z"/><path d="m1157.26 203.314-19.63-9.959c-3.25 2.572 13.37 11.401 14.65 11.89 1.28.48 1.44 4.823 1.12 6.265s.16 1.771.64 2.171c.48.401 4.18-2.491 4.4-6.345.23-3.854-1.18-4.022-1.18-4.022z"/><path d="m1141.04 207.328c-3.53-1.282-3.83 2.091-3.83 2.091l8.97 4.254s-1.61-5.063-5.14-6.345z"/><path d="m1135.74 220.66c2.25.801 8.02 8.837 8.02 8.837s.48 4.014.7 5.464c.22 1.443 3.16-.32 3.77-3.821.61-3.502-.92-4.535-1.19-5.497-.26-.961-11.3-4.983-11.3-4.983z"/><path d="m1117.26 256.962c.16 3.053 3.05 3.213 7.64.954 4.59-2.26 6.33-9.879 6.33-9.879s.48-50.348.64-50.828c.16-.481-.32-4.655-7.06-3.854-6.75.801-6.91 7.707-6.91 7.707s-.8 52.848-.64 55.9z"/><path d="m1128.19 261.305c-5.15 1.122-10.95 6.746-10.95 6.746-5.32 14.454 14 .32 14.67-1.931.66-2.251 1.41-5.945-3.72-4.815z"/><path d="m1137.21 248.037c-3.51-.088-2.76 3.157-2.76 3.157-.16 8.693 2.58 6.57 3.54 4.807s2.72-7.868-.78-7.964z"/><path d="m1117.24 310.139 12.88-7.548v-18.956c-2.09-.962-14.45 7.066-14.45 7.066z"/><path d="m1121.27 338.885c-4.65 2.252-7.7-1.931-7.7-1.931v14.943c12.05-2.251 16.54-19.918 16.54-19.918s-4.17 4.663-8.84 6.906z"/><path d="m1056.22 294.82s-17.78-7.82-18.9-7.82c-7.5 0-1.82 3.91-1.82 3.91z"/><path d="m1080.48 293.914c-4.99-.481-32.45-7.227-32.93-6.906 0 0 17.5 9.478 30.03 10.76 12.54 1.282 25.07-5.625 25.07-5.625s-17.2 2.252-22.17 1.771z"/><path d="m1101.84 297.928s-16.24 1.458-16.71 1.931c-2.51 2.572 16.07 8.196 16.07 8.196z"/><path d="m1029.55 315.274c.96-4.014-7.55-1.931-9.8-1.442s-12.28 6.586.77 6.426c0 0 8.07-.97 9.03-4.984z"/><path d="m1034.86 336.642s39.83 8.838 50.04 10.76c10.21 1.931 14.04-6.105 14.04-6.105s-5.3 0-11.73-1.121c-6.42-1.122-14.78-3.854-20.87-5.625-6.11-1.771 0 5.625 0 5.625s-10.12-2.412-13.34-3.213c-3.21-.801-.64-1.282.32-2.252.97-.969.16-3.212-3.37-3.373-3.53-.16-9.48-3.213-18.31-8.677-8.84-5.464-13.34 4.655-13.34 4.655-2.2 7.075 16.56 9.326 16.56 9.326z"/><path d="m1046.35 374.571h-2.84v18.035h2.84z"/><path d="m1054.65 361.608c-3.44 0-2.93 4.863-3.89 6.89-.97 2.027 0 22.69 0 22.69l7.78-2.435v-21.881s-.45-5.264-3.89-5.264z"/><path d="m1066.61 363.226c-1.01 7.7 0 24.317 0 24.317l4.66-1.218v-26.343s-3.64-4.455-4.66 3.244z"/><path d="m1163.36 109.925s16.71 8.277 21.69 14.847c0 0-16.22-5.256-21.69-14.847z"/></g><path d="m1002.67 276.295-16.703-20.991-20.415-1.771c14.918 18.46 37.118 22.762 37.118 22.762z" fill="#a7e4ff"/><path d="m1133.62 318.271 26.37 10.023 9.6-6.474-35.7-15.295z" fill="#001532"/><path d="m1199.54 301.654-64.87-28.211-.47 20.319-.01.144 48.34 19.205z" fill="#001532"/><path d="m1134.19 293.906-.3 12.619 35.7 15.295 12.94-8.709z" fill="#a7e4ff"/><path d="m1171.59 332.508 53.26 27.954 13.31-2.523c-20.25-11.658-42.97-24.429-54.75-30.086z" fill="#001532"/><path d="m803.484 1095.33c120.373-19.7 221.466-55.69 328.126-110.52 70.39-36.191 140.94-90.096 189.29-141.413-5.57-3.549-12.38-8.084-12.38-8.084s83.96-85.249 96.81-181.625c12.66-94.959-20.88-191.561-122.64-268.949l-.61 12.114s30.06 22.418 64.08 65.659c34.02 43.249 52.47 104.685 52.47 138.969s-5.27 89.919-35.07 142.39-83.86 109.429-123.94 142.126-147.14 100.199-205.94 128.943c-58.802 28.74-138.962 51.16-243.127 67.77s-190.383 7.64-279.509-.53-200.141-40.87-200.141-40.87l-42.191 7.85c19.045 8.82 67.125 28.32 152.237 46.17 114.38 23.99 262.162 19.71 382.535 0z" fill="#001532"/><path d="m1200.75 321.027-17.34 6.826c11.78 5.649 34.5 18.428 54.75 30.086l19.81-3.75c-25.46-16.769-46.92-28.034-57.22-33.162z" fill="#a7e4ff"/><path d="m31.9957 796.759c12.0982 66.524 74.0233 137.671 94.2373 159.455v-19.805s-81.8186-68.111-89.5262-178.204c-7.7076-110.094 73.2542-209.467 89.5262-221.461v-14.326c-91.1526 83.846-108.4106 196.407-94.2373 274.341z" fill="#001532"/><path d="m25.1454 819.464c-21.84889-93.813 3.8538-160.209 3.8538-160.209 23.6435-81.426 78.5018-137.983 97.2418-155.385v-27.097s-96.3845 86.105-120.37262 205.189c-23.98808 119.083 27.41722 232.605 120.37262 305.427v-20.495c-77.9328-62.975-101.0956-147.43-101.0956-147.43z" fill="url(#a)"/><path d="m307.57 370.253c22.858-13.893 105.399-59.994 243.606-93.108 157.646-37.769 317.975-35.405 373.282-29.861l-13.46-19.397-35.558-2.572-3.429 5.993-2.572-6.426c-28.274-3.429-152.501-4.286-311.42 29.99-158.927 34.267-309.281 124.226-309.281 124.226l58.688-8.997z" fill="#001532"/><path d="m927.711 273.443 16.281 1.995-8.485-12.234c-4.655-.529-9.358-1.01-14.11-1.426 5 4.302 6.314 11.665 6.314 11.665z" fill="#001532"/><path d="m652.697 273.443c-175.199 21.569-335.841 106.945-335.841 106.945l-.425 8.14 40.694-18.844s2.571-7.283 13.276-10.279c10.712-2.997 22.706-3.854 22.706-3.854s71.107-34.268 196.623-62.542c125.517-28.275 261.73-23.131 263.02-23.564.978-.328 28.595-6.377 46.983-9.23-116.119-6.585-247.036 13.228-247.036 13.228z" fill="#001532"/><path d="m955.553 235.17-20.992-4.287 9.567 20.8 21.416 1.85c-4.054-5.015-7.611-11.032-9.991-18.363z" fill="#001532"/><path d="m965.552 253.541-21.417-1.85 6.466 14.053 52.079 10.56c-.01-.008-22.21-4.311-37.128-22.763z" fill="#a7e4ff"/><path d="m1002.67 284.003v-7.708l-52.068-10.559 6.233 13.556z" fill="#001532"/><path d="m28.9992 659.256s-25.70262 66.395-3.8538 160.209c0 0 23.1709 84.455 101.0966 147.429v-10.672c-20.215-21.785-82.14-92.931-94.2382-159.456-14.1734-77.933 3.0846-190.494 94.2382-274.34v-18.556c-18.749 17.402-73.5992 73.959-97.2428 155.386z" fill="url(#c)"/><path d="m551.177 277.153c-138.2 33.114-220.74 79.215-243.607 93.108l9.286 10.127s160.634-85.376 335.841-106.944c0 0 130.917-19.814 247.028-13.236 5.721-.89 10.576-1.475 13.42-1.475 3.501 0 6.177 1.266 8.245 3.045 4.751.425 9.454.897 14.109 1.426l-11.041-15.912c-55.307-5.544-215.636-7.908-373.281 29.861z" fill="#a7e4ff"/><path d="m1387.55 457.232c-55.37-89.655-165.07-144.77-165.07-144.77l-21.73 8.557c10.3 5.12 31.76 16.385 57.22 33.154l7.22-1.37 18.2 18.195-.05.898c46.73 34.628 98.29 84.719 118.14 146.845 39.84 124.651 3 184.629-26.56 250.168-9.82 21.753-28.16 46.814-52.21 72.589-.58.625-1.21 1.266-1.81 1.891-48.36 51.317-118.9 105.23-189.29 141.413-106.66 54.838-207.761 90.818-328.126 110.518-120.373 19.7-268.155 23.99-382.527 0-85.112-17.85-133.193-37.35-152.237-46.17l-30.062 5.6c77.525 45.09 160.057 55.11 271.337 67.76 111.279 12.66 226.508 4.23 329.88-15.29 103.363-19.51 206.475-52.47 318.795-115.76 112.33-63.288 170.35-132.375 193.02-160.586 22.68-28.218 80.43-106.007 82.01-210.685 1.58-104.677-46.15-162.957-46.15-162.957z" fill="url(#d)"/><path d="m1405.34 653.687c-12.85 96.385-96.81 181.626-96.81 181.626s6.8 4.534 12.38 8.084c.59-.633 1.23-1.266 1.81-1.891 24.05-25.775 42.4-50.837 52.21-72.589 29.55-65.539 66.39-125.509 26.56-250.169-19.86-62.117-71.41-112.208-118.14-146.844l-.66 12.827c101.76 77.396 135.31 173.998 122.65 268.956z" fill="#00315f"/><path d="m802.194 881.574s-.641-69.392-1.074-80.209c-.424-10.816-10.712-10.391-10.712-10.391l-107.089 20.775 1.074 136.437 52.471-9.638.641-34.484 7.066-.857 11.994 31.912s44.339-7.5 45.621-7.5-13.068-34.059-13.068-34.059c12.227-1.915 13.076-11.986 13.076-11.986zm-52.687-13.492-13.276 2.355v-35.557l13.276-2.788z" fill="#001532"/><path d="m917.64 768.059s-86.53 16.064-95.736 18.204c-9.206 2.139-9.855 12.426-9.855 12.426v125.726l53.761-8.998-.497-34.628 13.717-1.963.496 33.803 50.973-9.422s.216-115.013 0-125.942c-.216-10.92-12.859-9.206-12.859-9.206zm-52.816 79.071-.513-35.589 13.709-1.715.513 34.941z" fill="#001532"/><path d="m1059 752.748c0-9.959-12.21-9.959-12.21-9.959l-105.587 19.918 1.931 137.295s94.456-17.138 106.446-19.918c12-2.789 11.14-14.783 11.14-14.783s-1.72-102.594-1.72-112.553zm-63.611 103.981-1.715-70.042 13.706-2.572 1.28 69.609z" fill="#001532"/><path d="m1072.93 737.429 2.14 136.438 52.26-8.998-1.93-137.078z" fill="#001532"/><path d="m1255.84 713.441c-1.72-10.063-14.35-7.283-14.35-7.283l-92.32 17.354c-11.44 2.148-11.35 14.566-11.35 14.566s1.28 97.884 1.5 111.592c.21 13.709 14.35 10.496 14.35 10.496s83.31-16.281 93.81-18.42 9.21-14.349 9.21-14.349.86-103.885-.85-113.956zm-51.19 103.452-14.35 2.139v-71.323l14.35-2.139z" fill="#001532"/><path d="m1147.03 381.245.86 136.862-58.9-127.864-110.307 20.126 1.499 317.421 108.808-19.276-.85-136.558 58.47 125.421 110.3-18.204.22-317.205z" fill="#001532"/><path d="m836.47 675.961.424 80.104 119.083-21.208.641-289.787s-.857-25.062-28.699-21.208l-214.186 37.055s-27.201 2.997-29.34 31.271v290.429l119.94-20.134-.216-80.745zm-31.912-154 31.271-5.785.857 82.677-30.053 5.408-2.075.377z" fill="#001532"/><path d="m497.632 501.827-97.883 236.243-98.741-201.118-167.492 29.773v478.485l163.847-27.62-.641-184.2 61.685 128.513 80.104-13.709 63.183-150.57s.641 182.915 0 183.123c-.641.217 162.997-29.34 162.997-29.34l-.641-478.912z" fill="#001532"/><path d="m185.354 482.982 43.906-7.066.641-34.268-44.122 7.708v-17.779l54.618-8.565v-33.41s-84.599 14.782-95.095 16.921c-10.496 2.14-11.778 13.276-11.778 13.276v123.154l51.406-9.206z" fill="#001532"/><path d="m263.103 520.888 92.74-15.848v-34.051l-56.758 10.279 1.282-101.096-50.764 9.422v124.227c1.073 10.071 13.5 7.067 13.5 7.067z" fill="#001532"/><path d="m375.544 499.471s79.888-13.068 91.883-15.848c11.994-2.788 11.353-14.133 11.353-14.133s-.217-103.452 0-112.016c.216-8.565-10.063-8.565-10.063-8.565s-86.106 15.423-94.671 17.137c-8.565 1.715-10.279 12.852-10.279 12.852s.424 100.88 0 111.8c-.433 10.92 11.777 8.773 11.777 8.773zm37.697-107.946 15.207-1.931v68.535l-15.207 1.282z" fill="#001532"/><path d="m541.105 433.292 7.708-1.498 12.21 32.985 44.643-6.425-12.514-33.843c11.136-2.139 12.426-10.496 12.426-10.496s.217-70.041 0-79.784c-.216-9.743-11.777-9.743-11.777-9.743l-103.877 19.494v133.224l51.622-8.565zm0-66.612 13.709-2.139v34.7l-13.709 1.61z" fill="#001532"/><path d="m616.715 454.708 51.622-8.781v-134.931l-52.479 8.781z" fill="#001532"/><path d="m794.487 411.018s.641-100.455 0-111.055-13.925-9.102-13.925-9.102l-101.521 18.204v133.649s90.817-15.64 103.876-19.253c13.068-3.614 11.57-12.443 11.57-12.443zm-51.614-12.427-11.778 2.252-1.073-68.431 13.925-2.356z" fill="#001532"/><path d="m856.099 376.494 13.492-2.804-.144 34.532 52.479-8.356s-.857-115.446-1.282-125.509c-.424-10.063-11.778-6.851-11.778-6.851s-82.243 13.276-92.955 15.848-10.28 14.566-10.28 14.566l-1.073 122.088 51.621-10.28zm-.144-68.07 13.925-1.498-.144 34.155-13.701 1.899z" fill="#001532"/><path d="m694.216 820.658.897 114.564 31.111-5.712.481-25.647.176-9.406 9.334-1.13 7.067-.857 8.436-1.026 2.989 7.956 8.861 23.572c10.961-1.851 18.724-3.141 24.261-4.046-2.444-6.194-5.689-14.101-8.661-21.16l-5.36-12.731 13.644-2.155c.833-.129 3.277-.521 3.926-2.324-.088-8.901-.657-68.118-1.042-78.55zm66.107 11.441v35.982 9.07l-8.925 1.586-13.276 2.356-12.707 2.251v-12.907-35.558-8.781l8.597-1.803 13.276-2.788 13.035-2.732z" fill="url(#e)"/><path d="m919.467 778.779-.337.008c-29.989 5.569-87.716 16.377-94.774 18.011-.97.225-1.371 1.915-1.483 2.556v112.281l31.992-5.352-.368-25.334-.136-9.518 9.422-1.346 13.717-1.963 12.162-1.739.176 12.291.304 20.991 29.549-5.464c.04-26.264.152-101.849.008-115.422zm-39.099 76.644-13.701 2.363-12.475 2.155-.184-12.659-.513-35.589-.136-9.687 9.615-1.202 13.708-1.714 11.978-1.498.176 12.074.513 34.94.136 9.246z" fill="url(#f)"/><path d="m1049.9 865.478c-.06-4.071-1.62-97.09-1.71-111.632l-.8-.169-95.242 17.971 1.618 115.422c34.236-6.241 85.164-15.623 93.364-17.53.99-.233 2.83-.657 2.78-3.734l-.07-.577zm-38.85-1.194-13.274 2.996-12.875 2.909-.321-13.196-1.714-70.041-.225-9.198 9.046-1.699 13.713-2.572 12.57-2.355.23 12.787 1.28 69.609.16 8.813z" fill="url(#g)"/><path d="m1083.88 746.419 1.8 114.644 30.71-5.288-1.62-115.029z" fill="url(#h)"/><path d="m1245.32 716.622h-.09c-.87 0-1.55.128-1.56.128l-92.5 17.386c-1.99.376-2.48 2.411-2.53 4.062 0 .096 1.28 97.619 1.49 111.295l.01.177h.12c.67 0 1.18-.096 1.19-.096.98-.193 83.54-16.329 93.87-18.436l.19-.048c.26-.545.47-1.867.42-2.756l-.07-.609.03-.433c.38-46.943.3-99.838-.57-110.67zm-29.86 28.947v71.323 9.318l-9.22 1.378-14.35 2.14-12.41 1.85v-12.546-71.324-9.318l9.22-1.378 14.35-2.139 12.41-1.851z" fill="url(#i)"/><path d="m1077.01 522.49 20.92 44.9 55.01 117.977 93.16-15.375.2-295.148-88.39 15.479.8 127.72.31 50.076-20.95-45.485-55.39-120.245-93.132 16.994 1.394 295.516 87.168-15.439-.79-127.439z" fill="url(#j)"/><path d="m933.488 434.277c-1.218 0-2.532.096-3.91.281l-213.994 37.023-.329.057-.328.04c-2.956.384-18.163 3.252-19.71 20.959v277.209l98.284-16.497-.192-71.571-.024-9.078 8.933-1.594 32.345-5.785 12.651-2.26.072 12.852.361 67.261 97.538-17.37.625-280.462c-.288-4.102-2.291-11.057-12.322-11.065zm-94.887 175.224-30.053 5.408-2.075.377-12.731 2.291v-12.939-82.677-8.997l8.845-1.635 31.271-5.784 12.651-2.34.136 12.859.857 82.677.096 9.142z" fill="url(#k)"/><path d="m505.348 511.45-95.608 230.763-9.158 22.105-10.544-21.48-95.151-193.812-150.554 26.76v456.634l142.181-23.98-.609-175.026-.168-47.912 20.735 43.193 58.152 121.15 66.211-11.329 60.884-145.098 20.607-49.098.184 53.248s.161 45.741.241 91.497c.04 22.891.056 45.789.032 62.975-.008 6.033-.024 11.361-.048 15.744 28.106-5.04 96.449-17.37 141.132-25.438l-.617-456.992z" fill="url(#l)"/><path d="m174.538 482.886.08-9.134 9.022-1.45 34.98-5.632.225-12.114-31.207 5.456-12.675 2.219v-12.875-17.779-9.254l9.141-1.434 45.477-7.131v-11.289c-23.996 4.207-74.336 13.06-82.116 14.646-2.083.425-2.86 2.508-3.124 3.646v109.268l29.844-5.344z" fill="url(#m)"/><path d="m261.052 510.255.225-.024 83.75-14.317v-11.978l-44.019 7.972-12.907 2.339.168-13.116 1.114-87.916-28.964 5.376v111.8l.281-.048z" fill="url(#n)"/><path d="m374.631 488.663c27.69-4.535 81.226-13.46 90.352-15.575 1.082-.249 2.868-.665 2.989-3.125l-.065-.505.065.056c-.008-3.95-.193-91.009-.041-109.476-14.646 2.628-84.246 15.11-91.762 16.609-.496.368-1.257 2.179-1.578 3.325.04 11.008.361 90.976.04 108.691zm27.794-29.244v-67.894-9.534l9.454-1.202 15.207-1.931 12.178-1.546v12.274 68.535 9.943l-9.903.833-15.206 1.282-11.73.994z" fill="url(#o)"/><path d="m530.297 433.42-.112-9.03 8.862-1.722 7.707-1.499 9.022-1.754 3.188 8.613 9.174 24.789 22.747-3.277-7.876-21.288-4.423-11.962 12.531-2.412c2.275-.44 3.245-1.209 3.653-1.738.032-10.744.177-65.282.016-76.668l-.432-.088-93.621 17.563v111.487l29.877-4.959zm-.008-32.577v-34.164-9.254l9.15-1.426 13.709-2.139 12.483-1.955v12.635 34.7 9.623l-9.559 1.121-13.708 1.611-12.075 1.418z" fill="url(#p)"/><path d="m627.451 441.913 30.07-5.12v-113.026l-30.791 5.152z" fill="url(#q)"/><path d="m783.671 411.395v-.449c.168-26.88.504-96.866.072-109.228-.409-.064-.922-.113-1.515-.113l-.32.008-92.051 16.505v111.752c30.094-5.247 81.315-14.373 90.176-16.825 2.268-.633 3.269-1.33 3.638-1.65zm-28.916-81.17-1.074 68.535-.136 8.805-8.645 1.65-11.778 2.252-12.642 2.411-.201-12.867-1.073-68.431-.145-9.286 9.158-1.546 13.925-2.356 12.819-2.171z" fill="url(#r)"/><path d="m815.486 406.804 29.853-5.945-.048-24.341-.016-8.821 8.637-1.795 13.492-2.804 13.068-2.716-.056 13.348-.088 21.809 30.718-4.887c-.288-37.681-.793-96.417-1.114-112.361-23.259 3.757-83.117 13.572-91.497 15.583-1.827.441-1.987 3.069-1.995 3.862l.008.24-.008.04zm39.315-109.14 13.925-1.499 12.026-1.298-.048 12.099-.144 34.155-.04 9.382-9.294 1.29-13.7 1.899-12.275 1.698-.024-12.394-.072-34.548-.024-9.735z" fill="url(#s)"/></svg>