<svg width="1282" height="725" viewBox="0 0 1282 725" fill="none" xmlns="http://www.w3.org/2000/svg">
<path fill-rule="evenodd" clip-rule="evenodd" d="M23.316 14.934C17.81 17.446 15.624 21.61 16.239 28.414C16.69 33.41 43.507 90.118 195.03 406.5C210.571 438.95 225.491 470.13 228.184 475.79C234.468 488.992 235.917 489.991 248.773 489.996L258.045 490L252.64 497.75C234.18 524.217 227.786 554.283 232.604 591.957C237.602 631.039 252.302 662.834 275.607 684.972C287.572 696.337 299.47 703.298 315.5 708.311L322.5 710.5L645.299 710.761C960.142 711.015 968.329 710.974 977.489 709.103C994.833 705.559 1014.61 693.947 1027.54 679.714C1039.68 666.35 1050.62 647.215 1057.01 628.132C1066.07 601.074 1069.17 566.375 1064.52 543.993C1060.31 523.766 1050.36 502.588 1038.95 489.593L1036.02 486.254L1043.76 483.54C1070.34 474.22 1096.03 452.663 1115.31 423.5C1129.68 401.765 1171.93 310.118 1176.48 290.823C1179.92 276.227 1179.32 254.66 1175.02 238.018L1173.08 230.535L1181.7 211.518C1190.94 191.141 1202.08 167.683 1233.71 102C1257.36 52.897 1265.47 35.137 1267.12 28.918C1268.18 24.891 1268.09 23.861 1266.41 20.418C1262.55 12.505 1269.73 13.003 1159.5 13.002C1099.55 13.002 1057.23 13.404 1050.5 14.039C1023.6 16.576 1002 23.431 984 35.147C970.248 44.098 954.719 62.287 947.042 78.436C945.456 81.771 938.309 100.925 931.159 121C919.153 154.711 892.172 228.232 873.359 278.5L865.5 299.5L865 267.167L864.5 234.833L861.234 231.917L857.968 229H796.984H736V125.95C736 12.182 736.389 19.037 729.701 14.96C726.599 13.068 724.099 13.007 648.718 13.004C564.301 13 566.621 12.852 562.168 18.514L560 21.27L559.877 85.885C559.796 128.004 559.446 148.237 558.87 144C551.706 91.242 547.906 67.257 542.878 43.068C539.307 25.885 536.551 18.461 532.677 15.591C529.887 13.524 529.053 13.496 461.177 13.199C414.272 12.994 391.327 13.24 388.8 13.975C386.714 14.581 384.215 16.294 383.069 17.904C381.185 20.549 381.017 22.478 380.768 44.368L380.5 67.979L365 42.239C351.96 20.585 348.945 16.223 346 14.752C342.808 13.157 338.098 13.003 292.484 13.002C245.606 13 242.25 13.117 238.984 14.863C232.332 18.42 231.905 20.149 230.366 49.805C229.603 64.487 228.645 78.298 228.236 80.496L227.493 84.491L209.673 51.996C199.871 34.123 190.527 18.15 188.907 16.5L185.962 13.5L106.731 13.262C30.61 13.034 27.336 13.1 23.316 14.934ZM581.731 41.5C580.666 52.986 578.692 451.642 579.705 450.629C579.955 450.379 584.985 378.226 584.995 374.75C584.999 373.374 585.86 373 589.021 373H593.043L592.383 412.25C592.02 433.837 591.987 451.262 592.308 450.97C592.751 450.569 598 379.666 598 374.084C598 373.32 612.556 372.992 647.25 372.974C690.933 372.951 789.602 370.731 790.584 369.749C791.558 368.776 695.17 366.964 643.319 366.981L585.138 367L584.595 209.75C584.296 123.262 583.697 48.225 583.263 43L582.473 33.5L581.731 41.5ZM45.837 47.502C58.515 78.337 66.53 96.312 89.978 146.5C103.855 176.2 132.748 238.525 154.187 285C175.625 331.475 197.792 379.4 203.446 391.5C209.099 403.6 219.71 426.439 227.026 442.254C234.341 458.068 240.46 470.873 240.625 470.709C240.789 470.544 232.247 449.505 221.642 423.955C202.873 378.733 202.425 377.491 204.765 377.175C206.087 376.997 207.717 377.061 208.387 377.318C209.058 377.576 219.696 399.183 232.027 425.335C244.359 451.487 254.562 472.772 254.7 472.634C254.837 472.496 245.998 451.034 235.057 424.942L215.164 377.5L237.832 376.886C273.401 375.923 302.089 374.756 301.624 374.291C300.889 373.555 237.338 371.047 218.5 371.01L200.5 370.974L137.083 234.737C82.769 118.058 45.386 40.243 41.848 36.502C41.328 35.953 43.123 40.903 45.837 47.502ZM60 41.469C60 43.18 164.611 258.83 191.476 312.5L212.5 354.5L262.02 354.759L311.54 355.018L313.828 336.759C317.94 303.961 328.039 233.577 329.112 230.242C331.049 224.221 338.336 222.972 342.849 227.888C345.019 230.253 387.56 301.915 411.615 343.73L417.5 353.959L461.25 353.98L505 354V197.5V41H457H409V102C409 161.667 408.956 163.044 407 165C404.711 167.289 402.112 167.558 399.747 165.75C398.847 165.063 383.315 138.625 365.23 107C347.146 75.375 331.141 47.587 329.662 45.25L326.975 41H294.956C270.2 41 262.855 41.284 262.576 42.25C262.377 42.938 260.766 63.3 258.995 87.5C253.298 165.336 253.547 163.519 248.257 165.929C244.594 167.598 241.342 167.203 238.554 164.75C237.147 163.512 221.035 135.275 202.748 102L169.5 41.5L114.75 41.241C84.637 41.099 60 41.202 60 41.469ZM595 197.505V354.009L696.67 353.755L798.339 353.5L815.656 311C825.18 287.625 833.234 267.712 833.554 266.75C834.103 265.096 830.732 265 772.035 265C703.771 265 704.511 265.062 702.049 259.119C701.007 256.604 700.834 234.956 701.165 148.496L701.575 41H648.288H595V197.505ZM1059.5 41.656C1033.2 44.783 1019.04 49.167 1004.92 58.551C990.988 67.815 981.242 81.182 975.43 99C973.09 106.177 972.656 109.212 972.646 118.5C972.629 133.262 974.707 141.057 987.643 174.737C997.102 199.366 999.282 208.367 998.837 220.959C998.549 229.123 998.079 231.331 995.583 236.257C991.93 243.467 983.257 251.832 975.239 255.879C961.489 262.82 945.087 265.299 916.074 264.82L896.647 264.5L895.204 268C893.642 271.79 869.889 335.856 865.616 347.805L863.004 355.109L951.252 354.684C1011.25 354.395 1041.58 353.892 1046 353.114C1083.88 346.442 1111.31 332.521 1127.6 311.693C1138.6 297.644 1144.01 282.098 1143.99 264.59C1143.98 246.343 1139.59 233.454 1123.56 204.563C1107.87 176.292 1105.43 169.467 1106.2 156.015C1106.99 142.449 1114.15 131.873 1126.5 126.043C1135.78 121.664 1141.1 121 1166.93 121C1184.94 121 1191.01 120.691 1191.81 119.733C1192.39 119.036 1201.41 101.036 1211.86 79.733L1230.86 41L1146.68 41.15C1100.38 41.232 1061.15 41.46 1059.5 41.656ZM531.521 230.5L532.006 374.5L539.253 412.912L546.5 451.325L546.732 319.412L546.965 187.5L539.001 137L531.036 86.5L531.521 230.5ZM1148.43 148.939C1141.29 150.648 1136 156.15 1136 161.872C1136 166.194 1142.12 180.426 1150.04 194.512C1154.56 202.556 1158.62 208.769 1159.05 208.319C1159.49 207.868 1163.65 199.175 1168.31 189C1172.97 178.825 1179.09 165.616 1181.89 159.646C1184.7 153.677 1187 148.614 1187 148.396C1187 147.686 1151.59 148.184 1148.43 148.939ZM943.554 150.712C935.321 172.068 914.933 229.266 915.39 229.724C915.733 230.067 922.235 229.841 929.839 229.222C946.014 227.906 953.367 225.624 957.838 220.532C964.076 213.427 963.053 204.848 952.076 172.212C946.848 156.669 944.014 149.519 943.554 150.712ZM829.268 331.175L812.035 373.5L807.554 409.453C805.09 429.228 803.187 445.52 803.326 445.659C803.465 445.798 813.566 419.044 825.773 386.206L847.967 326.5L847.233 307.675L846.5 288.849L829.268 331.175ZM1154.7 292C1154.3 293.925 1152.5 298.888 1150.69 303.028C1135.48 337.863 1100.31 359.735 1048.7 366.462C1039.02 367.723 1023.99 367.998 965.199 367.989C885.411 367.977 849.98 369.191 850.681 371.913C850.906 372.786 844.322 390.116 836.052 410.424C827.781 430.732 821.152 447.485 821.32 447.654C821.489 447.822 829.754 430.981 839.687 410.23L857.747 372.5L861.373 372.19C863.368 372.019 865 372.244 864.999 372.69C864.998 373.135 858.029 390.568 849.511 411.428C840.993 432.289 834.131 449.459 834.262 449.583C834.393 449.707 842.674 432.706 852.665 411.803L870.83 373.796L955.665 373.648C1033.12 373.513 1041.5 373.338 1052 371.641C1101.45 363.648 1134.32 344.77 1148.02 316.5C1152.27 307.732 1156.33 294.236 1155.78 290.728C1155.51 288.983 1155.28 289.259 1154.7 292ZM354 297.268C354 297.635 358.915 315.388 364.923 336.718L375.846 375.5L396.673 409.126C408.128 427.62 417.637 442.633 417.804 442.488C417.971 442.344 414.264 427.597 409.565 409.718L401.022 377.211L378.366 337.856C356.777 300.354 354 295.728 354 297.268ZM344.079 302.228C344.036 302.628 341.975 319.777 339.5 340.336C337.025 360.895 335 379.008 335 380.587C335 383.301 354.485 441.654 355.924 443.25C356.296 443.663 358.531 428.588 360.89 409.75L365.179 375.5L355.076 339.5C344.841 303.031 344.22 300.927 344.079 302.228ZM1121 356.575C1113.22 361.914 1098.76 369.061 1090.56 371.625C1086.4 372.927 1084.22 374.231 1083.25 375.991C1079.91 382.055 1043.24 459.537 1043.55 459.868C1044.33 460.688 1058 452.375 1065.51 446.515C1078.52 436.361 1090 423.222 1100.18 406.812C1104.15 400.405 1128.58 351.783 1127.69 352.058C1127.58 352.09 1124.58 354.123 1121 356.575ZM420.992 373.808C420.98 376.441 436.448 448.155 436.801 447.098C436.973 446.582 434.837 431.612 432.054 413.83C429.272 396.049 426.996 380.488 426.998 379.25C427 377.449 427.563 377 429.819 377H432.638L438.9 407.25C446.609 444.489 448.1 451.233 448.528 450.805C448.713 450.62 446.505 433.982 443.622 413.833L438.379 377.196L454.939 376.578C464.048 376.238 478.475 375.617 487 375.198C502.1 374.455 501.622 374.417 468.5 373.715C449.8 373.319 431.462 372.797 427.75 372.555C421.906 372.175 420.999 372.343 420.992 373.808ZM1070.33 377.245L1066.16 378.25L1045.07 422.28C1033.47 446.496 1024.15 466.481 1024.36 466.69C1024.56 466.899 1027.06 466.266 1029.9 465.285L1035.07 463.5L1051.12 430C1075.86 378.363 1076.94 375.992 1075.68 376.12C1075.03 376.186 1072.62 376.692 1070.33 377.245ZM1017.2 418.75C1007.25 439.512 998.975 457.079 998.806 457.787C998.526 458.966 1007.6 463.799 1008.39 462.889C1009.12 462.048 1047 382.419 1047 381.732C1047 381.329 1044.37 381 1041.15 381H1035.29L1017.2 418.75ZM377.603 421.706C377.25 427.643 376.691 436.663 376.362 441.75L375.762 451H387.89H400.017L397.119 445.75C395.525 442.863 390.744 433.975 386.493 426C382.243 418.025 378.648 411.368 378.505 411.206C378.362 411.044 377.956 415.769 377.603 421.706ZM329 469.024C298.378 472.682 273.003 491.528 258.466 521.412C246.92 545.147 244.813 576.308 253.063 601.314C258.943 619.136 271.258 637.413 284.45 647.897C292.626 654.394 304.389 660.756 314.5 664.15L321.5 666.5L645.87 666.759C966.172 667.015 970.344 666.993 978.579 665.037C1010.27 657.51 1035.62 631.928 1045.5 597.5C1055.87 561.367 1046.6 522.023 1021.61 496.141C1009.32 483.412 996.162 475.485 979.5 470.766L971.5 468.5L653.5 468.374C478.6 468.304 332.575 468.597 329 469.024ZM324.675 493.622C290.688 500.94 266.965 534.972 269.342 573C271.334 604.884 290.025 630.611 318.51 640.676L326.5 643.5H648C956.848 643.5 969.756 643.428 976 641.665C1007.16 632.867 1028.21 603.172 1028.2 568C1028.2 549.538 1023.59 534.912 1013.23 520.537C1004.46 508.349 993.757 500.42 979 495.169L971.5 492.5L651.5 492.326C373.307 492.175 330.608 492.344 324.675 493.622ZM402.5 511.38C393.871 514.383 386.956 521.147 385.139 528.361C382.318 539.566 384.688 550.946 390.936 556.191L394.662 559.32L389.945 563.91C384.276 569.426 383 574.035 383 589C383 600.662 384.316 607.682 387.352 612.213C389.977 616.133 397.702 621.526 402.823 623.015C409.283 624.894 421.752 625.774 430.054 624.937C448.564 623.071 458.116 616.388 460.421 603.691C461.49 597.807 461.169 577.35 459.935 572.68C458.693 567.977 454.185 562.734 449.836 560.932L446.935 559.73L451.717 556.615C458.159 552.419 459.996 548.463 459.998 538.788C460.001 524.727 454.88 516.128 443.92 511.793C439.47 510.033 435.905 509.586 424 509.296C410.698 508.972 408.922 509.145 402.5 511.38ZM502 510.828C491.777 514.228 487.28 517.649 483.364 525C481.716 528.095 481.5 530.928 481.5 549.5C481.5 573.02 481.778 574.199 488.673 579.882C493.583 583.929 499.966 586 507.529 586C514.682 586 519.189 584.697 523.75 581.311L527 578.898V591.449C527 602.667 526.788 604.212 525 606C523.9 607.1 521.875 608 520.5 608C516.228 608 514 604.744 514 598.5V593H497.5H481V596.818C481 608.22 487.747 617.891 498.512 621.919C507.114 625.137 518.485 626.303 528.242 624.967C543.182 622.921 551.309 618.287 556.551 608.824L559.5 603.5V567V530.5L556.784 525.351C553.486 519.096 548.328 514.673 541 511.813C533.108 508.734 510.046 508.151 502 510.828ZM603 510.374C590.647 513.775 584.165 519.581 581.359 529.759C579.726 535.679 579.5 540.395 579.5 568.5C579.5 605.105 579.771 606.633 587.775 615.19C593.241 621.034 599.858 623.704 611.832 624.896C628.567 626.563 640.4 623.574 648.573 615.617C656.924 607.486 657.182 605.894 656.81 564.788L656.5 530.5L653.416 525C647.469 514.395 635.246 508.95 617.645 509.067C612.065 509.105 605.475 509.692 603 510.374ZM717.108 564.233C712.552 593.53 708.583 618.737 708.287 620.25L707.75 623H725.774H743.797L744.451 615.75C745.653 602.422 745.311 603 751.999 603H757.84L758.549 613L759.258 623H777.066H794.874L794.34 619.75C794.046 617.962 789.681 592.875 784.64 564L775.474 511.5L750.433 511.233L725.391 510.966L717.108 564.233ZM809 567V623H823.987H838.974L839.237 588.388L839.5 553.775L844.369 582.638C847.047 598.512 849.683 614.087 850.226 617.25L851.214 623H862H872.786L873.789 617.25C874.341 614.087 876.751 598.92 879.146 583.544L883.5 555.588L883.763 589.294L884.027 623H899.513H915V567V511H892.567C872.054 511 870.093 511.15 869.651 512.75C869.385 513.712 867.68 524.729 865.863 537.232C864.046 549.734 862.263 559.409 861.902 558.732C861.54 558.054 859.528 547.038 857.43 534.25L853.615 511H831.308H809V567ZM418.571 527.571C417.344 528.799 417 531.422 417 539.548C417 549.589 417.089 550.012 419.541 551.619C421.576 552.952 422.572 553.061 424.541 552.163C426.945 551.068 427 550.787 427 539.557C427 529.224 426.806 527.966 425.066 527.035C422.353 525.583 420.398 525.745 418.571 527.571ZM516.455 528.455C514.049 530.86 514 531.235 514 547.232C514 565.886 514.655 568 520.434 568C525.8 568 526.459 566.282 526.85 551.259C527.043 543.869 526.904 535.843 526.541 533.423C525.421 525.957 521.087 523.822 516.455 528.455ZM614.571 527.571C613.198 528.945 613 533.918 613 567C613 608.466 613.003 608.489 618.853 607.804C623.745 607.232 623.969 605.424 623.985 566.473C623.998 535.467 623.783 530.135 622.443 528.223C620.628 525.63 616.827 525.316 614.571 527.571ZM749.157 554.099C747.924 562.57 746.564 572.538 746.136 576.25L745.358 583H751.246C756.382 583 757.07 582.776 756.625 581.25C756.344 580.288 755.165 570.725 754.005 560C752.846 549.275 751.785 540.095 751.648 539.599C751.511 539.104 750.391 545.629 749.157 554.099ZM416.904 574.75C416.296 576.35 415.993 583.286 416.179 591.333C416.465 603.658 416.711 605.32 418.441 606.583C421.106 608.529 424.365 608.359 426.345 606.171C427.722 604.65 428 601.95 428 590.106C428 582.204 427.539 575.008 426.965 573.934C426.207 572.518 424.861 572 421.94 572C418.508 572 417.804 572.384 416.904 574.75Z" fill="white"/>
</svg>
