<svg width="1944" height="869" viewBox="0 0 1944 869" fill="none" xmlns="http://www.w3.org/2000/svg">
<path d="M1918.76 332.978C1924.92 558.228 1500.4 778.158 970.566 824.208C440.736 870.258 6.2262 724.988 0.0661992 499.748C-6.0938 274.498 418.426 54.5681 948.256 8.51811C1478.09 -37.5319 1912.6 107.738 1918.76 332.978Z" fill="white"/>
<path d="M1904.66 338.218C1904.66 553.908 1482.72 764.278 962.226 808.088C441.736 851.898 19.7961 712.558 19.7961 496.868C19.7961 281.178 441.736 70.8079 962.226 26.9979C1482.72 -16.8121 1904.66 122.528 1904.66 338.218Z" fill="#001532"/>
<path d="M1043.62 544.268L1055.38 508.998H1111.88L1125.27 467.478H1033.9C1021.6 467.478 1010.57 475.028 1006.12 486.488L976.106 563.788C972.246 575.228 980.766 587.078 992.836 587.078H1027.66L1015.06 618.988H960.136L943.566 660.338H1043.28C1053.81 660.338 1063.23 653.818 1066.94 643.968L1094.52 570.738C1099.06 557.808 1089.46 544.268 1075.76 544.268H1043.61H1043.62Z" fill="white"/>
<path d="M1287.84 467.488L1246.89 536.088L1261.76 467.488H1217.59L1178.39 536.088L1193.33 467.488H1134.74L1100.42 660.348H1154.9L1186.27 610.048L1176.11 660.348H1233.56L1348.74 467.488H1287.84Z" fill="white"/>
<path d="M1352.98 618.538L1368.14 582.158H1415.34L1431.19 542.758H1383.29L1396.02 509.418H1444.6L1461.46 467.488H1353.27L1275.01 660.348H1383.9L1400.71 618.538H1352.98Z" fill="white"/>
<path d="M1578.96 467.488H1470.88L1392.62 660.348H1453.08L1485.14 582.158H1503.93L1472.43 660.348H1532.42L1563.25 583.698L1559.71 571.248L1564.56 568.758C1568.37 566.808 1571.35 563.538 1572.95 559.568L1598.41 496.268C1603.95 482.488 1593.81 467.478 1578.96 467.478V467.488ZM1518.48 548.208H1497.26L1516.05 503.348H1536.66L1518.47 548.208H1518.48Z" fill="white"/>
<path d="M945.796 467.488L921.346 526.388L917.386 467.488H869.506L791.236 660.348H848.016L875.886 597.918L879.006 660.348H926.806L1004.37 467.488H945.796Z" fill="white"/>
<path d="M740.926 467.488L627.026 660.348H687.646L707.966 625.808H735.856L725.726 660.348H786.356L821.996 467.488H740.936H740.926ZM744.936 593.068H724.326L756.456 532.448L744.936 593.068Z" fill="white"/>
<path d="M546.096 617.928L561.856 582.768H609.456L626.486 541.548H578.836L592.776 508.808H640.006L657.076 467.488H548.066L468.406 660.348H577.416L594.936 617.928H546.096Z" fill="white"/>
<path d="M478.016 467.488L446.676 543.358H427.276L458.426 467.488H399.226L319.566 660.348H380.666L412.726 582.158H431.526L400.046 660.348H460.016L539.676 467.488H478.016Z" fill="white"/>
<path d="M279.366 508.198L216.116 660.348H277.816L337.556 508.808H374.466L391.536 467.488H259.466L242.646 508.198H279.366Z" fill="white"/>
<path d="M362.566 720.048L324.746 683.078C324.746 683.078 324.536 744.478 324.326 744.698H338.986V714.738L375.956 750.648V690.518H362.566V720.048Z" fill="white"/>
<path d="M483.396 690.589L471.726 717.539L457.446 683.519L443.916 717.659L432.986 690.469H419.076H417.586H384.316V744.599H419.076V731.819H397.846V722.379H419.076V709.589H397.846V703.629H419.076V693.889L444.156 751.429L457.816 719.519L471.106 752.299L499.036 690.589H483.396Z" fill="white"/>
<path d="M524.616 708.468L534.546 701.388C534.546 701.388 529.206 689.588 516.166 689.348C507.976 689.228 497.666 693.568 497.546 704.128C497.426 714.678 505.616 718.278 510.586 720.398C515.556 722.508 520.766 724.368 520.396 728.468C520.766 732.818 509.596 736.538 508.846 723.498L494.936 727.348C494.936 727.348 496.546 745.848 514.306 745.728C529.206 745.848 534.666 735.548 534.546 725.858C534.426 717.168 527.096 713.688 520.516 710.708C513.936 707.728 509.836 706.118 512.196 703.378C514.556 700.648 522.006 704.498 524.616 708.468Z" fill="white"/>
<path d="M1114.01 708.468L1123.94 701.388C1123.94 701.388 1118.6 689.588 1105.56 689.348C1097.37 689.228 1087.06 693.568 1086.94 704.128C1086.82 714.678 1095.01 718.278 1099.98 720.398C1104.95 722.508 1110.16 724.368 1109.79 728.468C1110.16 732.818 1098.99 736.538 1098.24 723.498L1084.33 727.348C1084.33 727.348 1085.94 745.848 1103.7 745.728C1118.6 745.848 1124.06 735.548 1123.94 725.858C1123.82 717.168 1116.49 713.688 1109.91 710.708C1103.33 707.728 1099.23 706.118 1101.59 703.378C1103.95 700.648 1111.4 704.498 1114.01 708.468Z" fill="white"/>
<path d="M546.466 745.838C550.647 745.838 554.036 742.449 554.036 738.268C554.036 734.087 550.647 730.698 546.466 730.698C542.285 730.698 538.896 734.087 538.896 738.268C538.896 742.449 542.285 745.838 546.466 745.838Z" fill="white"/>
<path d="M635.636 689.468C619.166 689.468 605.816 702.158 605.816 717.818C605.816 733.478 619.166 746.168 635.636 746.168C652.106 746.168 665.456 733.478 665.456 717.818C665.456 702.158 652.106 689.468 635.636 689.468ZM635.326 732.448C626.396 732.448 619.166 725.898 619.166 717.818C619.166 709.738 626.406 703.188 635.326 703.188C644.246 703.188 651.486 709.738 651.486 717.818C651.486 725.898 644.246 732.448 635.326 732.448Z" fill="white"/>
<path d="M840.396 689.468C823.926 689.468 810.576 702.158 810.576 717.818C810.576 733.478 823.926 746.168 840.396 746.168C856.866 746.168 870.216 733.478 870.216 717.818C870.216 702.158 856.866 689.468 840.396 689.468ZM840.096 732.448C831.166 732.448 823.936 725.898 823.936 717.818C823.936 709.738 831.176 703.188 840.096 703.188C849.016 703.188 856.256 709.738 856.256 717.818C856.256 725.898 849.016 732.448 840.096 732.448Z" fill="white"/>
<path d="M690.336 690.698H670.836V744.328H684.426V724.608H690.326C698.836 724.608 705.726 717.708 705.726 709.208V706.089C705.726 697.579 698.826 690.688 690.326 690.688L690.336 690.698ZM692.266 708.828C692.266 711.258 690.296 713.228 687.866 713.228H684.426V704.168H687.866C690.296 704.168 692.266 706.138 692.266 708.568V708.828Z" fill="white"/>
<path d="M723.616 690.208H710.026V744.328H723.616V690.208Z" fill="white"/>
<path d="M805.036 690.208H791.446V744.328H805.036V690.208Z" fill="white"/>
<path d="M1142.23 690.208H1128.64V744.328H1142.23V690.208Z" fill="white"/>
<path d="M1019.11 690.208H1005.52V744.328H1019.11V690.208Z" fill="white"/>
<path d="M769.136 720.518L731.686 682.258V744.328C732.226 744.518 746.146 744.328 746.146 744.328V715.068L782.716 750.838V690.208H769.136V720.528V720.518Z" fill="white"/>
<path d="M914.186 720.518L876.056 682.258V744.328C876.596 744.518 890.516 744.328 890.516 744.328V715.068L927.776 750.838V690.208H914.196V720.528L914.186 720.518Z" fill="white"/>
<path d="M1065.12 720.518L1026.99 682.258V744.328C1027.53 744.518 1041.45 744.328 1041.45 744.328V715.068L1078.71 750.838V690.208H1065.13V720.528L1065.12 720.518Z" fill="white"/>
<path d="M944.476 745.818C948.734 745.818 952.186 742.367 952.186 738.108C952.186 733.85 948.734 730.398 944.476 730.398C940.218 730.398 936.766 733.85 936.766 738.108C936.766 742.367 940.218 745.818 944.476 745.818Z" fill="white"/>
<path d="M1302.26 745.818C1306.51 745.818 1309.97 742.367 1309.97 738.108C1309.97 733.85 1306.51 730.398 1302.26 730.398C1298 730.398 1294.55 733.85 1294.55 738.108C1294.55 742.367 1298 745.818 1302.26 745.818Z" fill="white"/>
<path d="M1239.6 709.648H1223.73V690.208H1210.14V744.328H1223.73V722.208H1239.6V744.328H1253.19V690.208H1239.6V709.648Z" fill="white"/>
<path d="M1256.09 703.368H1268.17V744.328H1281.37V703.368H1293.61V690.208H1256.09V703.368Z" fill="white"/>
<path d="M1177.52 727.108L1188.75 726.758C1187.01 729.658 1185.39 731.968 1178.39 732.318C1169.52 732.758 1162.3 725.738 1162.3 717.618C1162.3 709.498 1169.5 702.918 1178.39 702.918C1184.66 702.918 1190.09 706.198 1192.75 710.978L1203.21 703.598C1199.02 695.488 1190.57 690.068 1177.39 689.818C1161.4 689.518 1148.44 702.258 1148.44 717.598C1148.44 732.938 1161.4 745.378 1177.39 745.378C1189.47 745.598 1198.28 740.038 1202.83 731.788C1203.51 730.548 1203.86 729.158 1203.86 727.748V713.658H1177.53V727.098L1177.52 727.108Z" fill="white"/>
<path d="M783.756 163.048L717.276 238.868L707.456 163.048H615.646L503.636 453.208L554.446 163.048H430.946L260.616 453.688H367.696L394.366 405.388H413.246L405.316 453.688H602.896L646.796 344.918L659.146 399.868L709.436 349.968L669.906 453.688H770.406L882.066 163.048H783.746H783.756ZM491.366 439.158H422.446L430.376 390.858H385.816L359.146 439.158H285.996L439.296 177.568H537.176L491.366 439.158ZM760.446 439.158H691.016L747.006 292.248L667.586 371.048L650.776 296.288L593.116 439.158H524.646L625.626 177.568H694.696L707.006 272.618L790.346 177.568H860.946L760.446 439.158Z" fill="white"/>
<path d="M401.946 355.798H440.656L466.796 237.148H463.276L401.946 355.798Z" fill="white"/>
<path d="M1112.91 262.749C1112.91 251.989 1108.58 241.889 1101.37 234.449C1097.76 230.729 1093.4 227.659 1088.49 225.529C1083.58 223.389 1078.09 222.199 1072.31 222.199H1007.47L1029.92 171.509H1136.9L1172.05 83.8887H937.166L844.986 308.499H968.736L946.846 360.499H837.456L798.856 450.739H997.266C1022.67 450.739 1045.55 435.379 1055.17 411.869L1109.87 278.129C1111.94 273.059 1112.92 267.839 1112.92 262.749H1112.91ZM1096.41 272.639L1041.71 406.379C1034.33 424.429 1016.76 436.229 997.256 436.229H820.866L847.036 375.039H956.486L990.616 293.989H866.646L946.906 98.4287H1150.57L1127.07 156.989H1020.46L985.136 236.729H1072.31C1076.1 236.729 1079.57 237.499 1082.7 238.859C1087.39 240.889 1091.32 244.289 1094.08 248.479C1096.84 252.669 1098.39 257.629 1098.39 262.749C1098.39 265.989 1097.78 269.309 1096.42 272.629L1096.41 272.639Z" fill="white"/>
<path d="M1396.79 250.988C1396.79 237.208 1391.25 224.258 1381.99 214.718C1377.36 209.948 1371.78 206.018 1365.48 203.278C1359.18 200.538 1352.16 199.008 1344.74 199.008H1275.7L1287.73 171.518H1412.19L1447.34 83.8984H1258.61C1220.09 83.8984 1185.36 107.108 1170.64 142.708L1074.07 376.158C1071.25 382.968 1069.92 389.988 1069.92 396.818C1069.92 411.108 1075.67 424.548 1085.28 434.458C1090.09 439.408 1095.87 443.488 1102.41 446.328C1108.94 449.168 1116.23 450.758 1123.93 450.758H1254.15C1293.08 450.758 1328.16 427.288 1343.03 391.318L1392.8 270.888C1395.51 264.328 1396.79 257.568 1396.79 250.988ZM1379.38 265.338L1329.61 385.768C1316.99 416.308 1287.2 436.228 1254.15 436.228H1123.93C1118.21 436.228 1112.94 435.068 1108.19 433.008C1101.07 429.918 1095.13 424.778 1090.96 418.438C1086.8 412.098 1084.44 404.598 1084.44 396.828C1084.44 391.868 1085.39 386.778 1087.48 381.718L1184.05 148.268C1196.53 118.108 1225.96 98.4285 1258.6 98.4285H1425.85L1402.35 156.988H1278.21L1253.47 213.528H1344.72C1350.16 213.528 1355.17 214.638 1359.68 216.588C1366.44 219.518 1372.09 224.408 1376.05 230.438C1380.01 236.468 1382.25 243.588 1382.25 250.978C1382.25 255.688 1381.35 260.518 1379.36 265.328L1379.38 265.338Z" fill="white"/>
<path d="M1696.26 101.718C1689.89 95.1584 1682.23 89.7584 1673.58 86.0084C1664.93 82.2484 1655.3 80.1484 1645.07 80.1484H1554.25C1508.24 80.1484 1466.72 107.758 1448.93 150.188L1362.58 356.108C1359.08 364.438 1357.4 372.998 1357.41 381.388C1357.41 391.108 1359.66 400.568 1363.79 409.248C1369.99 422.268 1380.39 433.508 1393.8 441.558C1407.22 449.608 1423.67 454.468 1442.03 454.768H1442.09H1442.15H1508.14C1561.65 454.768 1609.89 422.568 1630.42 373.148L1711.06 179.018C1714.83 169.948 1716.6 160.638 1716.59 151.558C1716.59 132.648 1708.98 114.838 1696.25 101.718H1696.26ZM1697.65 173.438L1617.01 367.568C1598.74 411.558 1555.78 440.228 1508.14 440.228H1442.24C1420.99 439.868 1403.35 432.528 1391.08 421.628C1384.94 416.168 1380.15 409.828 1376.9 402.998C1373.65 396.168 1371.93 388.868 1371.93 381.388C1371.93 374.928 1373.21 368.328 1375.97 361.728L1462.32 155.808C1477.85 118.778 1514.09 94.6785 1554.24 94.6785H1645.06C1653.29 94.6785 1660.92 96.3584 1667.78 99.3384C1678.07 103.798 1686.64 111.228 1692.65 120.368C1698.65 129.508 1702.06 140.328 1702.06 151.568C1702.06 158.768 1700.67 166.148 1697.64 173.448L1697.65 173.438Z" fill="white"/>
<path d="M1597 148.978C1595.76 147.698 1594.25 146.628 1592.54 145.888C1590.83 145.148 1588.92 144.728 1586.95 144.738H1566.41C1560.73 144.738 1555.61 148.168 1553.44 153.418L1553.42 153.468L1466.86 371.808C1466.16 373.528 1465.82 375.348 1465.82 377.108C1465.82 380.888 1467.33 384.378 1469.83 386.958C1471.08 388.248 1472.6 389.318 1474.33 390.068C1476.05 390.818 1477.98 391.228 1479.96 391.228H1502.63C1508.4 391.228 1513.59 387.718 1515.74 382.368L1515.76 382.318L1600 163.898C1600.66 162.228 1600.99 160.468 1600.98 158.758C1600.98 154.998 1599.48 151.538 1597 148.978ZM1502.36 376.698H1480.54L1566.75 159.258H1586.22L1502.36 376.698Z" fill="white"/>
<path d="M1276.1 257.838C1274.81 257.278 1273.35 256.968 1271.88 256.968H1242.24C1237.46 256.968 1233.16 259.868 1231.38 264.308L1188.96 369.638C1188.51 370.738 1188.29 371.918 1188.29 373.068C1188.29 375.538 1189.27 377.788 1190.88 379.458C1191.69 380.298 1192.68 380.988 1193.8 381.478C1194.92 381.968 1196.18 382.238 1197.45 382.238H1229.21C1233.99 382.238 1238.29 379.338 1240.07 374.898L1281.7 271.528C1282.21 270.258 1282.47 268.888 1282.47 267.568C1282.47 264.718 1281.34 262.118 1279.47 260.188C1278.53 259.218 1277.39 258.418 1276.09 257.858L1276.1 257.838ZM1227.32 367.688H1205.4L1244.14 271.488H1266.06L1227.32 367.688Z" fill="white"/>
</svg>
