<svg width="1090" height="1090" viewBox="0 0 1090 1090" fill="none" xmlns="http://www.w3.org/2000/svg">
<path d="M87.6578 422.282C388.966 422.38 701.742 422.282 1003.06 422.315C1044.24 422.315 1074.02 447.26 1074.02 475.147C1073.99 552.826 1073.99 630.216 1073.99 708.146C1073.99 732.545 1052.61 759.899 1009.5 759.899C815.135 760.226 378.039 760.062 378.039 760.062L102.607 971.686V760.264C102.607 760.264 89.9686 760.264 81.1232 760.264C43.5727 760.264 15.3199 737.75 15.3199 707.89C15.2872 630.309 15.2872 557.938 15.3199 480.363C15.3254 445.254 43.5128 422.282 87.6578 422.282ZM58.4022 478.357C58.4349 553.84 58.4349 629.29 58.4022 704.739C58.4022 717.994 69.0678 726.638 79.7117 726.638C102.209 726.638 145.624 726.965 145.624 726.965V892.105L360.534 726.899C360.534 726.899 788.817 726.899 1002.96 727.03C1017.57 727.03 1030.62 720.212 1030.62 705.257C1030.81 627.747 1030.75 556.712 1030.65 479.202C1030.65 461.528 1020.05 455.179 1003.15 455.179C704.069 454.95 380.557 455.179 81.4775 455.048C65.0512 455.048 58.4022 467.986 58.4022 478.357Z" fill="#001532"/>
<path d="M1074.05 35.2124H15.26L15.3908 417.606C15.3908 417.606 36.9728 388.672 79.3847 388.672C387.179 388.672 694.968 388.738 1002.76 388.574C1050.51 388.574 1073.89 417.574 1073.89 417.574L1074.05 35.2124Z" fill="#001532"/>
<path d="M248.738 188.058V304.05C248.738 309.74 246.82 314.574 242.983 318.552C239.146 322.536 234.241 324.52 228.273 324.52C222.583 324.52 217.826 322.536 213.989 318.552C210.152 314.574 208.234 309.745 208.234 304.05V188.483C208.234 171.713 204.397 158.355 196.718 148.398C189.044 138.452 176.526 133.47 159.189 133.47C147.815 133.47 137.509 135.961 128.277 140.932C119.033 145.907 111.785 152.595 106.526 160.977C101.261 169.364 98.6341 178.537 98.6341 188.483V304.05C98.6341 309.74 96.7157 314.574 92.8789 318.552C89.0421 322.536 84.1371 324.52 78.1694 324.52C72.1962 324.52 67.362 322.602 63.6669 318.765C59.9664 314.928 58.1243 310.023 58.1243 304.05V121.53C58.1243 115.845 60.0427 111.016 63.8795 107.027C67.7163 103.049 72.4741 101.059 78.1639 101.059C84.1317 101.059 89.0367 103.049 92.8735 107.027C96.7103 111.011 98.6287 115.845 98.6287 121.53V136.457C106.019 125.088 116.325 115.496 129.547 107.67C142.763 99.8549 156.906 95.9418 171.975 95.9418C223.156 95.9418 248.738 126.647 248.738 188.058Z" fill="#A7E4FF"/>
<path d="M499.057 217.27C495.073 220.828 490.38 222.6 484.985 222.6H334.875C336.859 243.353 344.751 259.987 358.545 272.494C372.333 285.008 389.174 291.259 409.077 291.259C422.724 291.259 433.815 289.275 442.338 285.291C450.868 281.313 458.394 276.195 464.94 269.938C469.201 267.377 473.322 266.102 477.306 266.102C482.134 266.102 486.184 267.807 489.459 271.219C492.724 274.631 494.364 278.615 494.364 283.16C494.364 289.128 491.519 294.534 485.835 299.363C477.584 307.614 466.645 314.574 452.999 320.258C439.352 325.943 425.416 328.788 411.208 328.788C388.182 328.788 367.924 323.959 350.441 314.291C332.957 304.628 319.452 291.123 309.931 273.781C300.404 256.444 295.646 236.824 295.646 214.932C295.646 191.05 300.551 170.089 310.356 152.033C320.16 133.983 333.099 120.123 349.165 110.455C365.221 100.792 382.492 95.9526 400.978 95.9526C419.17 95.9526 436.229 100.645 452.154 110.025C468.073 119.404 480.864 132.342 490.533 148.829C500.196 165.32 505.171 183.796 505.46 204.266C505.166 209.378 503.035 213.716 499.057 217.27ZM359.607 146.905C347.95 155.859 340.271 169.718 336.581 188.483H462.384V185.071C460.956 170.007 454.209 157.641 442.126 147.973C430.038 138.31 416.326 133.47 400.973 133.47C385.048 133.47 371.265 137.95 359.607 146.905Z" fill="#A7E4FF"/>
<path d="M827.201 104.689C831.038 108.526 832.956 113.431 832.956 119.404C832.956 121.393 832.384 124.091 831.25 127.508L766.003 311.729C764.297 316.28 761.452 319.691 757.474 321.964C753.49 324.242 749.223 325.087 744.683 324.526C737.009 323.959 731.178 319.697 727.199 311.734L682.847 195.742L641.907 311.734C640.201 315.718 637.781 318.77 634.658 320.901C631.524 323.032 628.113 324.248 624.423 324.526C620.161 325.092 615.959 324.171 611.844 321.752C607.719 319.337 604.945 315.996 603.528 311.729L537.436 127.503C536.58 124.941 536.155 122.243 536.155 119.399C536.155 113.714 538.002 108.885 541.703 104.896C545.393 100.918 550.232 98.9283 556.2 98.9283C565.863 98.9283 572.119 103.19 574.964 111.719L625.709 255.431L666.219 149.248C669.631 140.719 675.882 136.457 684.983 136.457C693.513 136.457 699.339 140.719 702.467 149.248L743.832 253.725L793.727 111.725C796.856 103.196 803.39 98.9338 813.347 98.9338C818.737 98.9283 823.364 100.847 827.201 104.689Z" fill="#A7E4FF"/>
<path d="M858.113 278.037C858.113 272.353 861.1 267.524 867.068 263.54C869.907 261.551 873.177 260.554 876.878 260.554C881.995 260.554 886.682 262.685 890.95 266.952C899.479 276.62 908.646 283.869 918.456 288.697C928.26 293.537 939.989 295.946 953.636 295.946C964.437 295.668 973.959 293.172 982.204 288.485C990.45 283.792 994.571 276.19 994.571 265.671C994.571 256.008 990.374 248.613 981.992 243.495C973.599 238.378 961.309 233.685 945.101 229.423C929.176 225.161 915.96 220.681 905.441 215.989C894.917 211.302 886.039 204.479 878.785 195.519C871.537 186.564 867.912 174.836 867.912 160.339C867.912 147.548 871.537 136.315 878.785 126.653C886.034 116.99 895.697 109.452 907.779 104.051C919.862 98.6559 933.007 95.9473 947.226 95.9473C960.873 95.9473 974.444 98.5088 987.949 103.626C1001.45 108.744 1012.47 116.565 1021 127.078C1024.41 131.062 1026.12 135.182 1026.12 139.444C1026.12 143.994 1023.84 148.398 1019.29 152.665C1016.45 155.221 1012.89 156.502 1008.63 156.502C1003.51 156.502 999.383 154.796 996.26 151.385C990.287 144.561 982.967 139.302 974.296 135.607C965.626 131.917 956.028 130.064 945.515 130.064C934.708 130.064 925.541 132.272 918.009 136.675C910.477 141.084 906.711 148.551 906.711 159.064C906.994 169.015 911.327 176.406 919.72 181.24C928.102 186.074 940.97 190.766 958.312 195.312C973.375 199.296 985.883 203.563 995.835 208.108C1005.78 212.659 1014.17 219.406 1021 228.366C1027.82 237.32 1031.23 249.049 1031.23 263.546C1031.23 276.909 1027.4 288.49 1019.72 298.3C1012.04 308.11 1002.02 315.648 989.655 320.901C977.289 326.161 964.138 328.793 950.207 328.793C932.299 328.793 915.731 325.659 900.531 319.414C885.32 313.162 872.452 303.211 861.939 289.564C859.394 285.569 858.113 281.732 858.113 278.037Z" fill="#A7E4FF"/>
<path d="M299.537 492.942C303.794 495.972 305.93 499.95 305.93 504.872C305.93 509.799 303.794 513.728 299.537 516.66C295.27 519.598 289.755 521.064 282.986 521.064H223.935V669.936C223.935 674.863 221.548 678.983 216.79 682.296C212.021 685.61 206.13 687.267 199.11 687.267C192.085 687.267 186.319 685.61 181.806 682.296C177.294 678.983 175.038 674.863 175.038 669.936V521.069H115.981C109.212 521.069 103.692 519.554 99.4297 516.524C95.1678 513.499 93.0369 509.521 93.0369 504.588C93.0369 499.858 95.2278 495.972 99.6205 492.942C104.008 489.911 109.458 488.396 115.981 488.396H282.991C289.76 488.396 295.27 489.917 299.537 492.942Z" fill="#00315F"/>
<path d="M535.005 671.925C535.005 676.852 532.874 680.874 528.612 683.997C524.344 687.125 519.456 688.684 513.94 688.684C509.428 688.684 505.346 687.643 501.716 685.561C498.081 683.479 495.258 680.64 493.252 677.037L473.692 642.664H361.602L342.047 677.321C340.287 680.923 337.589 683.713 333.96 685.703C330.324 687.692 326.373 688.684 322.111 688.684C315.588 688.684 310.639 687.359 307.255 684.705C303.87 682.057 302.181 678.454 302.181 673.909C302.181 672.203 302.557 670.404 303.309 668.508L396.967 498.615C398.973 494.827 401.981 491.895 405.992 489.808C410.003 487.726 414.516 486.876 419.535 487.252C424.048 487.252 428.245 488.244 432.136 490.233C436.022 492.222 438.845 495.018 440.6 498.615L533.13 665.096C534.378 667.57 535.005 669.843 535.005 671.925ZM380.034 609.991H455.266L417.274 543.512L380.034 609.991Z" fill="#00315F"/>
<path d="M728.529 658.714C732.916 661.843 735.112 665.865 735.112 670.786C735.112 675.522 732.916 679.452 728.529 682.58C724.141 685.703 718.686 687.267 712.168 687.267H589.919C583.395 687.267 577.94 685.61 573.558 682.296C569.171 678.983 566.974 674.863 566.974 669.936V505.727C566.974 500.806 569.231 496.686 573.743 493.367C578.256 490.053 584.022 488.396 591.047 488.396C597.315 488.396 602.71 490.053 607.223 493.367C611.735 496.686 613.992 500.801 613.992 505.727V654.027H712.168C718.686 654.027 724.141 655.591 728.529 658.714Z" fill="#00315F"/>
<path d="M983.741 663.26C984.739 665.44 985.246 667.478 985.246 669.369C985.246 674.481 982.673 678.743 977.534 682.155C972.389 685.566 966.438 687.267 959.669 687.267C956.404 687.267 953.27 686.7 950.262 685.561C947.254 684.422 944.747 682.82 942.741 680.732L861.116 599.478L825.386 625.328V669.936C825.386 675.048 823.184 679.217 818.803 682.433C814.41 685.654 808.704 687.261 801.69 687.261C794.921 687.261 789.334 685.605 784.947 682.291C780.56 678.977 778.364 674.857 778.364 669.93V505.727C778.364 500.806 780.62 496.686 785.132 493.367C789.645 490.053 795.411 488.396 802.436 488.396C809.205 488.396 814.72 490.01 818.982 493.225C823.244 496.451 825.381 500.61 825.381 505.727V583.003L945.744 493.508C951.51 489.154 957.652 486.974 964.176 486.974C969.942 486.974 974.831 488.778 978.847 492.369C982.858 495.966 984.864 499.754 984.864 503.733C984.864 507.711 982.608 511.401 978.095 514.812L896.094 573.907L979.975 657.717C981.485 659.237 982.733 661.085 983.741 663.26Z" fill="#00315F"/>
<path d="M462.563 946.349C462.356 947.559 462.258 949.177 462.258 951.194C462.258 956.039 463.419 959.674 465.741 962.099C468.057 964.525 471.038 965.735 474.673 965.735C482.549 965.735 489.824 961.849 496.484 954.072C503.15 946.3 508.496 936.201 512.54 923.78C516.578 911.36 518.595 898.689 518.595 885.761C518.595 871.629 515.265 859.16 508.6 848.352C501.934 837.556 492.44 829.168 480.123 823.212C467.801 817.26 453.467 814.279 437.112 814.279C411.257 814.279 387.833 819.429 366.834 829.73C345.824 840.025 329.273 854.92 317.152 874.409C305.037 893.898 298.982 916.87 298.982 943.324C298.982 958.677 302.11 973.01 308.372 986.336C314.629 999.666 324.428 1010.47 337.753 1018.75C351.084 1027.03 367.842 1031.17 388.04 1031.17C403.382 1031.17 415.906 1029.7 425.602 1026.77C435.292 1023.84 445.489 1019.35 456.198 1013.3C458.416 1012.09 460.334 1011.48 461.953 1011.48C465.991 1011.48 469.022 1014 471.044 1019.05C471.649 1020.26 471.954 1021.48 471.954 1022.69C471.954 1027.12 468.117 1031.36 460.438 1035.41C448.115 1041.66 436.709 1046.46 426.206 1049.8C415.704 1053.13 402.984 1054.79 388.04 1054.79C362.191 1054.79 340.783 1049.54 323.823 1039.04C306.857 1028.54 294.442 1014.86 286.561 997.999C278.686 981.142 274.751 962.911 274.751 943.319C274.751 912.624 281.912 885.718 296.257 862.593C310.596 839.474 330.079 821.697 354.719 809.281C379.353 796.861 406.821 790.653 437.117 790.653C459.332 790.653 478.412 794.893 494.37 803.374C510.322 811.859 522.394 823.272 530.569 837.605C538.749 851.949 542.836 868 542.836 885.767C542.836 902.733 539.507 919.142 532.841 934.991C526.176 950.845 516.682 963.822 504.365 973.915C492.042 984.014 477.807 989.061 461.653 989.061C453.369 989.061 445.946 986.744 439.385 982.095C432.823 977.452 428.73 971.49 427.117 964.225C417.617 980.782 402.679 989.061 382.285 989.061C374.606 989.061 367.292 987.044 360.321 983.006C353.356 978.967 347.754 973.114 343.508 965.435C339.268 957.761 337.148 948.981 337.148 939.079C337.148 926.358 340.429 913.137 346.996 899.397C353.558 885.663 362.447 874.207 373.652 865.013C384.857 855.824 396.826 851.23 409.546 851.23C416.407 851.23 422.62 853.099 428.174 856.833C433.727 860.571 437.913 865.765 440.747 872.431L441.957 864.25C442.562 861.024 444.23 858.195 446.955 855.77C449.68 853.345 453.565 852.135 458.618 852.135C469.523 852.135 474.973 856.478 474.973 865.16C474.973 867.182 474.87 868.795 474.668 870.005L462.563 946.349ZM434.992 901.817C434.992 893.538 432.768 887.582 428.332 883.946C423.885 880.311 418.13 878.491 411.066 878.491C403.387 878.491 396.471 881.625 390.318 887.881C384.154 894.143 379.413 901.964 376.083 911.36C372.747 920.75 371.085 929.786 371.085 938.468C371.085 946.147 372.905 951.946 376.541 955.886C380.176 959.827 385.222 961.794 391.686 961.794C398.144 961.794 404.052 959.827 409.41 955.886C414.756 951.946 419.203 947.205 422.735 941.651C426.266 936.097 428.741 930.898 430.158 926.053C433.379 916.358 434.992 908.281 434.992 901.817Z" fill="#001532"/>
<path d="M834.673 785.835C760.498 785.835 700.336 845.965 700.336 920.172C700.336 994.347 760.498 1054.51 834.673 1054.51C908.88 1054.51 969.01 994.347 969.01 920.172C969.01 845.971 908.88 785.835 834.673 785.835ZM833.959 985.453C797.918 985.453 768.679 956.213 768.679 920.172C768.679 884.099 797.918 854.892 833.959 854.892C870.033 854.892 899.239 884.099 899.239 920.172C899.239 956.213 870.033 985.453 833.959 985.453Z" fill="#00315F"/>
<path d="M1074.74 816.884C1074.74 831.408 1062.96 843.186 1048.44 843.186H986.276C971.751 843.186 959.974 831.408 959.974 816.884C959.974 802.36 971.751 790.582 986.276 790.582H1048.44C1062.96 790.582 1074.74 802.36 1074.74 816.884Z" fill="#00315F"/>
<path d="M1034.1 790.582C1019.58 790.582 1007.8 802.469 1007.8 817.129V843.676V1023.71C1007.8 1038.37 1019.58 1050.25 1034.1 1050.25H1048.44C1062.96 1050.25 1074.74 1038.37 1074.74 1023.71V843.676V817.129C1074.74 802.469 1062.96 790.582 1048.44 790.582H1034.1Z" fill="#00315F"/>
<path d="M674.672 816.884C674.672 831.408 662.894 843.186 648.37 843.186H586.207C571.683 843.186 559.906 831.408 559.906 816.884C559.906 802.36 571.683 790.582 586.207 790.582H648.37C662.894 790.582 674.672 802.36 674.672 816.884Z" fill="#00315F"/>
<path d="M634.031 790.582C619.507 790.582 607.729 802.469 607.729 817.129V843.676V1023.71C607.729 1038.37 619.507 1050.25 634.031 1050.25H648.37C662.894 1050.25 674.672 1038.37 674.672 1023.71V843.676V817.129C674.672 802.469 662.894 790.582 648.37 790.582H634.031Z" fill="#00315F"/>
</svg>
