<svg width="1434" height="1129" viewBox="0 0 1434 1129" fill="none" xmlns="http://www.w3.org/2000/svg">
<path d="M810.126 105.591L873.093 223.608L894.301 197.048L955.553 284.86L890.871 154L874.375 172.844L810.126 105.591Z" fill="white"/>
<path d="M879.094 0L904.148 81.8191L921.502 68.7514L951.483 133.433L925.356 39.6196L911.431 48.6171L879.094 0Z" fill="white"/>
<path d="M1201.65 207.969L1298.04 150.354L1299.96 168.99L1367.43 151.636L1279.18 202.184L1276.19 176.273L1201.65 207.969Z" fill="white"/>
<path d="M1144.46 342.475L1286.68 249.311L1291.39 278.435L1394.41 247.164L1262.9 330.056L1258.83 291.286L1144.46 342.475Z" fill="white"/>
<path d="M1086.9 249.896C1086.9 249.896 1103.45 212.624 1104.41 207.808C1105.37 202.985 1102.97 198.811 1102.97 198.811C1102.97 198.811 1094.13 221.141 1083.53 244.271C1072.93 267.402 1057.99 272.866 1049.69 273.027C1041.39 273.187 1041.44 265.96 1041.44 265.96C1053.97 258.252 1062.81 238.975 1062.81 238.975C1081.29 252.628 1082.89 238.174 1082.89 238.174C1077.42 241.868 1072.29 239.785 1069.72 238.174C1067.14 236.572 1059.92 233.03 1044.33 225.323C1028.75 217.615 1004.5 217.455 1000.8 216.486C997.111 215.524 996.15 213.593 996.951 209.739C997.752 205.886 995.99 203.314 1014.79 206.366C1033.58 209.419 1058.32 221.149 1063.94 223.712C1069.56 226.284 1071.97 215.845 1071.97 215.845C1071.97 215.845 1079.84 222.27 1086.42 222.11C1093.01 221.95 1092.53 215.364 1092.53 215.364C1089.31 217.776 1086.58 217.295 1081.93 216.165C1077.27 215.043 1066.34 208.457 1053.97 202.833C1041.6 197.209 1019.27 193.355 1012.69 193.355C1006.1 193.355 1005.46 189.341 1007.38 185.647C1009.31 181.954 1015.41 181.473 1035.66 185.327C1055.9 189.18 1070.36 198.979 1074.53 200.269C1078.71 201.551 1081.28 192.401 1081.28 192.401C1081.28 192.401 1089.63 197.705 1095.09 198.346C1100.55 198.987 1101.2 192.241 1101.2 192.241C1098.62 197.056 1090.44 192.722 1086.25 191.119C1082.08 189.509 1075.81 184.053 1060.55 177.627C1045.29 171.201 1022.8 172.163 1022.8 172.163C1022.8 172.163 1014.28 170.721 1014.28 166.699C1014.28 162.685 1017.33 160.914 1037.57 161.875C1057.81 162.837 1081.43 175.688 1084.31 176.658C1087.21 177.619 1088.81 176.017 1088.81 176.017L1100.38 147.742C1100.38 147.742 1101.18 146.3 1103.43 147.101C1105.68 147.902 1107.28 151.756 1114.67 151.924C1122.06 152.085 1120.3 146.14 1120.3 146.14C1115.48 149.032 1109.38 145.499 1109.38 145.499C1109.38 145.499 1096.85 139.073 1086.89 133.449C1076.93 127.824 1044.96 127.343 1040.78 127.664C1036.61 127.984 1034.04 126.863 1034.36 121.078C1034.68 115.293 1040.62 116.263 1040.62 116.263C1040.62 116.263 1051.55 114.652 1071.79 117.224C1092.03 119.796 1101.19 129.915 1104.4 131.037C1107.61 132.159 1110.35 122.6 1110.35 122.6C1110.35 122.6 1114.84 127.015 1121.11 129.106C1127.37 131.197 1131.39 122.6 1131.39 122.6C1128.65 125.252 1123.36 125.413 1119.66 124.451C1115.96 123.49 1110.18 116.904 1095.72 109.837C1081.27 102.771 1055.89 105.182 1049.67 105.607C1043.46 106.031 1042.71 102.45 1042.71 98.9167C1042.71 95.3834 1046.24 93.6127 1046.24 93.6127C1046.24 93.6127 1054.6 91.8421 1075.8 93.773C1097.01 95.7039 1108.89 105.014 1113.55 106.785C1118.21 108.555 1120.94 99.2372 1120.94 99.2372C1120.94 99.2372 1129.45 105.503 1133.31 106.464C1137.16 107.426 1141.02 100.199 1141.02 100.199C1136.36 104.213 1130.58 101.969 1125.91 97.9473C1121.26 93.9332 1102.14 84.455 1095.56 83.0048C1088.97 81.5626 1061.18 81.7229 1057.32 81.7229C1053.47 81.7229 1052.34 81.4024 1052.83 76.5791C1053.31 71.7559 1061.02 70.6342 1061.02 70.6342C1061.02 70.6342 1064.24 71.4354 1083.83 70.9547C1103.43 70.4739 1119.66 82.0353 1124.64 83.4855C1129.62 84.9357 1131.55 73.206 1132.35 68.2225C1133.15 63.239 1133.15 51.3572 1122.55 50.556C1111.95 49.7548 1106 64.2085 1104.23 66.7243C1102.46 69.2401 1099.9 69.184 1099.9 69.184C1099.9 69.184 1094.43 67.5736 1092.03 66.7243C1089.62 65.867 1091.23 63.2471 1091.23 63.2471C1091.23 63.2471 1092.51 60.515 1098.62 50.556C1104.72 40.597 1119.82 39.6355 1119.82 39.6355L1120.62 36.7432C1100.23 33.3701 1088.82 54.0893 1087.86 55.3792C1086.89 56.6612 1085.92 57.7909 1084.48 57.3101C1083.04 56.8294 1082.07 56.8294 1084.32 51.3652C1086.57 45.901 1100.23 33.3701 1100.23 33.3701C1084.32 35.4613 1076.29 54.0893 1076.29 54.0893C1076.29 54.0893 1074.52 57.1419 1072.28 56.9816C1070.03 56.8214 1069.55 56.0202 1072.12 50.0752C1074.69 44.1303 1086.41 33.3701 1086.41 33.3701C1074.52 33.6906 1062.8 55.219 1061.99 56.3407C1061.19 57.4624 1060.38 58.4318 1058.46 58.1113C1056.53 57.7909 1056.21 57.7909 1057.5 53.4563C1058.78 49.1218 1072.6 33.3781 1072.6 33.3781C1062.16 33.5384 1049.95 55.0667 1049.47 55.5475C1048.99 56.0282 1048.19 57.7989 1046.74 57.7989C1045.3 57.7989 1043.36 57.7989 1044.65 54.2655C1045.93 50.7322 1059.27 34.8283 1059.27 34.8283C1044.98 37.2399 1035.82 56.0362 1035.98 55.3872C1036.14 54.7463 1032.44 61.0117 1031.15 58.7603C1029.87 56.5089 1037.04 42.6962 1037.04 42.6962C1027.65 45.909 1018.3 64.8655 1017.5 68.7193C1016.7 72.5731 1019.43 72.5731 1019.43 72.5731C1019.43 72.5731 1031.8 73.5345 1032.6 73.3743C1033.41 73.214 1037.75 73.855 1036.94 78.6783C1036.14 83.5015 1031.64 84.3027 1031.64 84.3027C1031.64 84.3027 1017.82 84.3027 1013.64 84.3027C1009.46 84.3027 1008.02 86.3939 1008.02 90.8886C1008.02 95.3834 1019.26 94.5822 1022.31 94.5822C1025.36 94.5822 1028.09 96.5131 1027.77 100.687C1027.45 104.862 1022.63 104.838 1022.63 104.838C1022.63 104.838 1007.05 105.022 1005.28 104.862C1003.51 104.701 1000.47 105.182 999.659 110.326C998.858 115.47 1006.57 116.111 1010.58 115.95C1014.59 115.79 1018.78 115.79 1018.94 121.895C1019.1 128 1002.07 126.23 996.927 125.909C991.783 125.589 991.783 128.962 990.982 131.534C990.181 134.106 991.142 135.067 994.996 135.548C998.85 136.029 1001.42 138.761 1000.78 142.134C1000.14 145.507 995.156 146.957 992.264 146.468C989.372 145.988 984.068 145.667 982.145 151.452C980.214 157.236 989.051 158.198 991.943 158.358C994.836 158.518 1004.15 160.61 1001.1 165.905C998.049 171.209 988.891 168.798 982.305 167.187C975.719 165.577 973.788 167.989 972.987 173.773C972.186 179.558 981.984 179.077 986.639 179.878C991.294 180.68 992.905 182.45 991.783 185.984C990.662 189.517 985.838 190.478 985.838 190.478C985.838 190.478 975.078 189.197 970.327 188.227C965.576 187.266 965.279 190.318 963.669 194.172C962.066 198.026 966.561 198.667 966.561 198.667C966.561 198.667 973.948 200.598 977.161 201.239C980.374 201.88 982.625 203.009 982.305 207.504C981.984 211.999 977.594 211.839 977.594 211.839L958.317 209.699C949.912 248.838 980.534 263.885 984.556 265.175C988.57 266.457 1018.13 275.775 1045.6 277.225C1073.09 278.651 1086.9 249.896 1086.9 249.896ZM1062.72 210.06C1064.72 210.06 1066.34 211.678 1066.34 213.673C1066.34 215.668 1064.72 217.287 1062.72 217.287C1060.73 217.287 1059.11 215.668 1059.11 213.673C1059.11 211.678 1060.73 210.06 1062.72 210.06ZM1055.25 211.502C1039.37 204.604 1019.75 202.665 1019.75 202.665C1040.8 198.17 1055.25 211.502 1055.25 211.502ZM1072.2 187.57C1074.02 187.57 1075.49 189.044 1075.49 190.863C1075.49 192.682 1074.02 194.156 1072.2 194.156C1070.38 194.156 1068.91 192.682 1068.91 190.863C1068.91 189.044 1070.38 187.57 1072.2 187.57ZM1065.53 187.57C1045.41 180.263 1030.03 179.862 1030.03 179.862C1053.81 176.481 1065.53 187.57 1065.53 187.57ZM1039.35 155.306C1039.35 155.306 1061.68 153.351 1075.49 163.63C1075.49 163.63 1059.92 159.672 1039.35 155.306ZM1080.32 169.415C1079.9 169.126 1078.23 168.133 1079.52 165.561C1080.8 162.989 1084.17 163.959 1085.78 165.561C1087.38 167.171 1085.61 173.108 1080.32 169.415ZM1089.63 140.82C1090.92 138.889 1094.62 140.499 1094.94 143.392C1095.26 146.284 1092.85 150.458 1089.63 145.963C1089.63 145.963 1088.34 142.751 1089.63 140.82ZM1085.13 139.858C1085.13 139.858 1057.51 134.074 1050.76 133.433C1050.76 133.433 1070.52 130.42 1085.13 139.858ZM1037.51 142.214C1039.03 136.053 1066.5 140.668 1074.05 142.911C1081.6 145.162 1093.81 152.229 1092.69 157.044C1091.57 161.859 1086.9 162.348 1077.74 157.044C1068.59 151.74 1042.4 150.346 1042.4 150.346C1038.69 150.09 1035.98 148.375 1037.51 142.214ZM1102.65 116.728C1106.02 117.849 1106.02 122.672 1104.9 124.275C1103.78 125.877 1098.63 123.313 1098.63 120.421C1098.62 120.421 1099.27 115.606 1102.65 116.728ZM1094.13 115.926C1094.13 115.926 1070.84 111.432 1058.95 110.302C1058.09 110.222 1081.12 107.89 1094.13 115.926ZM1109.71 95.5276C1110.99 91.9943 1115.02 93.2762 1115.18 96.3288C1115.34 99.3814 1114.22 101.473 1110.84 100.022C1110.83 100.022 1108.42 99.0609 1109.71 95.5276ZM1104.25 93.9172L1068.75 87.812C1068.75 87.812 1093.49 82.9968 1104.25 93.9172ZM1118.87 73.839C1119.35 71.9081 1123.85 62.4298 1123.2 56.4929C1123.2 56.4929 1125.62 58.584 1125.62 64.521C1125.62 70.4579 1125.14 77.853 1123.2 77.853C1121.27 77.853 1118.39 75.7619 1118.87 73.839ZM1012.53 137.775C1012.53 137.775 1013.97 133.921 1018.15 134.082C1022.33 134.242 1024.58 137.294 1022.81 143.4C1021.04 149.505 1018.79 150.627 1014.94 150.306C1011.08 149.978 1009.47 145.963 1012.53 137.775ZM1056.22 235.763C1056.38 238.334 1045.3 256.001 1045.3 256.001C1046.42 250.377 1051.24 239.616 1052.68 236.564C1054.13 233.511 1056.06 233.191 1056.22 235.763ZM962.411 223.392C962.411 223.392 962.251 220.82 964.823 220.82C967.395 220.82 967.555 223.392 967.555 223.392C967.555 223.392 967.875 248.133 981.207 257.283C981.199 257.283 962.732 248.293 962.411 223.392ZM972.851 226.284C972.851 226.284 973.492 223.552 976.384 223.712C979.276 223.873 979.597 226.284 979.597 226.284C979.597 226.284 979.909 253.79 994.379 262.747C994.371 262.747 976.384 258.573 972.851 226.284ZM986.183 229.657C986.183 229.657 986.183 226.445 988.915 226.605C991.647 226.765 991.327 229.657 991.327 229.657C991.327 229.657 989.884 255.2 1006.43 265.319C1006.42 265.319 985.702 258.252 986.183 229.657ZM997.904 231.1C997.904 231.1 997.744 227.726 1000.64 228.047C1003.53 228.367 1003.85 232.381 1003.85 232.381C1003.85 232.381 1000.8 255.993 1018.3 268.043C1018.31 268.051 993.89 259.054 997.904 231.1ZM1009.63 235.122C1009.63 235.122 1010.6 230.298 1013.65 231.268C1016.7 232.229 1015.74 235.923 1015.74 235.923C1015.74 235.923 1013.17 260.504 1031.64 271.264C1031.64 271.264 1006.74 262.427 1009.63 235.122ZM1035.18 256.001C1031 256.161 1019.91 243.15 1029.39 225.643C1029.39 225.643 1041.22 228.375 1048.96 232.229C1048.96 232.229 1039.35 255.841 1035.18 256.001Z" fill="white"/>
<path d="M1015.9 143.712C1015.9 140.98 1017.99 138.729 1017.99 138.729C1017.99 138.729 1019.43 137.287 1018.63 136.413C1017.83 135.54 1012.53 137.767 1012.69 143.712C1012.85 149.657 1015.9 146.444 1015.9 143.712Z" fill="white"/>
<path d="M1095.58 248.037C1095.58 244.736 1094.78 244.752 1092.85 245.016C1090.92 245.281 1090.76 249.095 1090.76 249.095C1094.63 261.313 1105.21 257.291 1105.21 257.291C1100.88 256.321 1095.58 251.346 1095.58 248.037Z" fill="white"/>
<path d="M1104.09 222.431H1101.2V231.14H1104.09V222.431Z" fill="white"/>
<path d="M1119.19 157.853C1121.28 156.243 1117.42 154.4 1114.05 155.161C1110.67 155.923 1108.58 159.135 1108.42 162.837C1108.26 166.53 1103.44 338.573 1103.44 338.573C1103.44 338.573 1101.19 350.784 1090.91 350.143C1080.63 349.502 1022.32 337.452 1022.32 337.452C1022.32 337.452 1011.56 332.797 1010.92 321.868C1010.27 310.948 1011.88 277.265 1011.88 277.265L1006.41 274.805L1003.68 328.622C1003.68 328.622 1005.61 340.993 1016.05 343.405C1026.49 345.816 1089.47 360.751 1089.47 360.751C1089.47 360.751 1108.58 363.427 1110.35 342.491C1112.11 321.556 1115.17 163.646 1115.17 163.646C1115.17 163.646 1117.1 159.456 1119.19 157.853Z" fill="white"/>
<path d="M1135.09 42.3516C1135.09 42.3516 1160.8 55.3631 1154.69 75.4414C1148.59 95.5196 1123.04 150.354 1123.04 150.354L1127.06 152.549L1155.01 90.3358C1155.01 90.3358 1162.72 70.9466 1160.48 61.4683C1160.32 60.8434 1180.23 71.908 1184.73 84.7594C1184.73 84.7594 1175.09 81.5465 1175.09 92.6272C1175.09 103.708 1184.41 106.921 1190.99 101.625L1189.71 118.65L1170.92 109.012L1190.35 124.115C1190.35 124.115 1195.82 123.474 1195.98 107.73C1196.13 91.9862 1187.3 62.7502 1135.09 42.3516Z" fill="white"/>
<path d="M1169.39 84.6069C1171.74 84.6069 1173.64 82.2681 1173.64 79.383C1173.64 76.498 1171.74 74.1592 1169.39 74.1592C1167.04 74.1592 1165.13 76.498 1165.13 79.383C1165.13 82.2681 1167.04 84.6069 1169.39 84.6069Z" fill="white"/>
<path d="M1180.56 132.976C1180.07 132.199 1163.05 122.352 1157.91 118.498C1152.76 114.644 1152.92 112.713 1153.09 111.271C1153.25 109.829 1152.93 109.18 1151.16 108.86C1149.39 108.539 1148.59 111.271 1148.59 111.271C1146.5 117.216 1154.37 120.669 1154.37 120.669C1154.37 120.669 1175.9 133.921 1179.75 137.294C1183.61 140.667 1180.39 145.651 1180.39 145.651C1180.39 145.651 1184.57 147.742 1186.66 141.661C1188.74 135.58 1181.04 133.753 1180.56 132.976Z" fill="white"/>
<path d="M1169.39 139.129C1162.88 134.394 1154.52 127.648 1153.4 131.822L1174.44 145.988C1174.45 145.988 1175.89 143.864 1169.39 139.129Z" fill="white"/>
<path d="M1141.48 132.167C1141.7 131.943 1141.88 131.718 1142.16 131.502C1142.16 131.51 1141.66 131.614 1141.48 132.167Z" fill="white"/>
<path d="M1173.65 157.373C1173.65 157.373 1155.33 147.734 1146.98 139.987C1141.8 135.179 1141.2 133.08 1141.49 132.175C1135.28 138.408 1150.04 147.077 1150.04 147.077L1169.39 158.655C1176.38 163.959 1171.41 168.453 1171.41 168.453C1171.41 168.453 1175.9 167.812 1176.87 163.975C1177.82 160.137 1173.65 157.373 1173.65 157.373Z" fill="white"/>
<path d="M1144.57 153.832C1149.88 165.401 1165.13 166.362 1165.13 166.362L1144.57 153.832Z" fill="white"/>
<path d="M1127.54 162.509C1119.02 161.387 1120.53 171.186 1119.78 175.68C1119.66 176.386 1133.32 178.413 1133.32 178.413C1133.32 178.413 1136.06 163.63 1127.54 162.509Z" fill="white"/>
<path d="M1138.63 163.975C1136.38 166.563 1138.63 168.453 1138.63 168.453L1162.4 183.396C1162.4 183.396 1163.2 185.968 1162.4 188.371C1161.6 190.783 1162.56 192.225 1162.56 192.225C1162.56 192.225 1168.34 186.761 1168.51 184.998C1168.67 183.228 1166.9 181.305 1166.9 181.305L1138.63 163.975Z" fill="white"/>
<path d="M1156.45 189.012L1138.3 178.412L1137.62 181.625C1137.62 181.625 1151.95 189.172 1153.39 190.142C1154.85 191.103 1156.45 189.012 1156.45 189.012Z" fill="white"/>
<path d="M1157.26 203.313L1137.63 193.354C1134.38 195.926 1151 204.756 1152.28 205.244C1153.56 205.725 1153.72 210.068 1153.4 211.51C1153.08 212.952 1153.56 213.28 1154.04 213.681C1154.52 214.082 1158.22 211.189 1158.44 207.336C1158.67 203.482 1157.26 203.313 1157.26 203.313Z" fill="white"/>
<path d="M1141.04 207.328C1137.51 206.046 1137.21 209.419 1137.21 209.419L1146.18 213.673C1146.18 213.673 1144.57 208.61 1141.04 207.328Z" fill="white"/>
<path d="M1135.74 220.66C1137.99 221.461 1143.76 229.497 1143.76 229.497C1143.76 229.497 1144.24 233.511 1144.46 234.962C1144.68 236.404 1147.62 234.641 1148.23 231.14C1148.84 227.639 1147.31 226.605 1147.04 225.644C1146.78 224.682 1135.74 220.66 1135.74 220.66Z" fill="white"/>
<path d="M1117.26 256.962C1117.42 260.015 1120.31 260.175 1124.9 257.916C1129.49 255.656 1131.23 248.037 1131.23 248.037C1131.23 248.037 1131.71 197.689 1131.87 197.209C1132.03 196.728 1131.55 192.554 1124.81 193.355C1118.06 194.156 1117.9 201.062 1117.9 201.062C1117.9 201.062 1117.1 253.91 1117.26 256.962Z" fill="white"/>
<path d="M1128.19 261.305C1123.04 262.427 1117.24 268.051 1117.24 268.051C1111.92 282.505 1131.24 268.372 1131.91 266.12C1132.57 263.869 1133.32 260.175 1128.19 261.305Z" fill="white"/>
<path d="M1137.21 248.037C1133.7 247.949 1134.45 251.194 1134.45 251.194C1134.29 259.887 1137.03 257.764 1137.99 256.001C1138.95 254.238 1140.71 248.133 1137.21 248.037Z" fill="white"/>
<path d="M1117.24 310.139L1130.12 302.591V283.635C1128.03 282.673 1115.67 290.701 1115.67 290.701L1117.24 310.139Z" fill="white"/>
<path d="M1121.27 338.885C1116.62 341.137 1113.57 336.954 1113.57 336.954V351.897C1125.62 349.646 1130.11 331.979 1130.11 331.979C1130.11 331.979 1125.94 336.642 1121.27 338.885Z" fill="white"/>
<path d="M1056.22 294.82C1056.22 294.82 1038.44 287 1037.32 287C1029.82 287 1035.5 290.91 1035.5 290.91L1056.22 294.82Z" fill="white"/>
<path d="M1080.48 293.914C1075.49 293.433 1048.03 286.687 1047.55 287.008C1047.55 287.008 1065.05 296.486 1077.58 297.768C1090.12 299.05 1102.65 292.143 1102.65 292.143C1102.65 292.143 1085.45 294.395 1080.48 293.914Z" fill="white"/>
<path d="M1101.84 297.928C1101.84 297.928 1085.6 299.386 1085.13 299.859C1082.62 302.431 1101.2 308.055 1101.2 308.055L1101.84 297.928Z" fill="white"/>
<path d="M1029.55 315.274C1030.51 311.26 1022 313.343 1019.75 313.832C1017.5 314.321 1007.47 320.418 1020.52 320.258C1020.52 320.258 1028.59 319.288 1029.55 315.274Z" fill="white"/>
<path d="M1034.86 336.642C1034.86 336.642 1074.69 345.479 1084.9 347.402C1095.11 349.333 1098.94 341.297 1098.94 341.297C1098.94 341.297 1093.64 341.297 1087.21 340.175C1080.79 339.054 1072.43 336.322 1066.34 334.551C1060.23 332.78 1066.34 340.175 1066.34 340.175C1066.34 340.175 1056.22 337.764 1053 336.962C1049.79 336.161 1052.36 335.681 1053.32 334.711C1054.29 333.742 1053.48 331.498 1049.95 331.338C1046.42 331.178 1040.47 328.125 1031.64 322.661C1022.8 317.197 1018.3 327.316 1018.3 327.316C1016.1 334.391 1034.86 336.642 1034.86 336.642Z" fill="white"/>
<path d="M1046.35 374.571H1043.51V392.606H1046.35V374.571Z" fill="white"/>
<path d="M1054.65 361.608C1051.21 361.608 1051.72 366.471 1050.76 368.498C1049.79 370.525 1050.76 391.188 1050.76 391.188L1058.54 388.753V366.872C1058.54 366.872 1058.09 361.608 1054.65 361.608Z" fill="white"/>
<path d="M1066.61 363.226C1065.6 370.926 1066.61 387.543 1066.61 387.543L1071.27 386.325V359.982C1071.27 359.982 1067.63 355.527 1066.61 363.226Z" fill="white"/>
<path d="M1163.36 109.925C1163.36 109.925 1180.07 118.202 1185.05 124.772C1185.05 124.772 1168.83 119.516 1163.36 109.925Z" fill="white"/>
<path d="M1002.67 276.295L985.967 255.304L965.552 253.533C980.47 271.993 1002.67 276.295 1002.67 276.295Z" fill="#A7E4FF"/>
<path d="M1133.62 318.271L1159.99 328.294L1169.59 321.82L1133.89 306.525L1133.62 318.271Z" fill="white"/>
<path d="M1199.54 301.654L1134.67 273.443L1134.2 293.762L1134.19 293.906L1182.53 313.111L1199.54 301.654Z" fill="white"/>
<path d="M1134.19 293.906L1133.89 306.525L1169.59 321.82L1182.53 313.111L1134.19 293.906Z" fill="#A7E4FF"/>
<path d="M1171.59 332.508L1224.85 360.462L1238.16 357.938C1217.91 346.281 1195.19 333.51 1183.41 327.853L1171.59 332.508Z" fill="white"/>
<path d="M803.484 1095.33C923.857 1075.63 1024.95 1039.64 1131.61 984.81C1202 948.619 1272.55 894.714 1320.9 843.397C1315.33 839.848 1308.52 835.313 1308.52 835.313C1308.52 835.313 1392.48 750.065 1405.33 653.688C1417.99 558.729 1384.45 462.128 1282.69 384.739L1282.08 396.853C1282.08 396.853 1312.14 419.271 1346.16 462.512C1380.18 505.761 1398.63 567.198 1398.63 601.481C1398.63 635.765 1393.36 691.401 1363.56 743.871C1333.76 796.342 1279.7 853.3 1239.62 885.997C1199.54 918.694 1092.48 986.196 1033.68 1014.94C974.878 1043.68 894.718 1066.1 790.553 1082.71C686.388 1099.32 600.17 1090.35 511.044 1082.18C421.918 1074.01 310.903 1041.31 310.903 1041.31L268.712 1049.16C287.757 1057.98 335.837 1077.48 420.949 1095.33C535.329 1119.32 683.111 1115.04 803.484 1095.33Z" fill="white"/>
<path d="M1200.75 321.027L1183.41 327.854C1195.19 333.502 1217.91 346.281 1238.16 357.939L1257.97 354.189C1232.51 337.42 1211.05 326.155 1200.75 321.027Z" fill="#A7E4FF"/>
<path d="M31.9957 796.759C44.0939 863.283 106.019 934.43 126.233 956.214V936.409C126.233 936.409 44.4144 868.298 36.7068 758.205C28.9992 648.111 109.961 548.738 126.233 536.744V522.418C35.0804 606.264 17.8224 718.825 31.9957 796.759Z" fill="white"/>
<path d="M25.1454 819.464C3.29651 725.651 28.9992 659.255 28.9992 659.255C52.6427 577.829 107.501 521.272 126.241 503.87V476.773C126.241 476.773 29.8565 562.878 5.86838 681.962C-18.1197 801.045 33.2856 914.567 126.241 987.389V966.894C48.3082 903.919 25.1454 819.464 25.1454 819.464Z" fill="url(#paint0_linear_5_717)"/>
<path d="M307.57 370.253C330.428 356.36 412.969 310.259 551.176 277.145C708.822 239.376 869.151 241.74 924.458 247.284L910.998 227.887L875.44 225.315L872.011 231.308L869.439 224.882C841.165 221.453 716.938 220.596 558.019 254.872C399.092 289.139 248.738 379.098 248.738 379.098L307.426 370.101L307.57 370.253Z" fill="white"/>
<path d="M927.711 273.443L943.992 275.438L935.507 263.204C930.852 262.675 926.149 262.194 921.397 261.778C926.397 266.08 927.711 273.443 927.711 273.443Z" fill="white"/>
<path d="M652.697 273.443C477.498 295.012 316.856 380.388 316.856 380.388L316.431 388.528L357.125 369.684C357.125 369.684 359.696 362.401 370.401 359.405C381.113 356.408 393.107 355.551 393.107 355.551C393.107 355.551 464.214 321.283 589.73 293.009C715.247 264.734 851.46 269.878 852.75 269.445C853.728 269.117 881.345 263.068 899.733 260.215C783.614 253.63 652.697 273.443 652.697 273.443Z" fill="white"/>
<path d="M955.553 235.17L934.561 230.883L944.128 251.683L965.544 253.533C961.49 248.518 957.933 242.501 955.553 235.17Z" fill="white"/>
<path d="M965.552 253.542L944.135 251.691L950.601 265.744L1002.68 276.304C1002.67 276.296 980.47 271.993 965.552 253.542Z" fill="#A7E4FF"/>
<path d="M1002.67 284.003V276.295L950.602 265.735L956.835 279.292L1002.67 284.003Z" fill="white"/>
<path d="M28.9992 659.255C28.9992 659.255 3.29658 725.651 25.1454 819.464C25.1454 819.464 48.3163 903.919 126.242 966.894V956.222C106.027 934.437 44.102 863.29 32.0038 796.766C17.8304 718.833 35.0884 606.272 126.242 522.426V503.87C107.493 521.272 52.6428 577.829 28.9992 659.255Z" fill="url(#paint1_linear_5_717)"/>
<path d="M551.177 277.153C412.977 310.267 330.437 356.368 307.57 370.261L316.856 380.388C316.856 380.388 477.49 295.012 652.697 273.444C652.697 273.444 783.614 253.63 899.725 260.208C905.446 259.318 910.301 258.733 913.145 258.733C916.646 258.733 919.322 259.999 921.39 261.778C926.141 262.203 930.844 262.675 935.499 263.204L924.458 247.292C869.151 241.748 708.822 239.384 551.177 277.153Z" fill="#A7E4FF"/>
<path d="M1387.55 457.232C1332.18 367.577 1222.48 312.462 1222.48 312.462L1200.75 321.019C1211.05 326.139 1232.51 337.404 1257.97 354.173L1265.19 352.803L1283.39 370.998L1283.34 371.896C1330.07 406.524 1381.63 456.615 1401.48 518.741C1441.32 643.392 1404.48 703.37 1374.92 768.909C1365.1 790.662 1346.76 815.723 1322.71 841.498C1322.13 842.123 1321.5 842.764 1320.9 843.389C1272.54 894.706 1202 948.619 1131.61 984.802C1024.95 1039.64 923.849 1075.62 803.484 1095.32C683.111 1115.02 535.329 1119.31 420.957 1095.32C335.845 1077.47 287.764 1057.97 268.72 1049.15L238.658 1054.75C316.183 1099.84 398.715 1109.86 509.995 1122.51C621.274 1135.17 736.503 1126.74 839.875 1107.22C943.238 1087.71 1046.35 1054.75 1158.67 991.46C1271 928.172 1329.02 859.085 1351.69 830.874C1374.37 802.656 1432.12 724.867 1433.7 620.189C1435.28 515.512 1387.55 457.232 1387.55 457.232Z" fill="url(#paint2_linear_5_717)"/>
<path d="M1405.34 653.688C1392.49 750.073 1308.53 835.313 1308.53 835.313C1308.53 835.313 1315.33 839.848 1320.91 843.397C1321.5 842.764 1322.14 842.131 1322.72 841.506C1346.77 815.731 1365.12 790.67 1374.93 768.917C1404.48 703.378 1441.32 643.408 1401.49 518.749C1381.63 456.631 1330.08 406.54 1283.35 371.904L1282.69 384.731C1384.45 462.127 1418 558.729 1405.34 653.688Z" fill="#00315F"/>
<path d="M802.194 881.574C802.194 881.574 801.553 812.182 801.12 801.366C800.696 790.549 790.408 790.974 790.408 790.974L683.319 811.749L684.393 948.186L736.864 938.548L737.505 904.064L744.571 903.207L756.565 935.119C756.565 935.119 800.904 927.62 802.186 927.62C803.468 927.62 789.118 893.56 789.118 893.56C801.345 891.645 802.194 881.574 802.194 881.574ZM749.507 868.082L736.231 870.437V834.88L749.507 832.092V868.082Z" fill="white"/>
<path d="M917.64 768.059C917.64 768.059 831.11 784.123 821.904 786.263C812.698 788.402 812.049 798.689 812.049 798.689V924.415L865.81 915.417L865.313 880.789L879.03 878.826L879.526 912.629L930.499 903.207C930.499 903.207 930.715 788.194 930.499 777.265C930.283 766.345 917.64 768.059 917.64 768.059ZM864.824 847.13L864.311 811.541L878.02 809.826L878.533 844.767L864.824 847.13Z" fill="white"/>
<path d="M1059 752.748C1059 742.789 1046.79 742.789 1046.79 742.789L941.203 762.707L943.134 900.002C943.134 900.002 1037.59 882.864 1049.58 880.084C1061.58 877.295 1060.72 865.301 1060.72 865.301C1060.72 865.301 1059 762.707 1059 752.748ZM995.389 856.729L993.674 786.687L1007.38 784.115L1008.66 853.724L995.389 856.729Z" fill="white"/>
<path d="M1072.93 737.43L1075.07 873.867L1127.33 864.869L1125.4 727.791L1072.93 737.43Z" fill="white"/>
<path d="M1255.84 713.441C1254.12 703.378 1241.49 706.158 1241.49 706.158L1149.17 723.512C1137.73 725.66 1137.82 738.078 1137.82 738.078C1137.82 738.078 1139.1 835.962 1139.32 849.67C1139.53 863.379 1153.67 860.166 1153.67 860.166C1153.67 860.166 1236.98 843.885 1247.48 841.746C1257.98 839.607 1256.69 827.397 1256.69 827.397C1256.69 827.397 1257.55 723.512 1255.84 713.441ZM1204.65 816.893L1190.3 819.032V747.709L1204.65 745.57V816.893Z" fill="white"/>
<path d="M1147.03 381.245L1147.89 518.107L1088.99 390.243L978.683 410.369L980.182 727.79L1088.99 708.514L1088.14 571.956L1146.61 697.377L1256.91 679.173L1257.13 361.968L1147.03 381.245Z" fill="white"/>
<path d="M836.47 675.961L836.894 756.065L955.977 734.857L956.618 445.069C956.618 445.069 955.761 420.008 927.919 423.861L713.733 460.917C713.733 460.917 686.532 463.914 684.393 492.188V782.617L804.333 762.483L804.117 681.737L836.47 675.961ZM804.558 521.961L835.829 516.176L836.686 598.853L806.633 604.261L804.558 604.637V521.961Z" fill="white"/>
<path d="M497.632 501.827L399.749 738.07L301.008 536.952L133.516 566.724V1045.21L297.363 1017.59L296.722 833.389L358.407 961.903L438.511 948.194L501.694 797.624C501.694 797.624 502.335 980.539 501.694 980.747C501.053 980.963 664.691 951.407 664.691 951.407L664.05 472.495L497.632 501.827Z" fill="white"/>
<path d="M185.354 482.982L229.26 475.916L229.901 441.648L185.779 449.356V431.577L240.397 423.012V389.602C240.397 389.602 155.798 404.384 145.302 406.523C134.806 408.663 133.524 419.799 133.524 419.799V542.953L184.93 533.747L185.354 482.982Z" fill="white"/>
<path d="M263.103 520.888L355.843 505.04V470.989L299.085 481.268L300.367 380.172L249.603 389.594V513.821C250.676 523.892 263.103 520.888 263.103 520.888Z" fill="white"/>
<path d="M375.544 499.471C375.544 499.471 455.432 486.403 467.427 483.623C479.421 480.835 478.78 469.49 478.78 469.49C478.78 469.49 478.563 366.038 478.78 357.474C478.996 348.909 468.717 348.909 468.717 348.909C468.717 348.909 382.611 364.332 374.046 366.046C365.481 367.761 363.767 378.898 363.767 378.898C363.767 378.898 364.191 479.778 363.767 490.698C363.334 501.618 375.544 499.471 375.544 499.471ZM413.241 391.525L428.448 389.594V458.129L413.241 459.411V391.525Z" fill="white"/>
<path d="M541.105 433.292L548.813 431.794L561.023 464.779L605.666 458.354L593.152 424.511C604.288 422.372 605.578 414.015 605.578 414.015C605.578 414.015 605.795 343.974 605.578 334.231C605.362 324.488 593.801 324.488 593.801 324.488L489.924 343.982V477.206L541.546 468.641L541.105 433.292ZM541.105 366.68L554.814 364.541V399.241L541.105 400.851V366.68Z" fill="white"/>
<path d="M616.715 454.708L668.337 445.927V310.996L615.858 319.777L616.715 454.708Z" fill="white"/>
<path d="M794.487 411.018C794.487 411.018 795.128 310.563 794.487 299.963C793.846 289.363 780.562 290.861 780.562 290.861L679.041 309.065V442.714C679.041 442.714 769.858 427.074 782.917 423.461C795.985 419.847 794.487 411.018 794.487 411.018ZM742.873 398.591L731.095 400.843L730.022 332.412L743.947 330.056L742.873 398.591Z" fill="white"/>
<path d="M856.099 376.494L869.591 373.69L869.447 408.222L921.926 399.866C921.926 399.866 921.069 284.42 920.644 274.357C920.22 264.294 908.866 267.506 908.866 267.506C908.866 267.506 826.623 280.782 815.911 283.354C805.199 285.926 805.631 297.92 805.631 297.92L804.558 420.008L856.179 409.728L856.099 376.494ZM855.955 308.424L869.88 306.926L869.736 341.081L856.035 342.98L855.955 308.424Z" fill="white"/>
<path d="M694.216 820.658L695.113 935.222L726.224 929.51L726.705 903.863L726.881 894.457L736.215 893.327L743.282 892.47L751.718 891.444L754.707 899.4L763.568 922.972C774.529 921.121 782.292 919.831 787.829 918.926C785.385 912.732 782.14 904.825 779.168 897.766L773.808 885.035L787.452 882.88C788.285 882.751 790.729 882.359 791.378 880.556C791.29 871.655 790.721 812.438 790.336 802.006L694.216 820.658ZM760.323 832.099V868.081V877.151L751.398 878.737L738.122 881.093L725.415 883.344V870.437V834.879V826.098L734.012 824.295L747.288 821.507L760.323 818.775V832.099Z" fill="url(#paint3_linear_5_717)"/>
<path d="M919.467 778.779L919.13 778.787C889.141 784.356 831.414 795.164 824.356 796.798C823.386 797.023 822.985 798.713 822.873 799.354V911.635L854.865 906.283L854.497 880.949L854.361 871.431L863.783 870.085L877.5 868.122L889.662 866.383L889.838 878.674L890.142 899.665L919.691 894.201C919.731 867.937 919.843 792.352 919.699 778.779H919.467ZM880.368 855.423L866.667 857.786L854.192 859.941L854.008 847.282L853.495 811.693L853.359 802.006L862.974 800.804L876.682 799.09L888.66 797.592L888.836 809.666L889.349 844.606L889.485 853.852L880.368 855.423Z" fill="url(#paint4_linear_5_717)"/>
<path d="M1049.9 865.477C1049.84 861.407 1048.28 768.387 1048.19 753.845L1047.39 753.677L952.148 771.648L953.766 887.07C988.002 880.828 1038.93 871.446 1047.13 869.539C1048.12 869.307 1049.96 868.882 1049.91 865.806L1049.84 865.229L1049.9 865.477ZM1011.05 864.284L997.776 867.28L984.901 870.188L984.58 856.993L982.866 786.951L982.641 777.753L991.687 776.055L1005.4 773.483L1017.97 771.128L1018.2 783.915L1019.48 853.523L1019.64 862.337L1011.05 864.284Z" fill="url(#paint5_linear_5_717)"/>
<path d="M1083.88 746.419L1085.68 861.063L1116.39 855.775L1114.77 740.746L1083.88 746.419Z" fill="url(#paint6_linear_5_717)"/>
<path d="M1245.32 716.622H1245.23C1244.36 716.622 1243.68 716.75 1243.67 716.75L1151.17 734.136C1149.18 734.512 1148.69 736.547 1148.64 738.198C1148.64 738.294 1149.92 835.817 1150.13 849.493L1150.14 849.67H1150.26C1150.93 849.67 1151.44 849.574 1151.45 849.574C1152.43 849.381 1234.99 833.245 1245.32 831.138L1245.51 831.09C1245.77 830.545 1245.98 829.223 1245.93 828.334L1245.86 827.725L1245.89 827.292C1246.27 780.349 1246.19 727.454 1245.32 716.622ZM1215.46 745.569V816.892V826.21L1206.24 827.588L1191.89 829.728L1179.48 831.578V819.032V747.708V738.39L1188.7 737.012L1203.05 734.873L1215.46 733.022V745.569Z" fill="url(#paint7_linear_5_717)"/>
<path d="M1077.01 522.49L1097.93 567.39L1152.94 685.367L1246.1 669.992L1246.3 374.844L1157.91 390.324L1158.71 518.044L1159.02 568.119L1138.07 522.634L1082.68 402.39L989.548 419.383L990.942 714.9L1078.11 699.46L1077.32 572.021L1077.01 522.49Z" fill="url(#paint8_linear_5_717)"/>
<path d="M933.488 434.278C932.27 434.278 930.956 434.374 929.578 434.558L715.584 471.582L715.255 471.638L714.927 471.678C711.971 472.063 696.764 474.931 695.217 492.638V769.847L793.501 753.35L793.309 681.778L793.285 672.7L802.218 671.106L834.563 665.321L847.214 663.062L847.286 675.913L847.647 743.174L945.185 725.804L945.81 445.342C945.522 441.24 943.519 434.286 933.488 434.278ZM838.601 609.501L808.548 614.909L806.473 615.286L793.742 617.578V604.638V521.962V512.964L802.587 511.33L833.858 505.545L846.509 503.205L846.645 516.065L847.502 598.741L847.598 607.883L838.601 609.501Z" fill="url(#paint9_linear_5_717)"/>
<path d="M505.348 511.45L409.74 742.213L400.582 764.318L390.038 742.838L294.887 549.026L144.333 575.787V1032.42L286.514 1008.44L285.905 833.414L285.737 785.502L306.472 828.695L364.624 949.845L430.835 938.516L491.719 793.418L512.326 744.32L512.51 797.568C512.51 797.568 512.671 843.309 512.751 889.066C512.791 911.956 512.807 934.855 512.783 952.04C512.775 958.073 512.759 963.402 512.735 967.784C540.841 962.745 609.184 950.414 653.867 942.346L653.25 485.354L505.348 511.45Z" fill="url(#paint10_linear_5_717)"/>
<path d="M174.538 482.886L174.618 473.752L183.64 472.302L218.62 466.67L218.845 454.556L187.638 460.012L174.963 462.231V449.356V431.577V422.323L184.104 420.889L229.581 413.758V402.469C205.585 406.676 155.245 415.529 147.465 417.115C145.382 417.54 144.605 419.623 144.341 420.761V530.029L174.185 524.685L174.538 482.886Z" fill="url(#paint11_linear_5_717)"/>
<path d="M261.052 510.255L261.277 510.231L345.027 495.914V483.936L301.008 491.908L288.101 494.247L288.269 481.132L289.383 393.215L260.419 398.591V510.392L260.7 510.344L261.052 510.255Z" fill="url(#paint12_linear_5_717)"/>
<path d="M374.631 488.663C402.321 484.128 455.857 475.203 464.983 473.088C466.065 472.839 467.851 472.423 467.972 469.963L467.907 469.458L467.972 469.514C467.964 465.564 467.779 378.505 467.931 360.038C453.285 362.666 383.685 375.148 376.169 376.647C375.673 377.015 374.912 378.826 374.591 379.972C374.631 390.98 374.952 470.948 374.631 488.663ZM402.425 459.419V391.525V381.991L411.879 380.789L427.086 378.858L439.264 377.312V389.586V458.121V468.064L429.361 468.897L414.155 470.179L402.425 471.173V459.419Z" fill="url(#paint13_linear_5_717)"/>
<path d="M530.297 433.42L530.185 424.39L539.047 422.668L546.754 421.169L555.776 419.415L558.964 428.028L568.138 452.817L590.885 449.54L583.009 428.252L578.586 416.29L591.117 413.878C593.392 413.438 594.362 412.669 594.77 412.14C594.802 401.396 594.947 346.858 594.786 335.472L594.354 335.384L500.733 352.947V464.434L530.61 459.475L530.297 433.42ZM530.289 400.843V366.679V357.425L539.439 355.999L553.148 353.86L565.631 351.905V364.54V399.24V408.863L556.072 409.984L542.364 411.595L530.289 413.013V400.843Z" fill="url(#paint14_linear_5_717)"/>
<path d="M627.451 441.913L657.521 436.793V323.767L626.73 328.919L627.451 441.913Z" fill="url(#paint15_linear_5_717)"/>
<path d="M783.671 411.395V410.946C783.839 384.066 784.175 314.08 783.743 301.718C783.334 301.654 782.821 301.605 782.228 301.605L781.908 301.613L689.857 318.118V429.87C719.951 424.623 771.172 415.497 780.033 413.045C782.301 412.412 783.302 411.715 783.671 411.395ZM754.755 330.225L753.681 398.76L753.545 407.565L744.9 409.215L733.122 411.467L720.48 413.878L720.279 401.011L719.206 332.58L719.061 323.294L728.219 321.748L742.144 319.392L754.963 317.221L754.755 330.225Z" fill="url(#paint16_linear_5_717)"/>
<path d="M815.486 406.804L845.339 400.859L845.291 376.518L845.275 367.697L853.912 365.902L867.404 363.098L880.472 360.382L880.416 373.73L880.328 395.539L911.046 390.652C910.758 352.971 910.253 294.235 909.932 278.291C886.673 282.048 826.815 291.863 818.435 293.874C816.608 294.315 816.448 296.943 816.44 297.736L816.448 297.976L816.44 298.016L815.486 406.804ZM854.801 297.664L868.726 296.165L880.752 294.867L880.704 306.966L880.56 341.121L880.52 350.503L871.226 351.793L857.526 353.692L845.251 355.39L845.227 342.996L845.155 308.448L845.131 298.713L854.801 297.664Z" fill="url(#paint17_linear_5_717)"/>
<defs>
<linearGradient id="paint0_linear_5_717" x1="-0.00325158" y1="732.076" x2="126.236" y2="732.076" gradientUnits="userSpaceOnUse">
<stop stop-color="#00315F"/>
<stop offset="1" stop-color="#A7E4FF"/>
</linearGradient>
<linearGradient id="paint1_linear_5_717" x1="16.34" y1="735.377" x2="126.237" y2="735.377" gradientUnits="userSpaceOnUse">
<stop stop-color="#A7E4FF"/>
<stop offset="1" stop-color="#00315F"/>
</linearGradient>
<linearGradient id="paint2_linear_5_717" x1="238.653" y1="720.498" x2="1433.74" y2="720.498" gradientUnits="userSpaceOnUse">
<stop stop-color="#A7E4FF"/>
<stop offset="1" stop-color="#00315F"/>
</linearGradient>
<linearGradient id="paint3_linear_5_717" x1="737.865" y1="802.255" x2="741.72" y2="854.944" gradientUnits="userSpaceOnUse">
<stop stop-color="#A7E4FF"/>
<stop offset="1" stop-color="#00315F"/>
</linearGradient>
<linearGradient id="paint4_linear_5_717" x1="867.446" y1="792.774" x2="871.301" y2="845.463" gradientUnits="userSpaceOnUse">
<stop stop-color="#A7E4FF"/>
<stop offset="1" stop-color="#00315F"/>
</linearGradient>
<linearGradient id="paint5_linear_5_717" x1="998.253" y1="783.202" x2="1002.11" y2="835.891" gradientUnits="userSpaceOnUse">
<stop stop-color="#A7E4FF"/>
<stop offset="1" stop-color="#00315F"/>
</linearGradient>
<linearGradient id="paint6_linear_5_717" x1="1098.39" y1="775.875" x2="1102.25" y2="828.564" gradientUnits="userSpaceOnUse">
<stop stop-color="#A7E4FF"/>
<stop offset="1" stop-color="#00315F"/>
</linearGradient>
<linearGradient id="paint7_linear_5_717" x1="1196.67" y1="768.683" x2="1200.53" y2="821.372" gradientUnits="userSpaceOnUse">
<stop stop-color="#A7E4FF"/>
<stop offset="1" stop-color="#00315F"/>
</linearGradient>
<linearGradient id="paint8_linear_5_717" x1="1120.55" y1="562.437" x2="1134.69" y2="690.947" gradientUnits="userSpaceOnUse">
<stop stop-color="#A7E4FF"/>
<stop offset="1" stop-color="#00315F"/>
</linearGradient>
<linearGradient id="paint9_linear_5_717" x1="819.197" y1="595.586" x2="833.333" y2="724.096" gradientUnits="userSpaceOnUse">
<stop stop-color="#A7E4FF"/>
<stop offset="1" stop-color="#00315F"/>
</linearGradient>
<linearGradient id="paint10_linear_5_717" x1="386.069" y1="643.23" x2="400.205" y2="771.74" gradientUnits="userSpaceOnUse">
<stop stop-color="#A7E4FF"/>
<stop offset="1" stop-color="#00315F"/>
</linearGradient>
<linearGradient id="paint11_linear_5_717" x1="181.966" y1="381.405" x2="185.822" y2="446.945" gradientUnits="userSpaceOnUse">
<stop stop-color="#A7E4FF"/>
<stop offset="1" stop-color="#00315F"/>
</linearGradient>
<linearGradient id="paint12_linear_5_717" x1="295.521" y1="374.725" x2="299.376" y2="440.265" gradientUnits="userSpaceOnUse">
<stop stop-color="#A7E4FF"/>
<stop offset="1" stop-color="#00315F"/>
</linearGradient>
<linearGradient id="paint13_linear_5_717" x1="417.941" y1="367.524" x2="421.796" y2="433.064" gradientUnits="userSpaceOnUse">
<stop stop-color="#A7E4FF"/>
<stop offset="1" stop-color="#00315F"/>
</linearGradient>
<linearGradient id="paint14_linear_5_717" x1="545.41" y1="360.026" x2="549.266" y2="425.566" gradientUnits="userSpaceOnUse">
<stop stop-color="#A7E4FF"/>
<stop offset="1" stop-color="#00315F"/>
</linearGradient>
<linearGradient id="paint15_linear_5_717" x1="640.812" y1="354.414" x2="644.668" y2="419.954" gradientUnits="userSpaceOnUse">
<stop stop-color="#A7E4FF"/>
<stop offset="1" stop-color="#00315F"/>
</linearGradient>
<linearGradient id="paint16_linear_5_717" x1="735.803" y1="348.826" x2="739.658" y2="414.366" gradientUnits="userSpaceOnUse">
<stop stop-color="#A7E4FF"/>
<stop offset="1" stop-color="#00315F"/>
</linearGradient>
<linearGradient id="paint17_linear_5_717" x1="862.637" y1="341.366" x2="866.492" y2="406.906" gradientUnits="userSpaceOnUse">
<stop stop-color="#A7E4FF"/>
<stop offset="1" stop-color="#00315F"/>
</linearGradient>
</defs>
</svg>
